<?xml version="1.0" encoding="utf-8"?>
<!-- Generator: Adobe Illustrator 24.1.1, SVG Export Plug-In . SVG Version: 6.00 Build 0)  -->
<svg version="1.1" id="Capa_1" xmlns="http://www.w3.org/2000/svg" xmlns:xlink="http://www.w3.org/1999/xlink" x="0px" y="0px"
	 viewBox="0 0 126.41 126.5" style="enable-background:new 0 0 126.41 126.5;" xml:space="preserve">
<style type="text/css">
	.st0{fill:#BFBFBF;}
	.st1{fill:#A6CE39;}
	.st2{fill:#62BB46;}
	.st3{fill:#009F46;}
	.st4{fill:#FFFFFF;}
	.st5{fill:#F45B6A;}
	.st6{fill:none;stroke:#F45B6A;stroke-width:5.9259;stroke-miterlimit:10;}
	.st7{fill:#F8C5B0;}
	.st8{fill:#DAA28B;}
	.st9{fill:#FFFFFF;stroke:#F45B6A;stroke-width:5.9259;stroke-miterlimit:10;}
	.st10{fill:#999999;}
	.st11{fill:#007CC3;}
</style>
<g>
	<g>
		<path class="st2" d="M117.39,94.26c10.6-5.78,11.11-25.28,1.15-43.55S91.91,22.29,81.32,28.07L42.48,50.68l4.87,16.57l31.21,49.62
			L117.39,94.26z"/>
		<path class="st4" d="M78.56,117.62c-0.25,0-0.49-0.12-0.64-0.35L46.72,67.65c-0.04-0.06-0.07-0.12-0.08-0.19l-4.87-16.57
			c-0.1-0.33,0.04-0.69,0.34-0.86l38.83-22.62c5.39-2.94,12.35-2.11,19.62,2.3c7.14,4.34,13.76,11.67,18.64,20.62
			c10.14,18.61,9.49,38.59-1.44,44.57l-38.82,22.61C78.82,117.59,78.69,117.62,78.56,117.62z M48.04,66.94l30.77,48.92l38.21-22.25
			c0.01,0,0.01-0.01,0.02-0.01c10.22-5.57,10.6-24.65,0.85-42.54C113.13,42.34,106.7,35.21,99.78,31
			c-6.79-4.13-13.22-4.94-18.1-2.28L43.37,51.04L48.04,66.94z"/>
	</g>
	<g>
		<path class="st2" d="M8.3,46.38c5.48,7.3,20.24,5.48,32.96-4.07S59.84,19.1,54.36,11.8l-4.93-6.57L3.37,39.81L8.3,46.38z"/>
		<path class="st4" d="M19.04,51.57c-4.88,0-8.95-1.55-11.35-4.74l0,0l-4.93-6.57c-0.25-0.33-0.18-0.8,0.15-1.05L48.98,4.63
			c0.16-0.12,0.36-0.17,0.56-0.14c0.2,0.03,0.37,0.13,0.49,0.29l4.93,6.57c2.82,3.76,2.95,9.14,0.36,15.16
			c-2.53,5.88-7.36,11.71-13.62,16.4C34.13,48.59,25.81,51.57,19.04,51.57z M8.9,45.93c5.22,6.96,19.54,5.07,31.91-4.22
			c6.05-4.54,10.72-10.15,13.14-15.79c2.37-5.51,2.3-10.36-0.18-13.67l-4.48-5.97L4.42,39.96L8.9,45.93z"/>
	</g>
	<g>
		
			<ellipse transform="matrix(0.7997 -0.6003 0.6003 0.7997 -8.2333 20.3589)" class="st2" cx="26.4" cy="22.52" rx="28.8" ry="16.53"/>
		<path class="st4" d="M14.08,45.04c-5.01,0-8.97-1.65-11.32-4.78l0,0C-2.95,32.64,2.99,18.48,16.02,8.7
			c6.26-4.7,13.2-7.71,19.55-8.5c6.5-0.81,11.64,0.82,14.46,4.58c5.72,7.62-0.23,21.78-13.26,31.56c-6.26,4.7-13.2,7.71-19.55,8.5
			C16.14,44.97,15.09,45.04,14.08,45.04z M38.72,1.5c-0.94,0-1.93,0.06-2.96,0.19c-6.1,0.75-12.79,3.67-18.84,8.21
			C4.56,19.18-1.26,32.4,3.97,39.36c2.48,3.31,7.12,4.72,13.07,3.99c6.1-0.75,12.79-3.67,18.84-8.21
			c12.37-9.29,18.18-22.5,12.96-29.46C46.78,2.94,43.25,1.5,38.72,1.5z"/>
	</g>
	<g>
		
			<ellipse transform="matrix(0.878 -0.4786 0.4786 0.878 -32.7131 39.1814)" class="st2" cx="60.52" cy="83.78" rx="21.86" ry="37.69"/>
		<path class="st4" d="M72,119.23c-10.37,0-23.14-9.6-31.33-24.63l0,0c-10.14-18.61-9.49-38.61,1.45-44.57
			c5.37-2.93,12.33-2.11,19.6,2.31c7.14,4.34,13.76,11.67,18.64,20.62c10.14,18.61,9.49,38.61-1.45,44.57
			C76.81,118.68,74.47,119.23,72,119.23z M41.99,93.88c9.75,17.89,25.99,27.9,36.21,22.34c10.22-5.57,10.6-24.65,0.85-42.54
			c-4.76-8.73-11.19-15.85-18.11-20.06c-6.79-4.13-13.22-4.94-18.1-2.28C32.62,56.91,32.24,75.99,41.99,93.88L41.99,93.88z"/>
	</g>
	<g>
		<path class="st2" d="M73.8,108.97c8.12-4.43,8.52-19.37,0.88-33.38S54.28,53.81,46.15,58.23l-6.72,4.13l15.04,36.71l12.61,14.03
			L73.8,108.97z"/>
		<path class="st4" d="M67.09,113.85c-0.21,0-0.41-0.09-0.56-0.25L53.92,99.58c-0.06-0.06-0.1-0.14-0.14-0.22L38.74,62.65
			c-0.14-0.34-0.01-0.73,0.3-0.92l6.72-4.13c8.51-4.64,21.77,3.28,29.59,17.63c3.76,6.89,5.73,14.23,5.56,20.66
			c-0.17,6.57-2.56,11.45-6.72,13.73l-6.7,4.12C67.36,113.82,67.22,113.85,67.09,113.85z M55.13,98.67l12.1,13.46l6.18-3.8
			c0.01-0.01,0.02-0.01,0.03-0.02c3.68-2.01,5.8-6.43,5.96-12.46c0.16-6.18-1.75-13.25-5.38-19.91
			C66.6,62.32,54.26,54.67,46.51,58.89l-6.14,3.78L55.13,98.67z"/>
	</g>
	<g>
		
			<ellipse transform="matrix(0.878 -0.4786 0.4786 0.878 -35.492 36.1898)" class="st2" cx="53.26" cy="87.73" rx="16.75" ry="28.89"/>
		<path class="st4" d="M62.07,115.08c-8.02,0-17.87-7.39-24.18-18.97c-3.76-6.89-5.73-14.23-5.56-20.66
			c0.17-6.58,2.57-11.46,6.74-13.74c4.17-2.27,9.57-1.64,15.2,1.78c5.5,3.34,10.6,8.98,14.35,15.87c7.82,14.35,7.29,29.78-1.18,34.4
			C65.81,114.65,63.99,115.08,62.07,115.08z M44.53,61.87c-1.72,0-3.32,0.38-4.74,1.16c-3.68,2.01-5.8,6.43-5.96,12.46
			c-0.16,6.18,1.75,13.25,5.38,19.91l0,0c7.43,13.62,19.77,21.27,27.52,17.05c7.75-4.22,8.01-18.74,0.58-32.37
			c-3.63-6.66-8.54-12.1-13.82-15.31C50.33,62.84,47.27,61.87,44.53,61.87z"/>
	</g>
	<g>
		
			<ellipse transform="matrix(0.878 -0.4786 0.4786 0.878 -35.492 36.1898)" class="st2" cx="53.26" cy="87.73" rx="14.44" ry="24.9"/>
		<path class="st4" d="M60.86,111.4c-6.95,0-15.48-6.39-20.94-16.4l0,0c-3.25-5.95-4.95-12.3-4.81-17.86
			c0.15-5.71,2.23-9.95,5.87-11.93c7.35-4.01,18.84,2.83,25.61,15.26c6.77,12.42,6.29,25.79-1.06,29.79
			C64.11,111.04,62.53,111.4,60.86,111.4z M45.76,65.54c-1.45,0-2.82,0.32-4.05,0.99c-3.14,1.71-4.95,5.5-5.08,10.65
			c-0.14,5.31,1.5,11.38,4.62,17.11l0,0c6.37,11.69,16.95,18.27,23.58,14.66c6.63-3.61,6.83-16.07,0.46-27.76
			C60.09,71.66,52.12,65.54,45.76,65.54z"/>
	</g>
	<g>
		<path class="st2" d="M4.65,93.96L4.65,93.96c3.14-1.22,6.69,0.33,7.91,3.48l5.89,15.14c1.22,3.14-0.33,6.69-3.48,7.91l0,0
			c-3.14,1.22-6.69-0.33-7.91-3.48l-5.89-15.14C-0.05,98.73,1.5,95.19,4.65,93.96z"/>
		<path class="st4" d="M12.76,121.65c-2.75,0-5.35-1.66-6.4-4.37l-5.89-15.14c-0.67-1.71-0.63-3.57,0.11-5.25
			c0.74-1.68,2.08-2.97,3.79-3.63l0,0c1.71-0.67,3.57-0.63,5.25,0.11c1.68,0.74,2.97,2.08,3.63,3.79l5.89,15.14
			c1.37,3.52-0.38,7.51-3.9,8.88C14.43,121.5,13.59,121.65,12.76,121.65z M4.92,94.66c-1.33,0.52-2.39,1.53-2.96,2.84
			s-0.61,2.77-0.09,4.1l5.89,15.14c0.52,1.33,1.53,2.39,2.84,2.96c1.31,0.58,2.77,0.61,4.1,0.09c2.75-1.07,4.12-4.19,3.05-6.94
			l-5.89-15.14c-0.52-1.33-1.53-2.39-2.84-2.96C7.71,94.17,6.25,94.14,4.92,94.66L4.92,94.66z"/>
	</g>
	<g>
		<g>
			<path class="st2" d="M1.17,101.87c-1.22-3.14,0.33-6.69,3.48-7.91l0,0c3.14-1.22,6.69,0.33,7.91,3.48l2.84,7.3
				c-0.18,2.52-1.77,4.84-4.29,5.82v0c-2.52,0.98-5.26,0.35-7.1-1.39L1.17,101.87z"/>
		</g>
		<g>
			<path class="st4" d="M8.68,111.76c-1.89,0-3.76-0.71-5.18-2.05c-0.08-0.08-0.14-0.17-0.18-0.27l-2.84-7.3
				c-1.37-3.52,0.38-7.51,3.9-8.88c1.71-0.67,3.57-0.63,5.25,0.11c1.68,0.74,2.97,2.08,3.63,3.79l2.84,7.3
				c0.04,0.1,0.06,0.22,0.05,0.33c-0.21,2.88-2.08,5.42-4.77,6.47C10.51,111.6,9.59,111.76,8.68,111.76z M4.65,108.73
				c1.68,1.5,4.09,1.94,6.19,1.13c2.1-0.82,3.57-2.77,3.8-5.02l-2.78-7.13c-0.52-1.33-1.53-2.39-2.84-2.96
				c-1.31-0.58-2.77-0.61-4.1-0.09c-1.33,0.52-2.39,1.53-2.96,2.84s-0.61,2.77-0.09,4.1l0,0L4.65,108.73z"/>
		</g>
	</g>
	<g>
		<path class="st2" d="M33.89,125.34L33.89,125.34c-3.14,1.22-6.69-0.33-7.91-3.48l-5.89-15.14c-1.22-3.14,0.33-6.69,3.48-7.91h0
			c3.14-1.22,6.69,0.33,7.91,3.48l5.89,15.14C38.59,120.57,37.04,124.11,33.89,125.34z"/>
		<path class="st4" d="M31.68,126.5c-2.75,0-5.35-1.66-6.4-4.37l-5.89-15.14c-1.37-3.52,0.38-7.51,3.9-8.88
			c3.52-1.37,7.51,0.38,8.88,3.9l5.89,15.14c0.67,1.71,0.63,3.57-0.11,5.25s-2.08,2.97-3.79,3.63l0,0
			C33.35,126.35,32.51,126.5,31.68,126.5z M33.89,125.34L33.89,125.34L33.89,125.34z M25.79,99.14c-0.66,0-1.31,0.12-1.95,0.37
			c-2.75,1.07-4.12,4.19-3.05,6.94l5.89,15.14c0.52,1.33,1.53,2.39,2.84,2.96s2.77,0.61,4.1,0.09l0,0c1.33-0.52,2.39-1.53,2.96-2.84
			c0.58-1.31,0.61-2.77,0.09-4.1l-5.89-15.14c-0.52-1.33-1.53-2.39-2.84-2.96C27.25,99.3,26.52,99.14,25.79,99.14z"/>
	</g>
	<g>
		<g>
			<path class="st2" d="M37.37,117.43c1.22,3.14-0.33,6.69-3.48,7.91l0,0c-3.14,1.22-6.69-0.33-7.91-3.48l-2.84-7.3
				c0.18-2.52,1.77-4.84,4.29-5.82v0c2.52-0.98,5.26-0.35,7.1,1.39L37.37,117.43z"/>
		</g>
		<g>
			<path class="st4" d="M31.68,126.5c-2.75,0-5.35-1.66-6.4-4.37l-2.84-7.3c-0.04-0.1-0.06-0.22-0.05-0.33
				c0.21-2.88,2.08-5.42,4.77-6.47c2.69-1.05,5.78-0.44,7.88,1.54c0.08,0.08,0.14,0.17,0.18,0.27l2.84,7.3
				c0.67,1.71,0.63,3.57-0.11,5.25s-2.08,2.97-3.79,3.63C33.35,126.35,32.51,126.5,31.68,126.5z M23.9,114.45l2.78,7.13
				c1.07,2.75,4.19,4.12,6.94,3.05c1.33-0.52,2.39-1.53,2.96-2.84c0.58-1.31,0.61-2.77,0.09-4.1l0,0l-2.78-7.13
				c-1.68-1.5-4.09-1.94-6.19-1.13C25.61,110.25,24.13,112.21,23.9,114.45z"/>
		</g>
	</g>
	<g>
		<path class="st2" d="M57.98,81.64L57.98,81.64c1.73,2.9,0.77,6.65-2.12,8.37L41.9,98.32c-2.9,1.73-6.65,0.77-8.37-2.12l0,0
			c-1.73-2.9-0.77-6.65,2.12-8.37l13.96-8.31C52.5,77.79,56.25,78.74,57.98,81.64z"/>
		<path class="st4" d="M38.78,99.93c-0.57,0-1.14-0.07-1.7-0.21c-1.78-0.45-3.27-1.57-4.21-3.14c-0.94-1.57-1.21-3.42-0.75-5.2
			c0.45-1.78,1.57-3.27,3.14-4.21l13.96-8.31c1.57-0.94,3.42-1.21,5.2-0.75c1.78,0.45,3.27,1.57,4.21,3.14l0,0
			c1.93,3.25,0.86,7.47-2.38,9.4l-13.96,8.31C41.21,99.61,40,99.93,38.78,99.93z M52.72,79.4c-0.95,0-1.89,0.26-2.73,0.76
			l-13.96,8.31c-1.23,0.73-2.1,1.9-2.45,3.29c-0.35,1.39-0.14,2.83,0.59,4.06c0.73,1.23,1.9,2.1,3.29,2.45
			c1.39,0.35,2.83,0.14,4.06-0.59l13.96-8.31c2.54-1.51,3.38-4.81,1.86-7.35l0,0c-0.73-1.23-1.9-2.1-3.29-2.45
			C53.61,79.46,53.16,79.4,52.72,79.4z"/>
	</g>
	<g>
		<g>
			<path class="st2" d="M49.6,79.51c2.9-1.73,6.65-0.77,8.37,2.12l0,0c1.73,2.9,0.77,6.65-2.12,8.37l-6.73,4.01
				c-2.52,0.24-5.07-0.95-6.45-3.27h0c-1.38-2.32-1.21-5.13,0.2-7.23L49.6,79.51z"/>
		</g>
		<g>
			<path class="st4" d="M48.5,94.8c-2.63,0-5.11-1.39-6.47-3.67c-1.47-2.48-1.39-5.63,0.22-8.03c0.06-0.09,0.14-0.17,0.24-0.23
				l6.73-4.01c1.57-0.94,3.42-1.21,5.2-0.75c1.78,0.45,3.27,1.57,4.21,3.14c1.93,3.25,0.86,7.47-2.38,9.4l-6.73,4.01
				c-0.1,0.06-0.2,0.09-0.31,0.1C48.96,94.79,48.73,94.8,48.5,94.8z M43.41,84.07c-1.2,1.9-1.24,4.36-0.09,6.29
				c1.15,1.94,3.33,3.06,5.57,2.92l6.58-3.92c2.54-1.51,3.38-4.81,1.86-7.35c-0.73-1.23-1.9-2.1-3.29-2.45
				c-1.39-0.35-2.83-0.14-4.06,0.59L43.41,84.07z"/>
		</g>
	</g>
	<g>
		<path class="st2" d="M41.03,110.2L41.03,110.2c-1.73-2.9-0.77-6.65,2.12-8.37l13.96-8.31c2.9-1.73,6.65-0.77,8.37,2.12l0,0
			c1.73,2.9,0.77,6.65-2.12,8.37l-13.96,8.31C46.51,114.05,42.76,113.1,41.03,110.2z"/>
		<path class="st4" d="M46.3,113.93c-0.57,0-1.14-0.07-1.7-0.21c-1.78-0.45-3.27-1.57-4.21-3.14c-1.93-3.25-0.86-7.47,2.38-9.4
			l13.96-8.31c1.57-0.94,3.42-1.21,5.2-0.75c1.78,0.45,3.27,1.57,4.21,3.14c0.94,1.57,1.21,3.42,0.75,5.2
			c-0.45,1.78-1.57,3.27-3.14,4.21l-13.96,8.31C48.72,113.61,47.52,113.93,46.3,113.93z M60.23,93.4c-0.93,0-1.88,0.24-2.73,0.75
			l-13.96,8.31c-2.54,1.51-3.38,4.81-1.86,7.35l0,0c0.73,1.23,1.9,2.1,3.29,2.45c1.39,0.35,2.83,0.14,4.06-0.59l13.96-8.31
			c1.23-0.73,2.1-1.9,2.45-3.29c0.35-1.39,0.14-2.83-0.59-4.06C63.84,94.34,62.06,93.4,60.23,93.4z"/>
	</g>
	<g>
		<g>
			<path class="st2" d="M49.41,112.32c-2.9,1.73-6.65,0.77-8.37-2.12l0,0c-1.73-2.9-0.77-6.65,2.12-8.37l6.73-4.01
				c2.52-0.24,5.07,0.95,6.45,3.27h0c1.38,2.32,1.21,5.13-0.2,7.23L49.41,112.32z"/>
		</g>
		<g>
			<path class="st4" d="M46.3,113.93c-0.57,0-1.14-0.07-1.7-0.21c-1.78-0.45-3.27-1.57-4.21-3.14c-1.93-3.25-0.86-7.47,2.38-9.4
				l6.73-4.01c0.1-0.06,0.2-0.09,0.31-0.1c2.88-0.27,5.69,1.16,7.17,3.63c1.47,2.48,1.39,5.63-0.22,8.03
				c-0.06,0.09-0.14,0.17-0.24,0.23l-6.73,4.01C48.72,113.61,47.52,113.93,46.3,113.93z M50.12,98.55l-6.58,3.92
				c-2.54,1.51-3.38,4.81-1.86,7.35c0.73,1.23,1.9,2.1,3.29,2.45c1.39,0.35,2.83,0.14,4.06-0.59l6.58-3.92
				c1.2-1.91,1.24-4.36,0.09-6.29C54.54,99.54,52.38,98.42,50.12,98.55z M49.41,112.32L49.41,112.32L49.41,112.32z"/>
		</g>
	</g>
</g>
</svg>
