<?xml version="1.0" encoding="utf-8"?>
<!-- Generator: Adobe Illustrator 24.1.1, SVG Export Plug-In . SVG Version: 6.00 Build 0)  -->
<svg version="1.1" id="Capa_1" xmlns="http://www.w3.org/2000/svg" xmlns:xlink="http://www.w3.org/1999/xlink" x="0px" y="0px"
	 viewBox="0 0 231.93 251.35" style="enable-background:new 0 0 231.93 251.35;" xml:space="preserve">
<style type="text/css">
	.st0{fill:#62BB46;stroke:#FFFFFF;stroke-width:1.5;stroke-linecap:round;stroke-linejoin:round;stroke-miterlimit:10;}
	.st1{fill:#62BB46;}
	.st2{fill:none;stroke:#FFFFFF;stroke-width:1.5;stroke-linecap:round;stroke-linejoin:round;stroke-miterlimit:10;}
	.st3{fill:#F45B6A;}
	.st4{fill:#FFFFFF;}
</style>
<g>
	<g>
		<g>
			<path class="st0" d="M224.58,125.76c-4.02-6.39-9.75-11.61-16.5-14.99c-8.22-4.12-17.18-5.44-25.8-4.05
				c-2.29,0.37-4.34-1.44-4.34-3.75V89.33H31.2v136.34v4.13c0,11.49,32.85,20.8,73.37,20.8c1.27,0,2.53-0.01,3.78-0.03
				c0.33-0.01,0.66-0.02,0.99-0.02c0.92-0.02,1.83-0.03,2.74-0.06c0.15,0,0.29-0.01,0.43-0.02c1.09-0.03,2.17-0.07,3.24-0.12
				c0.04,0,0.08,0,0.12-0.01c16.62-0.73,31.39-3.04,42.35-6.38c0.17-0.05,0.34-0.1,0.5-0.15c0,0,0,0,0,0
				c0.06-0.02,0.12-0.03,0.17-0.05c0,0,0,0,0,0c0.12-0.04,0.24-0.08,0.37-0.12c2.22-0.7,4.28-1.45,6.14-2.23c0,0,0,0,0,0
				c0.32-0.14,0.63-0.28,0.94-0.42c1.83-0.81,3.46-1.65,4.89-2.53c0.26-0.16,0.53-0.32,0.77-0.48c0,0,0,0,0,0
				c0.22-0.15,0.43-0.3,0.64-0.45c0.2-0.14,0.41-0.29,0.6-0.43c0,0,0,0,0,0c0.11-0.09,0.23-0.17,0.34-0.26c0,0,0,0,0,0
				c0.06-0.05,0.11-0.1,0.18-0.15c0.93-0.75,1.71-1.52,2.33-2.3c0.06-0.08,0.14-0.16,0.2-0.24v0c0.08-0.1,0.15-0.2,0.22-0.3
				c0.2-0.29,0.4-0.59,0.56-0.88c0,0,0,0,0,0c0,0,0,0,0,0c0,0,0,0,0,0c0.05-0.09,0.08-0.18,0.12-0.27c0.15-0.31,0.29-0.63,0.39-0.95
				c0,0,0,0,0,0c0.06-0.18,0.1-0.36,0.14-0.54c0.11-0.47,0.19-0.94,0.19-1.41v-4.13v-14.81c0-6.25,3.57-11.95,9.2-14.68l19.35-9.37
				c10.43-5.05,18.72-13.89,22.44-24.87C233.02,149.86,231.52,136.78,224.58,125.76z M213.97,157.97
				c-2.5,6.54-7.61,11.76-13.91,14.81l-22.12,10.71v-51.45c0-5.51,4.3-10.13,9.81-10.39c5.22-0.25,10.52,1.06,15.33,3.97
				c2.71,1.64,5.12,3.79,7.04,6.32C215.95,139.61,217.29,149.27,213.97,157.97z"/>
			<ellipse class="st0" cx="104.57" cy="89.33" rx="73.37" ry="20.8"/>
			<ellipse class="st0" cx="104.57" cy="89.68" rx="63.63" ry="15.61"/>
			<ellipse class="st0" cx="104.57" cy="94.37" rx="60.7" ry="10.91"/>
			<g>
				<g>
					<g>
						<path class="st1" d="M92.71,77.98c-1.12,7.93-4.83,13.9-8.8,17.76c3.57-5.58,4.92-13.57,3.5-20.66
							c-0.49-2.45-1.28-4.77-2.08-7.06c-1.94-5.57-3.97-11.15-5.04-17.13c-1.07-5.98-1.11-12.49,0.83-18.06
							c2.08-5.94,6.14-10.14,10.05-14.09c-3.3,5.37-6.22,13.58-5.99,21.13c0.07,2.4,0.45,4.8,1.12,7
							C89.44,57.24,94.61,64.52,92.71,77.98z"/>
						<path class="st2" d="M92.71,77.98c-1.12,7.93-4.83,13.9-8.8,17.76c3.57-5.58,4.92-13.57,3.5-20.66
							c-0.49-2.45-1.28-4.77-2.08-7.06c-1.94-5.57-3.97-11.15-5.04-17.13c-1.07-5.98-1.11-12.49,0.83-18.06
							c2.08-5.94,6.14-10.14,10.05-14.09c-3.3,5.37-6.22,13.58-5.99,21.13c0.07,2.4,0.45,4.8,1.12,7
							C89.44,57.24,94.61,64.52,92.71,77.98z"/>
					</g>
					<g>
						<path class="st1" d="M128.41,81.35c-0.75,5.29-3.23,9.28-5.88,11.86c2.38-3.73,3.28-9.06,2.33-13.8
							c-0.33-1.63-0.86-3.18-1.39-4.72c-1.3-3.72-2.65-7.44-3.37-11.43c-0.71-3.99-0.74-8.34,0.56-12.06
							c1.39-3.97,4.1-6.77,6.71-9.41c-2.2,3.59-4.15,9.07-4,14.11c0.05,1.6,0.3,3.2,0.75,4.67
							C126.23,67.5,129.68,72.36,128.41,81.35z"/>
						<path class="st2" d="M128.41,81.35c-0.75,5.29-3.23,9.28-5.88,11.86c2.38-3.73,3.28-9.06,2.33-13.8
							c-0.33-1.63-0.86-3.18-1.39-4.72c-1.3-3.72-2.65-7.44-3.37-11.43c-0.71-3.99-0.74-8.34,0.56-12.06
							c1.39-3.97,4.1-6.77,6.71-9.41c-2.2,3.59-4.15,9.07-4,14.11c0.05,1.6,0.3,3.2,0.75,4.67
							C126.23,67.5,129.68,72.36,128.41,81.35z"/>
					</g>
					<g>
						<path class="st1" d="M112.22,60c-1.12,7.93-4.83,13.9-8.8,17.76c3.57-5.58,4.92-13.57,3.5-20.66
							c-0.49-2.45-1.28-4.77-2.08-7.06c-1.94-5.57-3.97-11.15-5.04-17.13c-1.07-5.98-1.11-12.49,0.83-18.06
							c2.08-5.94,6.14-10.14,10.05-14.09c-3.3,5.37-6.22,13.58-5.99,21.13c0.07,2.4,0.45,4.8,1.12,7
							C108.95,39.25,114.12,46.54,112.22,60z"/>
						<path class="st2" d="M112.22,60c-1.12,7.93-4.83,13.9-8.8,17.76c3.57-5.58,4.92-13.57,3.5-20.66
							c-0.49-2.45-1.28-4.77-2.08-7.06c-1.94-5.57-3.97-11.15-5.04-17.13c-1.07-5.98-1.11-12.49,0.83-18.06
							c2.08-5.94,6.14-10.14,10.05-14.09c-3.3,5.37-6.22,13.58-5.99,21.13c0.07,2.4,0.45,4.8,1.12,7
							C108.95,39.25,114.12,46.54,112.22,60z"/>
					</g>
				</g>
			</g>
		</g>
	</g>
	<g>
		<g>
			<path class="st3" d="M31.2,198.07c-16.79,0-30.45-13.66-30.45-30.45s13.66-30.45,30.45-30.45s30.45,13.66,30.45,30.45
				S47.99,198.07,31.2,198.07z"/>
			<g>
				<path class="st4" d="M31.2,137.93c16.38,0,29.7,13.32,29.7,29.7s-13.32,29.7-29.7,29.7S1.5,184,1.5,167.62
					S14.82,137.93,31.2,137.93 M31.2,136.43c-17.23,0-31.2,13.97-31.2,31.2s13.97,31.2,31.2,31.2s31.2-13.97,31.2-31.2
					S48.43,136.43,31.2,136.43L31.2,136.43z"/>
			</g>
		</g>
		<g>
			<g>
				<path class="st4" d="M33.43,172.49h-4.46l-1.22-20.65h6.9L33.43,172.49z M27.97,176.96h6.45v6.45h-6.45V176.96z"/>
			</g>
		</g>
	</g>
</g>
</svg>
