<?xml version="1.0" encoding="utf-8"?>
<!-- Generator: Adobe Illustrator 24.1.1, SVG Export Plug-In . SVG Version: 6.00 Build 0)  -->
<svg version="1.1" id="Capa_1" xmlns="http://www.w3.org/2000/svg" xmlns:xlink="http://www.w3.org/1999/xlink" x="0px" y="0px"
	 viewBox="0 0 153.11 67.7" style="enable-background:new 0 0 153.11 67.7;" xml:space="preserve">
<style type="text/css">
	.st0{fill:#FFFFFF;}
	.st1{fill:#EE73A9;}
	.st2{opacity:0.06;}
	.st3{clip-path:url(#SVGID_2_);}
</style>
<g>
	<g>
		<circle class="st0" cx="1.82" cy="1.82" r="1.82"/>
		<circle class="st0" cx="23.17" cy="1.82" r="1.82"/>
		<circle class="st0" cx="44.53" cy="1.82" r="1.82"/>
		<circle class="st0" cx="65.88" cy="1.82" r="1.82"/>
		<circle class="st0" cx="87.23" cy="1.82" r="1.82"/>
		<circle class="st0" cx="108.59" cy="1.82" r="1.82"/>
		<circle class="st0" cx="129.94" cy="1.82" r="1.82"/>
		<circle class="st0" cx="151.3" cy="1.82" r="1.82"/>
	</g>
	<g>
		<circle class="st0" cx="1.82" cy="23.17" r="1.82"/>
		<circle class="st0" cx="23.17" cy="23.17" r="1.82"/>
		<circle class="st0" cx="44.53" cy="23.17" r="1.82"/>
		<circle class="st0" cx="65.88" cy="23.17" r="1.82"/>
		<circle class="st0" cx="87.23" cy="23.17" r="1.82"/>
		<circle class="st0" cx="108.59" cy="23.17" r="1.82"/>
		<circle class="st0" cx="129.94" cy="23.17" r="1.82"/>
		<circle class="st0" cx="151.3" cy="23.17" r="1.82"/>
	</g>
	<g>
		<circle class="st0" cx="1.82" cy="44.53" r="1.82"/>
		<circle class="st0" cx="23.17" cy="44.53" r="1.82"/>
		<circle class="st0" cx="44.53" cy="44.53" r="1.82"/>
		<circle class="st0" cx="65.88" cy="44.53" r="1.82"/>
		<circle class="st0" cx="87.23" cy="44.53" r="1.82"/>
		<circle class="st0" cx="108.59" cy="44.53" r="1.82"/>
		<circle class="st0" cx="129.94" cy="44.53" r="1.82"/>
		<circle class="st0" cx="151.3" cy="44.53" r="1.82"/>
	</g>
	<g>
		<circle class="st0" cx="1.82" cy="65.88" r="1.82"/>
		<circle class="st0" cx="23.17" cy="65.88" r="1.82"/>
		<circle class="st0" cx="44.53" cy="65.88" r="1.82"/>
		<circle class="st0" cx="65.88" cy="65.88" r="1.82"/>
		<circle class="st0" cx="87.23" cy="65.88" r="1.82"/>
		<circle class="st0" cx="108.59" cy="65.88" r="1.82"/>
		<circle class="st0" cx="129.94" cy="65.88" r="1.82"/>
		<circle class="st0" cx="151.3" cy="65.88" r="1.82"/>
	</g>
</g>
</svg>
