<?xml version="1.0" encoding="utf-8"?>
<!-- Generator: Adobe Illustrator 24.1.1, SVG Export Plug-In . SVG Version: 6.00 Build 0)  -->
<svg version="1.1" id="Capa_1" xmlns="http://www.w3.org/2000/svg" xmlns:xlink="http://www.w3.org/1999/xlink" x="0px" y="0px"
	 viewBox="0 0 506.27 768" style="enable-background:new 0 0 506.27 768;" xml:space="preserve">
<style type="text/css">
	.st0{fill:#FFFFFF;}
	.st1{fill:#EE73A9;}
	.st2{opacity:0.06;}
	.st3{clip-path:url(#SVGID_2_);}
</style>
<g class="st2">
	<defs>
		<rect id="SVGID_1_" class="st2" width="506.27" height="768"/>
	</defs>
	<clipPath id="SVGID_2_">
		<use xlink:href="#SVGID_1_"  style="overflow:visible;"/>
	</clipPath>
	<g class="st3">
		<g>
			<g>
				<path class="st0" d="M19.95,25.75c0.07,0.03,0.14,0.05,0.21,0.08c-1.46-3.13-3.49-6.07-6.07-8.65C7.66,10.75-0.92,7.79-9.33,8.3
					c-7.18,0.43-14.24,3.39-19.73,8.88c-1.24,1.24-2.35,2.57-3.34,3.95c-0.02-0.12-0.04-0.24-0.06-0.36
					c-7.6,10.73-7.44,25.27,0.47,35.84c0.87,1.16,1.83,2.27,2.88,3.33c4.88,4.88,11.01,7.76,17.37,8.64c1.29-0.91,2.54-1.91,3.73-3
					c-1.26,1.17-2.58,2.23-3.94,3.2c9.15,1.27,18.75-1.61,25.78-8.64c2.99-2.99,5.22-6.43,6.71-10.12
					C23.69,42.23,23.49,33.41,19.95,25.75z M1.05,52.84c-8.32-0.93-16.4-4.57-22.78-10.95c-1.06-1.06-2.04-2.16-2.95-3.31
					c1.1-1.48,2.33-2.91,3.67-4.26C-14.68,28-6.7,24.37,1.54,23.4C5.29,32.85,5.13,43.49,1.05,52.84z"/>
				<path class="st0" d="M94.13,25.75c0.07,0.03,0.14,0.05,0.21,0.08c-1.46-3.13-3.49-6.07-6.07-8.65
					c-6.43-6.43-15.01-9.38-23.42-8.88c-7.18,0.43-14.24,3.39-19.73,8.88c-1.24,1.24-2.35,2.57-3.34,3.95
					c-0.02-0.12-0.04-0.24-0.06-0.36c-7.6,10.73-7.44,25.27,0.47,35.84c0.87,1.16,1.83,2.27,2.88,3.33
					c4.88,4.88,11.01,7.76,17.37,8.64c1.29-0.91,2.54-1.91,3.73-3c-1.26,1.17-2.58,2.23-3.94,3.2c9.15,1.27,18.75-1.61,25.78-8.64
					c2.99-2.99,5.22-6.43,6.71-10.12C97.87,42.23,97.66,33.41,94.13,25.75z M75.23,52.84c-8.32-0.93-16.4-4.57-22.78-10.95
					c-1.06-1.06-2.04-2.16-2.95-3.31c1.1-1.48,2.33-2.91,3.67-4.26c6.32-6.32,14.3-9.96,22.54-10.93
					C79.47,32.85,79.31,43.49,75.23,52.84z"/>
				<path class="st0" d="M168.3,25.75c0.07,0.03,0.14,0.05,0.21,0.08c-1.46-3.13-3.49-6.07-6.07-8.65
					c-6.43-6.43-15.01-9.38-23.42-8.88c-7.18,0.43-14.24,3.39-19.73,8.88c-1.24,1.24-2.35,2.57-3.34,3.95
					c-0.02-0.12-0.04-0.24-0.06-0.36c-7.6,10.73-7.44,25.27,0.47,35.84c0.87,1.16,1.83,2.27,2.88,3.33
					c4.88,4.88,11.01,7.76,17.37,8.64c1.29-0.91,2.54-1.91,3.73-3c-1.26,1.17-2.58,2.23-3.94,3.2c9.15,1.27,18.75-1.61,25.78-8.64
					c2.99-2.99,5.22-6.43,6.71-10.12C172.04,42.23,171.84,33.41,168.3,25.75z M149.4,52.84c-8.32-0.93-16.4-4.57-22.78-10.95
					c-1.06-1.06-2.04-2.16-2.95-3.31c1.1-1.48,2.33-2.91,3.67-4.26c6.32-6.32,14.3-9.96,22.54-10.93
					C153.64,32.85,153.48,43.49,149.4,52.84z"/>
				<path class="st0" d="M242.47,25.75c0.07,0.03,0.14,0.05,0.21,0.08c-1.46-3.13-3.49-6.07-6.07-8.65
					c-6.43-6.43-15.01-9.38-23.42-8.88c-7.18,0.43-14.24,3.39-19.73,8.88c-1.24,1.24-2.35,2.57-3.34,3.95
					c-0.02-0.12-0.04-0.24-0.06-0.36c-7.6,10.73-7.44,25.27,0.47,35.84c0.87,1.16,1.83,2.27,2.88,3.33
					c4.88,4.88,11.01,7.76,17.37,8.64c1.29-0.91,2.54-1.91,3.73-3c-1.26,1.17-2.58,2.23-3.94,3.2c9.15,1.27,18.75-1.61,25.78-8.64
					c2.99-2.99,5.22-6.43,6.71-10.12C246.21,42.23,246.01,33.41,242.47,25.75z M223.57,52.84c-8.32-0.93-16.4-4.57-22.78-10.95
					c-1.06-1.06-2.04-2.16-2.95-3.31c1.1-1.48,2.33-2.91,3.67-4.26c6.32-6.32,14.3-9.96,22.54-10.93
					C227.81,32.85,227.65,43.49,223.57,52.84z"/>
			</g>
			<g>
				<path class="st0" d="M19.95,102.49c0.07,0.03,0.14,0.05,0.21,0.08c-1.46-3.13-3.49-6.07-6.07-8.65
					c-6.43-6.43-15.01-9.38-23.42-8.88c-7.18,0.43-14.24,3.39-19.73,8.88c-1.24,1.24-2.35,2.57-3.34,3.95
					c-0.02-0.12-0.04-0.24-0.06-0.36c-7.6,10.73-7.44,25.27,0.47,35.84c0.87,1.16,1.83,2.27,2.88,3.33
					c4.88,4.88,11.01,7.76,17.37,8.64c1.29-0.91,2.54-1.91,3.73-3c-1.26,1.17-2.58,2.23-3.94,3.2c9.15,1.27,18.75-1.61,25.78-8.64
					c2.99-2.99,5.22-6.43,6.71-10.12C23.69,118.97,23.49,110.15,19.95,102.49z M1.05,129.58c-8.32-0.93-16.4-4.57-22.78-10.95
					c-1.06-1.06-2.04-2.16-2.95-3.31c1.1-1.48,2.33-2.91,3.67-4.26c6.32-6.32,14.3-9.96,22.54-10.93
					C5.29,109.59,5.13,120.24,1.05,129.58z"/>
				<path class="st0" d="M94.13,102.49c0.07,0.03,0.14,0.05,0.21,0.08c-1.46-3.13-3.49-6.07-6.07-8.65
					c-6.43-6.43-15.01-9.38-23.42-8.88c-7.18,0.43-14.24,3.39-19.73,8.88c-1.24,1.24-2.35,2.57-3.34,3.95
					c-0.02-0.12-0.04-0.24-0.06-0.36c-7.6,10.73-7.44,25.27,0.47,35.84c0.87,1.16,1.83,2.27,2.88,3.33
					c4.88,4.88,11.01,7.76,17.37,8.64c1.29-0.91,2.54-1.91,3.73-3c-1.26,1.17-2.58,2.23-3.94,3.2c9.15,1.27,18.75-1.61,25.78-8.64
					c2.99-2.99,5.22-6.43,6.71-10.12C97.87,118.97,97.66,110.15,94.13,102.49z M75.23,129.58c-8.32-0.93-16.4-4.57-22.78-10.95
					c-1.06-1.06-2.04-2.16-2.95-3.31c1.1-1.48,2.33-2.91,3.67-4.26c6.32-6.32,14.3-9.96,22.54-10.93
					C79.47,109.59,79.31,120.24,75.23,129.58z"/>
				<path class="st0" d="M168.3,102.49c0.07,0.03,0.14,0.05,0.21,0.08c-1.46-3.13-3.49-6.07-6.07-8.65
					c-6.43-6.43-15.01-9.38-23.42-8.88c-7.18,0.43-14.24,3.39-19.73,8.88c-1.24,1.24-2.35,2.57-3.34,3.95
					c-0.02-0.12-0.04-0.24-0.06-0.36c-7.6,10.73-7.44,25.27,0.47,35.84c0.87,1.16,1.83,2.27,2.88,3.33
					c4.88,4.88,11.01,7.76,17.37,8.64c1.29-0.91,2.54-1.91,3.73-3c-1.26,1.17-2.58,2.23-3.94,3.2c9.15,1.27,18.75-1.61,25.78-8.64
					c2.99-2.99,5.22-6.43,6.71-10.12C172.04,118.97,171.84,110.15,168.3,102.49z M149.4,129.58c-8.32-0.93-16.4-4.57-22.78-10.95
					c-1.06-1.06-2.04-2.16-2.95-3.31c1.1-1.48,2.33-2.91,3.67-4.26c6.32-6.32,14.3-9.96,22.54-10.93
					C153.64,109.59,153.48,120.24,149.4,129.58z"/>
				<path class="st0" d="M242.47,102.49c0.07,0.03,0.14,0.05,0.21,0.08c-1.46-3.13-3.49-6.07-6.07-8.65
					c-6.43-6.43-15.01-9.38-23.42-8.88c-7.18,0.43-14.24,3.39-19.73,8.88c-1.24,1.24-2.35,2.57-3.34,3.95
					c-0.02-0.12-0.04-0.24-0.06-0.36c-7.6,10.73-7.44,25.27,0.47,35.84c0.87,1.16,1.83,2.27,2.88,3.33
					c4.88,4.88,11.01,7.76,17.37,8.64c1.29-0.91,2.54-1.91,3.73-3c-1.26,1.17-2.58,2.23-3.94,3.2c9.15,1.27,18.75-1.61,25.78-8.64
					c2.99-2.99,5.22-6.43,6.71-10.12C246.21,118.97,246.01,110.15,242.47,102.49z M223.57,129.58c-8.32-0.93-16.4-4.57-22.78-10.95
					c-1.06-1.06-2.04-2.16-2.95-3.31c1.1-1.48,2.33-2.91,3.67-4.26c6.32-6.32,14.3-9.96,22.54-10.93
					C227.81,109.59,227.65,120.24,223.57,129.58z"/>
			</g>
			<g>
				<path class="st0" d="M19.95,179.24c0.07,0.03,0.14,0.05,0.21,0.08c-1.46-3.13-3.49-6.07-6.07-8.65
					c-6.43-6.43-15.01-9.38-23.42-8.88c-7.18,0.43-14.24,3.39-19.73,8.88c-1.24,1.24-2.35,2.57-3.34,3.95
					c-0.02-0.12-0.04-0.24-0.06-0.36c-7.6,10.73-7.44,25.27,0.47,35.84c0.87,1.16,1.83,2.27,2.88,3.33
					c4.88,4.88,11.01,7.76,17.37,8.64c1.29-0.91,2.54-1.91,3.73-3c-1.26,1.17-2.58,2.23-3.94,3.2c9.15,1.27,18.75-1.61,25.78-8.64
					c2.99-2.99,5.22-6.43,6.71-10.12C23.69,195.72,23.49,186.89,19.95,179.24z M1.05,206.33c-8.32-0.93-16.4-4.57-22.78-10.95
					c-1.06-1.06-2.04-2.16-2.95-3.31c1.1-1.48,2.33-2.91,3.67-4.26c6.32-6.32,14.3-9.96,22.54-10.93
					C5.29,186.34,5.13,196.98,1.05,206.33z"/>
				<path class="st0" d="M94.13,179.24c0.07,0.03,0.14,0.05,0.21,0.08c-1.46-3.13-3.49-6.07-6.07-8.65
					c-6.43-6.43-15.01-9.38-23.42-8.88c-7.18,0.43-14.24,3.39-19.73,8.88c-1.24,1.24-2.35,2.57-3.34,3.95
					c-0.02-0.12-0.04-0.24-0.06-0.36c-7.6,10.73-7.44,25.27,0.47,35.84c0.87,1.16,1.83,2.27,2.88,3.33
					c4.88,4.88,11.01,7.76,17.37,8.64c1.29-0.91,2.54-1.91,3.73-3c-1.26,1.17-2.58,2.23-3.94,3.2c9.15,1.27,18.75-1.61,25.78-8.64
					c2.99-2.99,5.22-6.43,6.71-10.12C97.87,195.72,97.66,186.89,94.13,179.24z M75.23,206.33c-8.32-0.93-16.4-4.57-22.78-10.95
					c-1.06-1.06-2.04-2.16-2.95-3.31c1.1-1.48,2.33-2.91,3.67-4.26c6.32-6.32,14.3-9.96,22.54-10.93
					C79.47,186.34,79.31,196.98,75.23,206.33z"/>
				<path class="st0" d="M168.3,179.24c0.07,0.03,0.14,0.05,0.21,0.08c-1.46-3.13-3.49-6.07-6.07-8.65
					c-6.43-6.43-15.01-9.38-23.42-8.88c-7.18,0.43-14.24,3.39-19.73,8.88c-1.24,1.24-2.35,2.57-3.34,3.95
					c-0.02-0.12-0.04-0.24-0.06-0.36c-7.6,10.73-7.44,25.27,0.47,35.84c0.87,1.16,1.83,2.27,2.88,3.33
					c4.88,4.88,11.01,7.76,17.37,8.64c1.29-0.91,2.54-1.91,3.73-3c-1.26,1.17-2.58,2.23-3.94,3.2c9.15,1.27,18.75-1.61,25.78-8.64
					c2.99-2.99,5.22-6.43,6.71-10.12C172.04,195.72,171.84,186.89,168.3,179.24z M149.4,206.33c-8.32-0.93-16.4-4.57-22.78-10.95
					c-1.06-1.06-2.04-2.16-2.95-3.31c1.1-1.48,2.33-2.91,3.67-4.26c6.32-6.32,14.3-9.96,22.54-10.93
					C153.64,186.34,153.48,196.98,149.4,206.33z"/>
				<path class="st0" d="M242.47,179.24c0.07,0.03,0.14,0.05,0.21,0.08c-1.46-3.13-3.49-6.07-6.07-8.65
					c-6.43-6.43-15.01-9.38-23.42-8.88c-7.18,0.43-14.24,3.39-19.73,8.88c-1.24,1.24-2.35,2.57-3.34,3.95
					c-0.02-0.12-0.04-0.24-0.06-0.36c-7.6,10.73-7.44,25.27,0.47,35.84c0.87,1.16,1.83,2.27,2.88,3.33
					c4.88,4.88,11.01,7.76,17.37,8.64c1.29-0.91,2.54-1.91,3.73-3c-1.26,1.17-2.58,2.23-3.94,3.2c9.15,1.27,18.75-1.61,25.78-8.64
					c2.99-2.99,5.22-6.43,6.71-10.12C246.21,195.72,246.01,186.89,242.47,179.24z M223.57,206.33c-8.32-0.93-16.4-4.57-22.78-10.95
					c-1.06-1.06-2.04-2.16-2.95-3.31c1.1-1.48,2.33-2.91,3.67-4.26c6.32-6.32,14.3-9.96,22.54-10.93
					C227.81,186.34,227.65,196.98,223.57,206.33z"/>
			</g>
			<g>
				<path class="st0" d="M19.95,255.98c0.07,0.03,0.14,0.05,0.21,0.08c-1.46-3.13-3.49-6.07-6.07-8.65
					c-6.43-6.43-15.01-9.38-23.42-8.88c-7.18,0.43-14.24,3.39-19.73,8.88c-1.24,1.24-2.35,2.57-3.34,3.95
					c-0.02-0.12-0.04-0.24-0.06-0.36c-7.6,10.73-7.44,25.27,0.47,35.84c0.87,1.16,1.83,2.27,2.88,3.33
					c4.88,4.88,11.01,7.76,17.37,8.64c1.29-0.91,2.54-1.91,3.73-3c-1.26,1.17-2.58,2.23-3.94,3.2c9.15,1.27,18.75-1.61,25.78-8.64
					c2.99-2.99,5.22-6.43,6.71-10.12C23.69,272.46,23.49,263.64,19.95,255.98z M1.05,283.07c-8.32-0.93-16.4-4.57-22.78-10.95
					c-1.06-1.06-2.04-2.16-2.95-3.31c1.1-1.48,2.33-2.91,3.67-4.26c6.32-6.32,14.3-9.96,22.54-10.93
					C5.29,263.08,5.13,273.72,1.05,283.07z"/>
				<path class="st0" d="M94.13,255.98c0.07,0.03,0.14,0.05,0.21,0.08c-1.46-3.13-3.49-6.07-6.07-8.65
					c-6.43-6.43-15.01-9.38-23.42-8.88c-7.18,0.43-14.24,3.39-19.73,8.88c-1.24,1.24-2.35,2.57-3.34,3.95
					c-0.02-0.12-0.04-0.24-0.06-0.36c-7.6,10.73-7.44,25.27,0.47,35.84c0.87,1.16,1.83,2.27,2.88,3.33
					c4.88,4.88,11.01,7.76,17.37,8.64c1.29-0.91,2.54-1.91,3.73-3c-1.26,1.17-2.58,2.23-3.94,3.2c9.15,1.27,18.75-1.61,25.78-8.64
					c2.99-2.99,5.22-6.43,6.71-10.12C97.87,272.46,97.66,263.64,94.13,255.98z M75.23,283.07c-8.32-0.93-16.4-4.57-22.78-10.95
					c-1.06-1.06-2.04-2.16-2.95-3.31c1.1-1.48,2.33-2.91,3.67-4.26c6.32-6.32,14.3-9.96,22.54-10.93
					C79.47,263.08,79.31,273.72,75.23,283.07z"/>
				<path class="st0" d="M168.3,255.98c0.07,0.03,0.14,0.05,0.21,0.08c-1.46-3.13-3.49-6.07-6.07-8.65
					c-6.43-6.43-15.01-9.38-23.42-8.88c-7.18,0.43-14.24,3.39-19.73,8.88c-1.24,1.24-2.35,2.57-3.34,3.95
					c-0.02-0.12-0.04-0.24-0.06-0.36c-7.6,10.73-7.44,25.27,0.47,35.84c0.87,1.16,1.83,2.27,2.88,3.33
					c4.88,4.88,11.01,7.76,17.37,8.64c1.29-0.91,2.54-1.91,3.73-3c-1.26,1.17-2.58,2.23-3.94,3.2c9.15,1.27,18.75-1.61,25.78-8.64
					c2.99-2.99,5.22-6.43,6.71-10.12C172.04,272.46,171.84,263.64,168.3,255.98z M149.4,283.07c-8.32-0.93-16.4-4.57-22.78-10.95
					c-1.06-1.06-2.04-2.16-2.95-3.31c1.1-1.48,2.33-2.91,3.67-4.26c6.32-6.32,14.3-9.96,22.54-10.93
					C153.64,263.08,153.48,273.72,149.4,283.07z"/>
				<path class="st0" d="M242.47,255.98c0.07,0.03,0.14,0.05,0.21,0.08c-1.46-3.13-3.49-6.07-6.07-8.65
					c-6.43-6.43-15.01-9.38-23.42-8.88c-7.18,0.43-14.24,3.39-19.73,8.88c-1.24,1.24-2.35,2.57-3.34,3.95
					c-0.02-0.12-0.04-0.24-0.06-0.36c-7.6,10.73-7.44,25.27,0.47,35.84c0.87,1.16,1.83,2.27,2.88,3.33
					c4.88,4.88,11.01,7.76,17.37,8.64c1.29-0.91,2.54-1.91,3.73-3c-1.26,1.17-2.58,2.23-3.94,3.2c9.15,1.27,18.75-1.61,25.78-8.64
					c2.99-2.99,5.22-6.43,6.71-10.12C246.21,272.46,246.01,263.64,242.47,255.98z M223.57,283.07c-8.32-0.93-16.4-4.57-22.78-10.95
					c-1.06-1.06-2.04-2.16-2.95-3.31c1.1-1.48,2.33-2.91,3.67-4.26c6.32-6.32,14.3-9.96,22.54-10.93
					C227.81,263.08,227.65,273.72,223.57,283.07z"/>
			</g>
			<g>
				<path class="st0" d="M19.95,332.72c0.07,0.03,0.14,0.05,0.21,0.08c-1.46-3.13-3.49-6.07-6.07-8.65
					c-6.43-6.43-15.01-9.38-23.42-8.88c-7.18,0.43-14.24,3.39-19.73,8.88c-1.24,1.24-2.35,2.57-3.34,3.95
					c-0.02-0.12-0.04-0.24-0.06-0.36c-7.6,10.73-7.44,25.27,0.47,35.84c0.87,1.16,1.83,2.27,2.88,3.33
					c4.88,4.88,11.01,7.76,17.37,8.64c1.29-0.91,2.54-1.91,3.73-3c-1.26,1.17-2.58,2.23-3.94,3.2c9.15,1.27,18.75-1.61,25.78-8.64
					c2.99-2.99,5.22-6.43,6.71-10.12C23.69,349.2,23.49,340.38,19.95,332.72z M1.05,359.81c-8.32-0.93-16.4-4.57-22.78-10.95
					c-1.06-1.06-2.04-2.16-2.95-3.31c1.1-1.48,2.33-2.91,3.67-4.26c6.32-6.32,14.3-9.96,22.54-10.93
					C5.29,339.82,5.13,350.47,1.05,359.81z"/>
				<path class="st0" d="M94.13,332.72c0.07,0.03,0.14,0.05,0.21,0.08c-1.46-3.13-3.49-6.07-6.07-8.65
					c-6.43-6.43-15.01-9.38-23.42-8.88c-7.18,0.43-14.24,3.39-19.73,8.88c-1.24,1.24-2.35,2.57-3.34,3.95
					c-0.02-0.12-0.04-0.24-0.06-0.36c-7.6,10.73-7.44,25.27,0.47,35.84c0.87,1.16,1.83,2.27,2.88,3.33
					c4.88,4.88,11.01,7.76,17.37,8.64c1.29-0.91,2.54-1.91,3.73-3c-1.26,1.17-2.58,2.23-3.94,3.2c9.15,1.27,18.75-1.61,25.78-8.64
					c2.99-2.99,5.22-6.43,6.71-10.12C97.87,349.2,97.66,340.38,94.13,332.72z M75.23,359.81c-8.32-0.93-16.4-4.57-22.78-10.95
					c-1.06-1.06-2.04-2.16-2.95-3.31c1.1-1.48,2.33-2.91,3.67-4.26c6.32-6.32,14.3-9.96,22.54-10.93
					C79.47,339.82,79.31,350.47,75.23,359.81z"/>
				<path class="st0" d="M168.3,332.72c0.07,0.03,0.14,0.05,0.21,0.08c-1.46-3.13-3.49-6.07-6.07-8.65
					c-6.43-6.43-15.01-9.38-23.42-8.88c-7.18,0.43-14.24,3.39-19.73,8.88c-1.24,1.24-2.35,2.57-3.34,3.95
					c-0.02-0.12-0.04-0.24-0.06-0.36c-7.6,10.73-7.44,25.27,0.47,35.84c0.87,1.16,1.83,2.27,2.88,3.33
					c4.88,4.88,11.01,7.76,17.37,8.64c1.29-0.91,2.54-1.91,3.73-3c-1.26,1.17-2.58,2.23-3.94,3.2c9.15,1.27,18.75-1.61,25.78-8.64
					c2.99-2.99,5.22-6.43,6.71-10.12C172.04,349.2,171.84,340.38,168.3,332.72z M149.4,359.81c-8.32-0.93-16.4-4.57-22.78-10.95
					c-1.06-1.06-2.04-2.16-2.95-3.31c1.1-1.48,2.33-2.91,3.67-4.26c6.32-6.32,14.3-9.96,22.54-10.93
					C153.64,339.82,153.48,350.47,149.4,359.81z"/>
				<path class="st0" d="M242.47,332.72c0.07,0.03,0.14,0.05,0.21,0.08c-1.46-3.13-3.49-6.07-6.07-8.65
					c-6.43-6.43-15.01-9.38-23.42-8.88c-7.18,0.43-14.24,3.39-19.73,8.88c-1.24,1.24-2.35,2.57-3.34,3.95
					c-0.02-0.12-0.04-0.24-0.06-0.36c-7.6,10.73-7.44,25.27,0.47,35.84c0.87,1.16,1.83,2.27,2.88,3.33
					c4.88,4.88,11.01,7.76,17.37,8.64c1.29-0.91,2.54-1.91,3.73-3c-1.26,1.17-2.58,2.23-3.94,3.2c9.15,1.27,18.75-1.61,25.78-8.64
					c2.99-2.99,5.22-6.43,6.71-10.12C246.21,349.2,246.01,340.38,242.47,332.72z M223.57,359.81c-8.32-0.93-16.4-4.57-22.78-10.95
					c-1.06-1.06-2.04-2.16-2.95-3.31c1.1-1.48,2.33-2.91,3.67-4.26c6.32-6.32,14.3-9.96,22.54-10.93
					C227.81,339.82,227.65,350.47,223.57,359.81z"/>
			</g>
			<g>
				<path class="st0" d="M318.98,25.75c0.07,0.03,0.14,0.05,0.21,0.08c-1.46-3.13-3.49-6.07-6.07-8.65
					c-6.43-6.43-15.01-9.38-23.42-8.88c-7.18,0.43-14.24,3.39-19.73,8.88c-1.24,1.24-2.35,2.57-3.34,3.95
					c-0.02-0.12-0.04-0.24-0.06-0.36c-7.6,10.73-7.44,25.27,0.47,35.84c0.87,1.16,1.83,2.27,2.88,3.33
					c4.88,4.88,11.01,7.76,17.37,8.64c1.29-0.91,2.54-1.91,3.73-3c-1.26,1.17-2.58,2.23-3.94,3.2c9.15,1.27,18.75-1.61,25.78-8.64
					c2.99-2.99,5.22-6.43,6.71-10.12C322.72,42.23,322.52,33.41,318.98,25.75z M300.08,52.84c-8.32-0.93-16.4-4.57-22.78-10.95
					c-1.06-1.06-2.04-2.16-2.95-3.31c1.1-1.48,2.33-2.91,3.67-4.26c6.32-6.32,14.3-9.96,22.54-10.93
					C304.32,32.85,304.16,43.49,300.08,52.84z"/>
				<path class="st0" d="M393.15,25.75c0.07,0.03,0.14,0.05,0.21,0.08c-1.46-3.13-3.49-6.07-6.07-8.65
					c-6.43-6.43-15.01-9.38-23.42-8.88c-7.18,0.43-14.24,3.39-19.73,8.88c-1.24,1.24-2.35,2.57-3.34,3.95
					c-0.02-0.12-0.04-0.24-0.06-0.36c-7.6,10.73-7.44,25.27,0.47,35.84c0.87,1.16,1.83,2.27,2.88,3.33
					c4.88,4.88,11.01,7.76,17.37,8.64c1.29-0.91,2.54-1.91,3.73-3c-1.26,1.17-2.58,2.23-3.94,3.2c9.15,1.27,18.75-1.61,25.78-8.64
					c2.99-2.99,5.22-6.43,6.71-10.12C396.89,42.23,396.69,33.41,393.15,25.75z M374.25,52.84c-8.32-0.93-16.4-4.57-22.78-10.95
					c-1.06-1.06-2.04-2.16-2.95-3.31c1.1-1.48,2.33-2.91,3.67-4.26c6.32-6.32,14.3-9.96,22.54-10.93
					C378.49,32.85,378.33,43.49,374.25,52.84z"/>
				<path class="st0" d="M467.33,25.75c0.07,0.03,0.14,0.05,0.21,0.08c-1.46-3.13-3.49-6.07-6.07-8.65
					c-6.43-6.43-15.01-9.38-23.42-8.88c-7.18,0.43-14.24,3.39-19.73,8.88c-1.24,1.24-2.35,2.57-3.34,3.95
					c-0.02-0.12-0.04-0.24-0.06-0.36c-7.6,10.73-7.44,25.27,0.47,35.84c0.87,1.16,1.83,2.27,2.88,3.33
					c4.88,4.88,11.01,7.76,17.37,8.64c1.29-0.91,2.54-1.91,3.73-3c-1.26,1.17-2.58,2.23-3.94,3.2c9.15,1.27,18.75-1.61,25.78-8.64
					c2.99-2.99,5.22-6.43,6.71-10.12C471.06,42.23,470.86,33.41,467.33,25.75z M448.42,52.84c-8.32-0.93-16.4-4.57-22.78-10.95
					c-1.06-1.06-2.04-2.16-2.95-3.31c1.1-1.48,2.33-2.91,3.67-4.26c6.32-6.32,14.3-9.96,22.54-10.93
					C452.66,32.85,452.51,43.49,448.42,52.84z"/>
				<path class="st0" d="M541.5,25.75c0.07,0.03,0.14,0.05,0.21,0.08c-1.46-3.13-3.49-6.07-6.07-8.65
					c-6.43-6.43-15.01-9.38-23.42-8.88c-7.18,0.43-14.24,3.39-19.73,8.88c-1.24,1.24-2.35,2.57-3.34,3.95
					c-0.02-0.12-0.04-0.24-0.06-0.36c-7.6,10.73-7.44,25.27,0.47,35.84c0.87,1.16,1.83,2.27,2.88,3.33
					c4.88,4.88,11.01,7.76,17.37,8.64c1.29-0.91,2.54-1.91,3.73-3c-1.26,1.17-2.58,2.23-3.94,3.2c9.15,1.27,18.75-1.61,25.78-8.64
					c2.99-2.99,5.22-6.43,6.71-10.12C545.24,42.23,545.04,33.41,541.5,25.75z M522.6,52.84c-8.32-0.93-16.4-4.57-22.78-10.95
					c-1.06-1.06-2.04-2.16-2.95-3.31c1.1-1.48,2.33-2.91,3.67-4.26c6.32-6.32,14.3-9.96,22.54-10.93
					C526.84,32.85,526.68,43.49,522.6,52.84z"/>
			</g>
			<g>
				<path class="st0" d="M318.98,102.49c0.07,0.03,0.14,0.05,0.21,0.08c-1.46-3.13-3.49-6.07-6.07-8.65
					c-6.43-6.43-15.01-9.38-23.42-8.88c-7.18,0.43-14.24,3.39-19.73,8.88c-1.24,1.24-2.35,2.57-3.34,3.95
					c-0.02-0.12-0.04-0.24-0.06-0.36c-7.6,10.73-7.44,25.27,0.47,35.84c0.87,1.16,1.83,2.27,2.88,3.33
					c4.88,4.88,11.01,7.76,17.37,8.64c1.29-0.91,2.54-1.91,3.73-3c-1.26,1.17-2.58,2.23-3.94,3.2c9.15,1.27,18.75-1.61,25.78-8.64
					c2.99-2.99,5.22-6.43,6.71-10.12C322.72,118.97,322.52,110.15,318.98,102.49z M300.08,129.58c-8.32-0.93-16.4-4.57-22.78-10.95
					c-1.06-1.06-2.04-2.16-2.95-3.31c1.1-1.48,2.33-2.91,3.67-4.26c6.32-6.32,14.3-9.96,22.54-10.93
					C304.32,109.59,304.16,120.24,300.08,129.58z"/>
				<path class="st0" d="M393.15,102.49c0.07,0.03,0.14,0.05,0.21,0.08c-1.46-3.13-3.49-6.07-6.07-8.65
					c-6.43-6.43-15.01-9.38-23.42-8.88c-7.18,0.43-14.24,3.39-19.73,8.88c-1.24,1.24-2.35,2.57-3.34,3.95
					c-0.02-0.12-0.04-0.24-0.06-0.36c-7.6,10.73-7.44,25.27,0.47,35.84c0.87,1.16,1.83,2.27,2.88,3.33
					c4.88,4.88,11.01,7.76,17.37,8.64c1.29-0.91,2.54-1.91,3.73-3c-1.26,1.17-2.58,2.23-3.94,3.2c9.15,1.27,18.75-1.61,25.78-8.64
					c2.99-2.99,5.22-6.43,6.71-10.12C396.89,118.97,396.69,110.15,393.15,102.49z M374.25,129.58c-8.32-0.93-16.4-4.57-22.78-10.95
					c-1.06-1.06-2.04-2.16-2.95-3.31c1.1-1.48,2.33-2.91,3.67-4.26c6.32-6.32,14.3-9.96,22.54-10.93
					C378.49,109.59,378.33,120.24,374.25,129.58z"/>
				<path class="st0" d="M467.33,102.49c0.07,0.03,0.14,0.05,0.21,0.08c-1.46-3.13-3.49-6.07-6.07-8.65
					c-6.43-6.43-15.01-9.38-23.42-8.88c-7.18,0.43-14.24,3.39-19.73,8.88c-1.24,1.24-2.35,2.57-3.34,3.95
					c-0.02-0.12-0.04-0.24-0.06-0.36c-7.6,10.73-7.44,25.27,0.47,35.84c0.87,1.16,1.83,2.27,2.88,3.33
					c4.88,4.88,11.01,7.76,17.37,8.64c1.29-0.91,2.54-1.91,3.73-3c-1.26,1.17-2.58,2.23-3.94,3.2c9.15,1.27,18.75-1.61,25.78-8.64
					c2.99-2.99,5.22-6.43,6.71-10.12C471.06,118.97,470.86,110.15,467.33,102.49z M448.42,129.58c-8.32-0.93-16.4-4.57-22.78-10.95
					c-1.06-1.06-2.04-2.16-2.95-3.31c1.1-1.48,2.33-2.91,3.67-4.26c6.32-6.32,14.3-9.96,22.54-10.93
					C452.66,109.59,452.51,120.24,448.42,129.58z"/>
				<path class="st0" d="M541.5,102.49c0.07,0.03,0.14,0.05,0.21,0.08c-1.46-3.13-3.49-6.07-6.07-8.65
					c-6.43-6.43-15.01-9.38-23.42-8.88c-7.18,0.43-14.24,3.39-19.73,8.88c-1.24,1.24-2.35,2.57-3.34,3.95
					c-0.02-0.12-0.04-0.24-0.06-0.36c-7.6,10.73-7.44,25.27,0.47,35.84c0.87,1.16,1.83,2.27,2.88,3.33
					c4.88,4.88,11.01,7.76,17.37,8.64c1.29-0.91,2.54-1.91,3.73-3c-1.26,1.17-2.58,2.23-3.94,3.2c9.15,1.27,18.75-1.61,25.78-8.64
					c2.99-2.99,5.22-6.43,6.71-10.12C545.24,118.97,545.04,110.15,541.5,102.49z M522.6,129.58c-8.32-0.93-16.4-4.57-22.78-10.95
					c-1.06-1.06-2.04-2.16-2.95-3.31c1.1-1.48,2.33-2.91,3.67-4.26c6.32-6.32,14.3-9.96,22.54-10.93
					C526.84,109.59,526.68,120.24,522.6,129.58z"/>
			</g>
			<g>
				<path class="st0" d="M318.98,179.24c0.07,0.03,0.14,0.05,0.21,0.08c-1.46-3.13-3.49-6.07-6.07-8.65
					c-6.43-6.43-15.01-9.38-23.42-8.88c-7.18,0.43-14.24,3.39-19.73,8.88c-1.24,1.24-2.35,2.57-3.34,3.95
					c-0.02-0.12-0.04-0.24-0.06-0.36c-7.6,10.73-7.44,25.27,0.47,35.84c0.87,1.16,1.83,2.27,2.88,3.33
					c4.88,4.88,11.01,7.76,17.37,8.64c1.29-0.91,2.54-1.91,3.73-3c-1.26,1.17-2.58,2.23-3.94,3.2c9.15,1.27,18.75-1.61,25.78-8.64
					c2.99-2.99,5.22-6.43,6.71-10.12C322.72,195.72,322.52,186.89,318.98,179.24z M300.08,206.33c-8.32-0.93-16.4-4.57-22.78-10.95
					c-1.06-1.06-2.04-2.16-2.95-3.31c1.1-1.48,2.33-2.91,3.67-4.26c6.32-6.32,14.3-9.96,22.54-10.93
					C304.32,186.34,304.16,196.98,300.08,206.33z"/>
				<path class="st0" d="M393.15,179.24c0.07,0.03,0.14,0.05,0.21,0.08c-1.46-3.13-3.49-6.07-6.07-8.65
					c-6.43-6.43-15.01-9.38-23.42-8.88c-7.18,0.43-14.24,3.39-19.73,8.88c-1.24,1.24-2.35,2.57-3.34,3.95
					c-0.02-0.12-0.04-0.24-0.06-0.36c-7.6,10.73-7.44,25.27,0.47,35.84c0.87,1.16,1.83,2.27,2.88,3.33
					c4.88,4.88,11.01,7.76,17.37,8.64c1.29-0.91,2.54-1.91,3.73-3c-1.26,1.17-2.58,2.23-3.94,3.2c9.15,1.27,18.75-1.61,25.78-8.64
					c2.99-2.99,5.22-6.43,6.71-10.12C396.89,195.72,396.69,186.89,393.15,179.24z M374.25,206.33c-8.32-0.93-16.4-4.57-22.78-10.95
					c-1.06-1.06-2.04-2.16-2.95-3.31c1.1-1.48,2.33-2.91,3.67-4.26c6.32-6.32,14.3-9.96,22.54-10.93
					C378.49,186.34,378.33,196.98,374.25,206.33z"/>
				<path class="st0" d="M467.33,179.24c0.07,0.03,0.14,0.05,0.21,0.08c-1.46-3.13-3.49-6.07-6.07-8.65
					c-6.43-6.43-15.01-9.38-23.42-8.88c-7.18,0.43-14.24,3.39-19.73,8.88c-1.24,1.24-2.35,2.57-3.34,3.95
					c-0.02-0.12-0.04-0.24-0.06-0.36c-7.6,10.73-7.44,25.27,0.47,35.84c0.87,1.16,1.83,2.27,2.88,3.33
					c4.88,4.88,11.01,7.76,17.37,8.64c1.29-0.91,2.54-1.91,3.73-3c-1.26,1.17-2.58,2.23-3.94,3.2c9.15,1.27,18.75-1.61,25.78-8.64
					c2.99-2.99,5.22-6.43,6.71-10.12C471.06,195.72,470.86,186.89,467.33,179.24z M448.42,206.33c-8.32-0.93-16.4-4.57-22.78-10.95
					c-1.06-1.06-2.04-2.16-2.95-3.31c1.1-1.48,2.33-2.91,3.67-4.26c6.32-6.32,14.3-9.96,22.54-10.93
					C452.66,186.34,452.51,196.98,448.42,206.33z"/>
				<path class="st0" d="M541.5,179.24c0.07,0.03,0.14,0.05,0.21,0.08c-1.46-3.13-3.49-6.07-6.07-8.65
					c-6.43-6.43-15.01-9.38-23.42-8.88c-7.18,0.43-14.24,3.39-19.73,8.88c-1.24,1.24-2.35,2.57-3.34,3.95
					c-0.02-0.12-0.04-0.24-0.06-0.36c-7.6,10.73-7.44,25.27,0.47,35.84c0.87,1.16,1.83,2.27,2.88,3.33
					c4.88,4.88,11.01,7.76,17.37,8.64c1.29-0.91,2.54-1.91,3.73-3c-1.26,1.17-2.58,2.23-3.94,3.2c9.15,1.27,18.75-1.61,25.78-8.64
					c2.99-2.99,5.22-6.43,6.71-10.12C545.24,195.72,545.04,186.89,541.5,179.24z M522.6,206.33c-8.32-0.93-16.4-4.57-22.78-10.95
					c-1.06-1.06-2.04-2.16-2.95-3.31c1.1-1.48,2.33-2.91,3.67-4.26c6.32-6.32,14.3-9.96,22.54-10.93
					C526.84,186.34,526.68,196.98,522.6,206.33z"/>
			</g>
			<g>
				<path class="st0" d="M318.98,255.98c0.07,0.03,0.14,0.05,0.21,0.08c-1.46-3.13-3.49-6.07-6.07-8.65
					c-6.43-6.43-15.01-9.38-23.42-8.88c-7.18,0.43-14.24,3.39-19.73,8.88c-1.24,1.24-2.35,2.57-3.34,3.95
					c-0.02-0.12-0.04-0.24-0.06-0.36c-7.6,10.73-7.44,25.27,0.47,35.84c0.87,1.16,1.83,2.27,2.88,3.33
					c4.88,4.88,11.01,7.76,17.37,8.64c1.29-0.91,2.54-1.91,3.73-3c-1.26,1.17-2.58,2.23-3.94,3.2c9.15,1.27,18.75-1.61,25.78-8.64
					c2.99-2.99,5.22-6.43,6.71-10.12C322.72,272.46,322.52,263.64,318.98,255.98z M300.08,283.07c-8.32-0.93-16.4-4.57-22.78-10.95
					c-1.06-1.06-2.04-2.16-2.95-3.31c1.1-1.48,2.33-2.91,3.67-4.26c6.32-6.32,14.3-9.96,22.54-10.93
					C304.32,263.08,304.16,273.72,300.08,283.07z"/>
				<path class="st0" d="M393.15,255.98c0.07,0.03,0.14,0.05,0.21,0.08c-1.46-3.13-3.49-6.07-6.07-8.65
					c-6.43-6.43-15.01-9.38-23.42-8.88c-7.18,0.43-14.24,3.39-19.73,8.88c-1.24,1.24-2.35,2.57-3.34,3.95
					c-0.02-0.12-0.04-0.24-0.06-0.36c-7.6,10.73-7.44,25.27,0.47,35.84c0.87,1.16,1.83,2.27,2.88,3.33
					c4.88,4.88,11.01,7.76,17.37,8.64c1.29-0.91,2.54-1.91,3.73-3c-1.26,1.17-2.58,2.23-3.94,3.2c9.15,1.27,18.75-1.61,25.78-8.64
					c2.99-2.99,5.22-6.43,6.71-10.12C396.89,272.46,396.69,263.64,393.15,255.98z M374.25,283.07c-8.32-0.93-16.4-4.57-22.78-10.95
					c-1.06-1.06-2.04-2.16-2.95-3.31c1.1-1.48,2.33-2.91,3.67-4.26c6.32-6.32,14.3-9.96,22.54-10.93
					C378.49,263.08,378.33,273.72,374.25,283.07z"/>
				<path class="st0" d="M467.33,255.98c0.07,0.03,0.14,0.05,0.21,0.08c-1.46-3.13-3.49-6.07-6.07-8.65
					c-6.43-6.43-15.01-9.38-23.42-8.88c-7.18,0.43-14.24,3.39-19.73,8.88c-1.24,1.24-2.35,2.57-3.34,3.95
					c-0.02-0.12-0.04-0.24-0.06-0.36c-7.6,10.73-7.44,25.27,0.47,35.84c0.87,1.16,1.83,2.27,2.88,3.33
					c4.88,4.88,11.01,7.76,17.37,8.64c1.29-0.91,2.54-1.91,3.73-3c-1.26,1.17-2.58,2.23-3.94,3.2c9.15,1.27,18.75-1.61,25.78-8.64
					c2.99-2.99,5.22-6.43,6.71-10.12C471.06,272.46,470.86,263.64,467.33,255.98z M448.42,283.07c-8.32-0.93-16.4-4.57-22.78-10.95
					c-1.06-1.06-2.04-2.16-2.95-3.31c1.1-1.48,2.33-2.91,3.67-4.26c6.32-6.32,14.3-9.96,22.54-10.93
					C452.66,263.08,452.51,273.72,448.42,283.07z"/>
				<path class="st0" d="M541.5,255.98c0.07,0.03,0.14,0.05,0.21,0.08c-1.46-3.13-3.49-6.07-6.07-8.65
					c-6.43-6.43-15.01-9.38-23.42-8.88c-7.18,0.43-14.24,3.39-19.73,8.88c-1.24,1.24-2.35,2.57-3.34,3.95
					c-0.02-0.12-0.04-0.24-0.06-0.36c-7.6,10.73-7.44,25.27,0.47,35.84c0.87,1.16,1.83,2.27,2.88,3.33
					c4.88,4.88,11.01,7.76,17.37,8.64c1.29-0.91,2.54-1.91,3.73-3c-1.26,1.17-2.58,2.23-3.94,3.2c9.15,1.27,18.75-1.61,25.78-8.64
					c2.99-2.99,5.22-6.43,6.71-10.12C545.24,272.46,545.04,263.64,541.5,255.98z M522.6,283.07c-8.32-0.93-16.4-4.57-22.78-10.95
					c-1.06-1.06-2.04-2.16-2.95-3.31c1.1-1.48,2.33-2.91,3.67-4.26c6.32-6.32,14.3-9.96,22.54-10.93
					C526.84,263.08,526.68,273.72,522.6,283.07z"/>
			</g>
			<g>
				<path class="st0" d="M318.98,332.72c0.07,0.03,0.14,0.05,0.21,0.08c-1.46-3.13-3.49-6.07-6.07-8.65
					c-6.43-6.43-15.01-9.38-23.42-8.88c-7.18,0.43-14.24,3.39-19.73,8.88c-1.24,1.24-2.35,2.57-3.34,3.95
					c-0.02-0.12-0.04-0.24-0.06-0.36c-7.6,10.73-7.44,25.27,0.47,35.84c0.87,1.16,1.83,2.27,2.88,3.33
					c4.88,4.88,11.01,7.76,17.37,8.64c1.29-0.91,2.54-1.91,3.73-3c-1.26,1.17-2.58,2.23-3.94,3.2c9.15,1.27,18.75-1.61,25.78-8.64
					c2.99-2.99,5.22-6.43,6.71-10.12C322.72,349.2,322.52,340.38,318.98,332.72z M300.08,359.81c-8.32-0.93-16.4-4.57-22.78-10.95
					c-1.06-1.06-2.04-2.16-2.95-3.31c1.1-1.48,2.33-2.91,3.67-4.26c6.32-6.32,14.3-9.96,22.54-10.93
					C304.32,339.82,304.16,350.47,300.08,359.81z"/>
				<path class="st0" d="M393.15,332.72c0.07,0.03,0.14,0.05,0.21,0.08c-1.46-3.13-3.49-6.07-6.07-8.65
					c-6.43-6.43-15.01-9.38-23.42-8.88c-7.18,0.43-14.24,3.39-19.73,8.88c-1.24,1.24-2.35,2.57-3.34,3.95
					c-0.02-0.12-0.04-0.24-0.06-0.36c-7.6,10.73-7.44,25.27,0.47,35.84c0.87,1.16,1.83,2.27,2.88,3.33
					c4.88,4.88,11.01,7.76,17.37,8.64c1.29-0.91,2.54-1.91,3.73-3c-1.26,1.17-2.58,2.23-3.94,3.2c9.15,1.27,18.75-1.61,25.78-8.64
					c2.99-2.99,5.22-6.43,6.71-10.12C396.89,349.2,396.69,340.38,393.15,332.72z M374.25,359.81c-8.32-0.93-16.4-4.57-22.78-10.95
					c-1.06-1.06-2.04-2.16-2.95-3.31c1.1-1.48,2.33-2.91,3.67-4.26c6.32-6.32,14.3-9.96,22.54-10.93
					C378.49,339.82,378.33,350.47,374.25,359.81z"/>
				<path class="st0" d="M467.33,332.72c0.07,0.03,0.14,0.05,0.21,0.08c-1.46-3.13-3.49-6.07-6.07-8.65
					c-6.43-6.43-15.01-9.38-23.42-8.88c-7.18,0.43-14.24,3.39-19.73,8.88c-1.24,1.24-2.35,2.57-3.34,3.95
					c-0.02-0.12-0.04-0.24-0.06-0.36c-7.6,10.73-7.44,25.27,0.47,35.84c0.87,1.16,1.83,2.27,2.88,3.33
					c4.88,4.88,11.01,7.76,17.37,8.64c1.29-0.91,2.54-1.91,3.73-3c-1.26,1.17-2.58,2.23-3.94,3.2c9.15,1.27,18.75-1.61,25.78-8.64
					c2.99-2.99,5.22-6.43,6.71-10.12C471.06,349.2,470.86,340.38,467.33,332.72z M448.42,359.81c-8.32-0.93-16.4-4.57-22.78-10.95
					c-1.06-1.06-2.04-2.16-2.95-3.31c1.1-1.48,2.33-2.91,3.67-4.26c6.32-6.32,14.3-9.96,22.54-10.93
					C452.66,339.82,452.51,350.47,448.42,359.81z"/>
				<path class="st0" d="M541.5,332.72c0.07,0.03,0.14,0.05,0.21,0.08c-1.46-3.13-3.49-6.07-6.07-8.65
					c-6.43-6.43-15.01-9.38-23.42-8.88c-7.18,0.43-14.24,3.39-19.73,8.88c-1.24,1.24-2.35,2.57-3.34,3.95
					c-0.02-0.12-0.04-0.24-0.06-0.36c-7.6,10.73-7.44,25.27,0.47,35.84c0.87,1.16,1.83,2.27,2.88,3.33
					c4.88,4.88,11.01,7.76,17.37,8.64c1.29-0.91,2.54-1.91,3.73-3c-1.26,1.17-2.58,2.23-3.94,3.2c9.15,1.27,18.75-1.61,25.78-8.64
					c2.99-2.99,5.22-6.43,6.71-10.12C545.24,349.2,545.04,340.38,541.5,332.72z M522.6,359.81c-8.32-0.93-16.4-4.57-22.78-10.95
					c-1.06-1.06-2.04-2.16-2.95-3.31c1.1-1.48,2.33-2.91,3.67-4.26c6.32-6.32,14.3-9.96,22.54-10.93
					C526.84,339.82,526.68,350.47,522.6,359.81z"/>
			</g>
			<g>
				<path class="st0" d="M19.95,409.47c0.07,0.03,0.14,0.05,0.21,0.08c-1.46-3.13-3.49-6.07-6.07-8.65
					c-6.43-6.43-15.01-9.38-23.42-8.88c-7.18,0.43-14.24,3.39-19.73,8.88c-1.24,1.24-2.35,2.57-3.34,3.95
					c-0.02-0.12-0.04-0.24-0.06-0.36c-7.6,10.73-7.44,25.27,0.47,35.84c0.87,1.16,1.83,2.27,2.88,3.33
					c4.88,4.88,11.01,7.76,17.37,8.64c1.29-0.91,2.54-1.91,3.73-3c-1.26,1.17-2.58,2.23-3.94,3.2c9.15,1.27,18.75-1.61,25.78-8.64
					c2.99-2.99,5.22-6.43,6.71-10.12C23.69,425.95,23.49,417.12,19.95,409.47z M1.05,436.56c-8.32-0.93-16.4-4.57-22.78-10.95
					c-1.06-1.06-2.04-2.16-2.95-3.31c1.1-1.48,2.33-2.91,3.67-4.26c6.32-6.32,14.3-9.96,22.54-10.93
					C5.29,416.57,5.13,427.21,1.05,436.56z"/>
				<path class="st0" d="M94.13,409.47c0.07,0.03,0.14,0.05,0.21,0.08c-1.46-3.13-3.49-6.07-6.07-8.65
					c-6.43-6.43-15.01-9.38-23.42-8.88c-7.18,0.43-14.24,3.39-19.73,8.88c-1.24,1.24-2.35,2.57-3.34,3.95
					c-0.02-0.12-0.04-0.24-0.06-0.36c-7.6,10.73-7.44,25.27,0.47,35.84c0.87,1.16,1.83,2.27,2.88,3.33
					c4.88,4.88,11.01,7.76,17.37,8.64c1.29-0.91,2.54-1.91,3.73-3c-1.26,1.17-2.58,2.23-3.94,3.2c9.15,1.27,18.75-1.61,25.78-8.64
					c2.99-2.99,5.22-6.43,6.71-10.12C97.87,425.95,97.66,417.12,94.13,409.47z M75.23,436.56c-8.32-0.93-16.4-4.57-22.78-10.95
					c-1.06-1.06-2.04-2.16-2.95-3.31c1.1-1.48,2.33-2.91,3.67-4.26c6.32-6.32,14.3-9.96,22.54-10.93
					C79.47,416.57,79.31,427.21,75.23,436.56z"/>
				<path class="st0" d="M168.3,409.47c0.07,0.03,0.14,0.05,0.21,0.08c-1.46-3.13-3.49-6.07-6.07-8.65
					c-6.43-6.43-15.01-9.38-23.42-8.88c-7.18,0.43-14.24,3.39-19.73,8.88c-1.24,1.24-2.35,2.57-3.34,3.95
					c-0.02-0.12-0.04-0.24-0.06-0.36c-7.6,10.73-7.44,25.27,0.47,35.84c0.87,1.16,1.83,2.27,2.88,3.33
					c4.88,4.88,11.01,7.76,17.37,8.64c1.29-0.91,2.54-1.91,3.73-3c-1.26,1.17-2.58,2.23-3.94,3.2c9.15,1.27,18.75-1.61,25.78-8.64
					c2.99-2.99,5.22-6.43,6.71-10.12C172.04,425.95,171.84,417.12,168.3,409.47z M149.4,436.56c-8.32-0.93-16.4-4.57-22.78-10.95
					c-1.06-1.06-2.04-2.16-2.95-3.31c1.1-1.48,2.33-2.91,3.67-4.26c6.32-6.32,14.3-9.96,22.54-10.93
					C153.64,416.57,153.48,427.21,149.4,436.56z"/>
				<path class="st0" d="M242.47,409.47c0.07,0.03,0.14,0.05,0.21,0.08c-1.46-3.13-3.49-6.07-6.07-8.65
					c-6.43-6.43-15.01-9.38-23.42-8.88c-7.18,0.43-14.24,3.39-19.73,8.88c-1.24,1.24-2.35,2.57-3.34,3.95
					c-0.02-0.12-0.04-0.24-0.06-0.36c-7.6,10.73-7.44,25.27,0.47,35.84c0.87,1.16,1.83,2.27,2.88,3.33
					c4.88,4.88,11.01,7.76,17.37,8.64c1.29-0.91,2.54-1.91,3.73-3c-1.26,1.17-2.58,2.23-3.94,3.2c9.15,1.27,18.75-1.61,25.78-8.64
					c2.99-2.99,5.22-6.43,6.71-10.12C246.21,425.95,246.01,417.12,242.47,409.47z M223.57,436.56c-8.32-0.93-16.4-4.57-22.78-10.95
					c-1.06-1.06-2.04-2.16-2.95-3.31c1.1-1.48,2.33-2.91,3.67-4.26c6.32-6.32,14.3-9.96,22.54-10.93
					C227.81,416.57,227.65,427.21,223.57,436.56z"/>
			</g>
			<g>
				<path class="st0" d="M19.95,486.21c0.07,0.03,0.14,0.05,0.21,0.08c-1.46-3.13-3.49-6.07-6.07-8.65
					c-6.43-6.43-15.01-9.38-23.42-8.88c-7.18,0.43-14.24,3.39-19.73,8.88c-1.24,1.24-2.35,2.57-3.34,3.95
					c-0.02-0.12-0.04-0.24-0.06-0.36c-7.6,10.73-7.44,25.27,0.47,35.84c0.87,1.16,1.83,2.27,2.88,3.33
					c4.88,4.88,11.01,7.76,17.37,8.64c1.29-0.91,2.54-1.91,3.73-3c-1.26,1.17-2.58,2.23-3.94,3.2c9.15,1.27,18.75-1.61,25.78-8.64
					c2.99-2.99,5.22-6.43,6.71-10.12C23.69,502.69,23.49,493.87,19.95,486.21z M1.05,513.3c-8.32-0.93-16.4-4.57-22.78-10.95
					c-1.06-1.06-2.04-2.16-2.95-3.31c1.1-1.48,2.33-2.91,3.67-4.26c6.32-6.32,14.3-9.96,22.54-10.93
					C5.29,493.31,5.13,503.95,1.05,513.3z"/>
				<path class="st0" d="M94.13,486.21c0.07,0.03,0.14,0.05,0.21,0.08c-1.46-3.13-3.49-6.07-6.07-8.65
					c-6.43-6.43-15.01-9.38-23.42-8.88c-7.18,0.43-14.24,3.39-19.73,8.88c-1.24,1.24-2.35,2.57-3.34,3.95
					c-0.02-0.12-0.04-0.24-0.06-0.36c-7.6,10.73-7.44,25.27,0.47,35.84c0.87,1.16,1.83,2.27,2.88,3.33
					c4.88,4.88,11.01,7.76,17.37,8.64c1.29-0.91,2.54-1.91,3.73-3c-1.26,1.17-2.58,2.23-3.94,3.2c9.15,1.27,18.75-1.61,25.78-8.64
					c2.99-2.99,5.22-6.43,6.71-10.12C97.87,502.69,97.66,493.87,94.13,486.21z M75.23,513.3c-8.32-0.93-16.4-4.57-22.78-10.95
					c-1.06-1.06-2.04-2.16-2.95-3.31c1.1-1.48,2.33-2.91,3.67-4.26c6.32-6.32,14.3-9.96,22.54-10.93
					C79.47,493.31,79.31,503.95,75.23,513.3z"/>
				<path class="st0" d="M168.3,486.21c0.07,0.03,0.14,0.05,0.21,0.08c-1.46-3.13-3.49-6.07-6.07-8.65
					c-6.43-6.43-15.01-9.38-23.42-8.88c-7.18,0.43-14.24,3.39-19.73,8.88c-1.24,1.24-2.35,2.57-3.34,3.95
					c-0.02-0.12-0.04-0.24-0.06-0.36c-7.6,10.73-7.44,25.27,0.47,35.84c0.87,1.16,1.83,2.27,2.88,3.33
					c4.88,4.88,11.01,7.76,17.37,8.64c1.29-0.91,2.54-1.91,3.73-3c-1.26,1.17-2.58,2.23-3.94,3.2c9.15,1.27,18.75-1.61,25.78-8.64
					c2.99-2.99,5.22-6.43,6.71-10.12C172.04,502.69,171.84,493.87,168.3,486.21z M149.4,513.3c-8.32-0.93-16.4-4.57-22.78-10.95
					c-1.06-1.06-2.04-2.16-2.95-3.31c1.1-1.48,2.33-2.91,3.67-4.26c6.32-6.32,14.3-9.96,22.54-10.93
					C153.64,493.31,153.48,503.95,149.4,513.3z"/>
				<path class="st0" d="M242.47,486.21c0.07,0.03,0.14,0.05,0.21,0.08c-1.46-3.13-3.49-6.07-6.07-8.65
					c-6.43-6.43-15.01-9.38-23.42-8.88c-7.18,0.43-14.24,3.39-19.73,8.88c-1.24,1.24-2.35,2.57-3.34,3.95
					c-0.02-0.12-0.04-0.24-0.06-0.36c-7.6,10.73-7.44,25.27,0.47,35.84c0.87,1.16,1.83,2.27,2.88,3.33
					c4.88,4.88,11.01,7.76,17.37,8.64c1.29-0.91,2.54-1.91,3.73-3c-1.26,1.17-2.58,2.23-3.94,3.2c9.15,1.27,18.75-1.61,25.78-8.64
					c2.99-2.99,5.22-6.43,6.71-10.12C246.21,502.69,246.01,493.87,242.47,486.21z M223.57,513.3c-8.32-0.93-16.4-4.57-22.78-10.95
					c-1.06-1.06-2.04-2.16-2.95-3.31c1.1-1.48,2.33-2.91,3.67-4.26c6.32-6.32,14.3-9.96,22.54-10.93
					C227.81,493.31,227.65,503.95,223.57,513.3z"/>
			</g>
			<g>
				<path class="st0" d="M19.95,562.95c0.07,0.03,0.14,0.05,0.21,0.08c-1.46-3.13-3.49-6.07-6.07-8.65
					c-6.43-6.43-15.01-9.38-23.42-8.88c-7.18,0.43-14.24,3.39-19.73,8.88c-1.24,1.24-2.35,2.57-3.34,3.95
					c-0.02-0.12-0.04-0.24-0.06-0.36c-7.6,10.73-7.44,25.27,0.47,35.84c0.87,1.16,1.83,2.27,2.88,3.33
					c4.88,4.88,11.01,7.76,17.37,8.64c1.29-0.91,2.54-1.91,3.73-3c-1.26,1.17-2.58,2.23-3.94,3.2c9.15,1.27,18.75-1.61,25.78-8.64
					c2.99-2.99,5.22-6.43,6.71-10.12C23.69,579.43,23.49,570.61,19.95,562.95z M1.05,590.04c-8.32-0.93-16.4-4.57-22.78-10.95
					c-1.06-1.06-2.04-2.16-2.95-3.31c1.1-1.48,2.33-2.91,3.67-4.26c6.32-6.32,14.3-9.96,22.54-10.93
					C5.29,570.05,5.13,580.69,1.05,590.04z"/>
				<path class="st0" d="M94.13,562.95c0.07,0.03,0.14,0.05,0.21,0.08c-1.46-3.13-3.49-6.07-6.07-8.65
					c-6.43-6.43-15.01-9.38-23.42-8.88c-7.18,0.43-14.24,3.39-19.73,8.88c-1.24,1.24-2.35,2.57-3.34,3.95
					c-0.02-0.12-0.04-0.24-0.06-0.36c-7.6,10.73-7.44,25.27,0.47,35.84c0.87,1.16,1.83,2.27,2.88,3.33
					c4.88,4.88,11.01,7.76,17.37,8.64c1.29-0.91,2.54-1.91,3.73-3c-1.26,1.17-2.58,2.23-3.94,3.2c9.15,1.27,18.75-1.61,25.78-8.64
					c2.99-2.99,5.22-6.43,6.71-10.12C97.87,579.43,97.66,570.61,94.13,562.95z M75.23,590.04c-8.32-0.93-16.4-4.57-22.78-10.95
					c-1.06-1.06-2.04-2.16-2.95-3.31c1.1-1.48,2.33-2.91,3.67-4.26c6.32-6.32,14.3-9.96,22.54-10.93
					C79.47,570.05,79.31,580.69,75.23,590.04z"/>
				<path class="st0" d="M168.3,562.95c0.07,0.03,0.14,0.05,0.21,0.08c-1.46-3.13-3.49-6.07-6.07-8.65
					c-6.43-6.43-15.01-9.38-23.42-8.88c-7.18,0.43-14.24,3.39-19.73,8.88c-1.24,1.24-2.35,2.57-3.34,3.95
					c-0.02-0.12-0.04-0.24-0.06-0.36c-7.6,10.73-7.44,25.27,0.47,35.84c0.87,1.16,1.83,2.27,2.88,3.33
					c4.88,4.88,11.01,7.76,17.37,8.64c1.29-0.91,2.54-1.91,3.73-3c-1.26,1.17-2.58,2.23-3.94,3.2c9.15,1.27,18.75-1.61,25.78-8.64
					c2.99-2.99,5.22-6.43,6.71-10.12C172.04,579.43,171.84,570.61,168.3,562.95z M149.4,590.04c-8.32-0.93-16.4-4.57-22.78-10.95
					c-1.06-1.06-2.04-2.16-2.95-3.31c1.1-1.48,2.33-2.91,3.67-4.26c6.32-6.32,14.3-9.96,22.54-10.93
					C153.64,570.05,153.48,580.69,149.4,590.04z"/>
				<path class="st0" d="M242.47,562.95c0.07,0.03,0.14,0.05,0.21,0.08c-1.46-3.13-3.49-6.07-6.07-8.65
					c-6.43-6.43-15.01-9.38-23.42-8.88c-7.18,0.43-14.24,3.39-19.73,8.88c-1.24,1.24-2.35,2.57-3.34,3.95
					c-0.02-0.12-0.04-0.24-0.06-0.36c-7.6,10.73-7.44,25.27,0.47,35.84c0.87,1.16,1.83,2.27,2.88,3.33
					c4.88,4.88,11.01,7.76,17.37,8.64c1.29-0.91,2.54-1.91,3.73-3c-1.26,1.17-2.58,2.23-3.94,3.2c9.15,1.27,18.75-1.61,25.78-8.64
					c2.99-2.99,5.22-6.43,6.71-10.12C246.21,579.43,246.01,570.61,242.47,562.95z M223.57,590.04c-8.32-0.93-16.4-4.57-22.78-10.95
					c-1.06-1.06-2.04-2.16-2.95-3.31c1.1-1.48,2.33-2.91,3.67-4.26c6.32-6.32,14.3-9.96,22.54-10.93
					C227.81,570.05,227.65,580.69,223.57,590.04z"/>
			</g>
			<g>
				<path class="st0" d="M19.95,639.7c0.07,0.03,0.14,0.05,0.21,0.08c-1.46-3.13-3.49-6.07-6.07-8.65
					c-6.43-6.43-15.01-9.38-23.42-8.88c-7.18,0.43-14.24,3.39-19.73,8.88c-1.24,1.24-2.35,2.57-3.34,3.95
					c-0.02-0.12-0.04-0.24-0.06-0.36c-7.6,10.73-7.44,25.27,0.47,35.84c0.87,1.16,1.83,2.27,2.88,3.33
					c4.88,4.88,11.01,7.76,17.37,8.64c1.29-0.91,2.54-1.91,3.73-3c-1.26,1.17-2.58,2.23-3.94,3.2c9.15,1.27,18.75-1.61,25.78-8.64
					c2.99-2.99,5.22-6.43,6.71-10.12C23.69,656.18,23.49,647.35,19.95,639.7z M1.05,666.78c-8.32-0.93-16.4-4.57-22.78-10.95
					c-1.06-1.06-2.04-2.16-2.95-3.31c1.1-1.48,2.33-2.91,3.67-4.26c6.32-6.32,14.3-9.96,22.54-10.93
					C5.29,646.8,5.13,657.44,1.05,666.78z"/>
				<path class="st0" d="M94.13,639.7c0.07,0.03,0.14,0.05,0.21,0.08c-1.46-3.13-3.49-6.07-6.07-8.65
					c-6.43-6.43-15.01-9.38-23.42-8.88c-7.18,0.43-14.24,3.39-19.73,8.88c-1.24,1.24-2.35,2.57-3.34,3.95
					c-0.02-0.12-0.04-0.24-0.06-0.36c-7.6,10.73-7.44,25.27,0.47,35.84c0.87,1.16,1.83,2.27,2.88,3.33
					c4.88,4.88,11.01,7.76,17.37,8.64c1.29-0.91,2.54-1.91,3.73-3c-1.26,1.17-2.58,2.23-3.94,3.2c9.15,1.27,18.75-1.61,25.78-8.64
					c2.99-2.99,5.22-6.43,6.71-10.12C97.87,656.18,97.66,647.35,94.13,639.7z M75.23,666.78c-8.32-0.93-16.4-4.57-22.78-10.95
					c-1.06-1.06-2.04-2.16-2.95-3.31c1.1-1.48,2.33-2.91,3.67-4.26c6.32-6.32,14.3-9.96,22.54-10.93
					C79.47,646.8,79.31,657.44,75.23,666.78z"/>
				<path class="st0" d="M168.3,639.7c0.07,0.03,0.14,0.05,0.21,0.08c-1.46-3.13-3.49-6.07-6.07-8.65
					c-6.43-6.43-15.01-9.38-23.42-8.88c-7.18,0.43-14.24,3.39-19.73,8.88c-1.24,1.24-2.35,2.57-3.34,3.95
					c-0.02-0.12-0.04-0.24-0.06-0.36c-7.6,10.73-7.44,25.27,0.47,35.84c0.87,1.16,1.83,2.27,2.88,3.33
					c4.88,4.88,11.01,7.76,17.37,8.64c1.29-0.91,2.54-1.91,3.73-3c-1.26,1.17-2.58,2.23-3.94,3.2c9.15,1.27,18.75-1.61,25.78-8.64
					c2.99-2.99,5.22-6.43,6.71-10.12C172.04,656.18,171.84,647.35,168.3,639.7z M149.4,666.78c-8.32-0.93-16.4-4.57-22.78-10.95
					c-1.06-1.06-2.04-2.16-2.95-3.31c1.1-1.48,2.33-2.91,3.67-4.26c6.32-6.32,14.3-9.96,22.54-10.93
					C153.64,646.8,153.48,657.44,149.4,666.78z"/>
				<path class="st0" d="M242.47,639.7c0.07,0.03,0.14,0.05,0.21,0.08c-1.46-3.13-3.49-6.07-6.07-8.65
					c-6.43-6.43-15.01-9.38-23.42-8.88c-7.18,0.43-14.24,3.39-19.73,8.88c-1.24,1.24-2.35,2.57-3.34,3.95
					c-0.02-0.12-0.04-0.24-0.06-0.36c-7.6,10.73-7.44,25.27,0.47,35.84c0.87,1.16,1.83,2.27,2.88,3.33
					c4.88,4.88,11.01,7.76,17.37,8.64c1.29-0.91,2.54-1.91,3.73-3c-1.26,1.17-2.58,2.23-3.94,3.2c9.15,1.27,18.75-1.61,25.78-8.64
					c2.99-2.99,5.22-6.43,6.71-10.12C246.21,656.18,246.01,647.35,242.47,639.7z M223.57,666.78c-8.32-0.93-16.4-4.57-22.78-10.95
					c-1.06-1.06-2.04-2.16-2.95-3.31c1.1-1.48,2.33-2.91,3.67-4.26c6.32-6.32,14.3-9.96,22.54-10.93
					C227.81,646.8,227.65,657.44,223.57,666.78z"/>
			</g>
			<g>
				<path class="st0" d="M19.95,716.44c0.07,0.03,0.14,0.05,0.21,0.08c-1.46-3.13-3.49-6.07-6.07-8.65
					c-6.43-6.43-15.01-9.38-23.42-8.88c-7.18,0.43-14.24,3.39-19.73,8.88c-1.24,1.24-2.35,2.57-3.34,3.95
					c-0.02-0.12-0.04-0.24-0.06-0.36c-7.6,10.73-7.44,25.27,0.47,35.84c0.87,1.16,1.83,2.27,2.88,3.33
					c4.88,4.88,11.01,7.76,17.37,8.64c1.29-0.91,2.54-1.91,3.73-3c-1.26,1.17-2.58,2.23-3.94,3.2c9.15,1.27,18.75-1.61,25.78-8.64
					c2.99-2.99,5.22-6.43,6.71-10.12C23.69,732.92,23.49,724.1,19.95,716.44z M1.05,743.53c-8.32-0.93-16.4-4.57-22.78-10.95
					c-1.06-1.06-2.04-2.16-2.95-3.31c1.1-1.48,2.33-2.91,3.67-4.26c6.32-6.32,14.3-9.96,22.54-10.93
					C5.29,723.54,5.13,734.18,1.05,743.53z"/>
				<path class="st0" d="M94.13,716.44c0.07,0.03,0.14,0.05,0.21,0.08c-1.46-3.13-3.49-6.07-6.07-8.65
					c-6.43-6.43-15.01-9.38-23.42-8.88c-7.18,0.43-14.24,3.39-19.73,8.88c-1.24,1.24-2.35,2.57-3.34,3.95
					c-0.02-0.12-0.04-0.24-0.06-0.36c-7.6,10.73-7.44,25.27,0.47,35.84c0.87,1.16,1.83,2.27,2.88,3.33
					c4.88,4.88,11.01,7.76,17.37,8.64c1.29-0.91,2.54-1.91,3.73-3c-1.26,1.17-2.58,2.23-3.94,3.2c9.15,1.27,18.75-1.61,25.78-8.64
					c2.99-2.99,5.22-6.43,6.71-10.12C97.87,732.92,97.66,724.1,94.13,716.44z M75.23,743.53c-8.32-0.93-16.4-4.57-22.78-10.95
					c-1.06-1.06-2.04-2.16-2.95-3.31c1.1-1.48,2.33-2.91,3.67-4.26c6.32-6.32,14.3-9.96,22.54-10.93
					C79.47,723.54,79.31,734.18,75.23,743.53z"/>
				<path class="st0" d="M168.3,716.44c0.07,0.03,0.14,0.05,0.21,0.08c-1.46-3.13-3.49-6.07-6.07-8.65
					c-6.43-6.43-15.01-9.38-23.42-8.88c-7.18,0.43-14.24,3.39-19.73,8.88c-1.24,1.24-2.35,2.57-3.34,3.95
					c-0.02-0.12-0.04-0.24-0.06-0.36c-7.6,10.73-7.44,25.27,0.47,35.84c0.87,1.16,1.83,2.27,2.88,3.33
					c4.88,4.88,11.01,7.76,17.37,8.64c1.29-0.91,2.54-1.91,3.73-3c-1.26,1.17-2.58,2.23-3.94,3.2c9.15,1.27,18.75-1.61,25.78-8.64
					c2.99-2.99,5.22-6.43,6.71-10.12C172.04,732.92,171.84,724.1,168.3,716.44z M149.4,743.53c-8.32-0.93-16.4-4.57-22.78-10.95
					c-1.06-1.06-2.04-2.16-2.95-3.31c1.1-1.48,2.33-2.91,3.67-4.26c6.32-6.32,14.3-9.96,22.54-10.93
					C153.64,723.54,153.48,734.18,149.4,743.53z"/>
				<path class="st0" d="M242.47,716.44c0.07,0.03,0.14,0.05,0.21,0.08c-1.46-3.13-3.49-6.07-6.07-8.65
					c-6.43-6.43-15.01-9.38-23.42-8.88c-7.18,0.43-14.24,3.39-19.73,8.88c-1.24,1.24-2.35,2.57-3.34,3.95
					c-0.02-0.12-0.04-0.24-0.06-0.36c-7.6,10.73-7.44,25.27,0.47,35.84c0.87,1.16,1.83,2.27,2.88,3.33
					c4.88,4.88,11.01,7.76,17.37,8.64c1.29-0.91,2.54-1.91,3.73-3c-1.26,1.17-2.58,2.23-3.94,3.2c9.15,1.27,18.75-1.61,25.78-8.64
					c2.99-2.99,5.22-6.43,6.71-10.12C246.21,732.92,246.01,724.1,242.47,716.44z M223.57,743.53c-8.32-0.93-16.4-4.57-22.78-10.95
					c-1.06-1.06-2.04-2.16-2.95-3.31c1.1-1.48,2.33-2.91,3.67-4.26c6.32-6.32,14.3-9.96,22.54-10.93
					C227.81,723.54,227.65,734.18,223.57,743.53z"/>
			</g>
			<g>
				<path class="st0" d="M318.98,409.47c0.07,0.03,0.14,0.05,0.21,0.08c-1.46-3.13-3.49-6.07-6.07-8.65
					c-6.43-6.43-15.01-9.38-23.42-8.88c-7.18,0.43-14.24,3.39-19.73,8.88c-1.24,1.24-2.35,2.57-3.34,3.95
					c-0.02-0.12-0.04-0.24-0.06-0.36c-7.6,10.73-7.44,25.27,0.47,35.84c0.87,1.16,1.83,2.27,2.88,3.33
					c4.88,4.88,11.01,7.76,17.37,8.64c1.29-0.91,2.54-1.91,3.73-3c-1.26,1.17-2.58,2.23-3.94,3.2c9.15,1.27,18.75-1.61,25.78-8.64
					c2.99-2.99,5.22-6.43,6.71-10.12C322.72,425.95,322.52,417.12,318.98,409.47z M300.08,436.56c-8.32-0.93-16.4-4.57-22.78-10.95
					c-1.06-1.06-2.04-2.16-2.95-3.31c1.1-1.48,2.33-2.91,3.67-4.26c6.32-6.32,14.3-9.96,22.54-10.93
					C304.32,416.57,304.16,427.21,300.08,436.56z"/>
				<path class="st0" d="M393.15,409.47c0.07,0.03,0.14,0.05,0.21,0.08c-1.46-3.13-3.49-6.07-6.07-8.65
					c-6.43-6.43-15.01-9.38-23.42-8.88c-7.18,0.43-14.24,3.39-19.73,8.88c-1.24,1.24-2.35,2.57-3.34,3.95
					c-0.02-0.12-0.04-0.24-0.06-0.36c-7.6,10.73-7.44,25.27,0.47,35.84c0.87,1.16,1.83,2.27,2.88,3.33
					c4.88,4.88,11.01,7.76,17.37,8.64c1.29-0.91,2.54-1.91,3.73-3c-1.26,1.17-2.58,2.23-3.94,3.2c9.15,1.27,18.75-1.61,25.78-8.64
					c2.99-2.99,5.22-6.43,6.71-10.12C396.89,425.95,396.69,417.12,393.15,409.47z M374.25,436.56c-8.32-0.93-16.4-4.57-22.78-10.95
					c-1.06-1.06-2.04-2.16-2.95-3.31c1.1-1.48,2.33-2.91,3.67-4.26c6.32-6.32,14.3-9.96,22.54-10.93
					C378.49,416.57,378.33,427.21,374.25,436.56z"/>
				<path class="st0" d="M467.33,409.47c0.07,0.03,0.14,0.05,0.21,0.08c-1.46-3.13-3.49-6.07-6.07-8.65
					c-6.43-6.43-15.01-9.38-23.42-8.88c-7.18,0.43-14.24,3.39-19.73,8.88c-1.24,1.24-2.35,2.57-3.34,3.95
					c-0.02-0.12-0.04-0.24-0.06-0.36c-7.6,10.73-7.44,25.27,0.47,35.84c0.87,1.16,1.83,2.27,2.88,3.33
					c4.88,4.88,11.01,7.76,17.37,8.64c1.29-0.91,2.54-1.91,3.73-3c-1.26,1.17-2.58,2.23-3.94,3.2c9.15,1.27,18.75-1.61,25.78-8.64
					c2.99-2.99,5.22-6.43,6.71-10.12C471.06,425.95,470.86,417.12,467.33,409.47z M448.42,436.56c-8.32-0.93-16.4-4.57-22.78-10.95
					c-1.06-1.06-2.04-2.16-2.95-3.31c1.1-1.48,2.33-2.91,3.67-4.26c6.32-6.32,14.3-9.96,22.54-10.93
					C452.66,416.57,452.51,427.21,448.42,436.56z"/>
				<path class="st0" d="M541.5,409.47c0.07,0.03,0.14,0.05,0.21,0.08c-1.46-3.13-3.49-6.07-6.07-8.65
					c-6.43-6.43-15.01-9.38-23.42-8.88c-7.18,0.43-14.24,3.39-19.73,8.88c-1.24,1.24-2.35,2.57-3.34,3.95
					c-0.02-0.12-0.04-0.24-0.06-0.36c-7.6,10.73-7.44,25.27,0.47,35.84c0.87,1.16,1.83,2.27,2.88,3.33
					c4.88,4.88,11.01,7.76,17.37,8.64c1.29-0.91,2.54-1.91,3.73-3c-1.26,1.17-2.58,2.23-3.94,3.2c9.15,1.27,18.75-1.61,25.78-8.64
					c2.99-2.99,5.22-6.43,6.71-10.12C545.24,425.95,545.04,417.12,541.5,409.47z M522.6,436.56c-8.32-0.93-16.4-4.57-22.78-10.95
					c-1.06-1.06-2.04-2.16-2.95-3.31c1.1-1.48,2.33-2.91,3.67-4.26c6.32-6.32,14.3-9.96,22.54-10.93
					C526.84,416.57,526.68,427.21,522.6,436.56z"/>
			</g>
			<g>
				<path class="st0" d="M318.98,486.21c0.07,0.03,0.14,0.05,0.21,0.08c-1.46-3.13-3.49-6.07-6.07-8.65
					c-6.43-6.43-15.01-9.38-23.42-8.88c-7.18,0.43-14.24,3.39-19.73,8.88c-1.24,1.24-2.35,2.57-3.34,3.95
					c-0.02-0.12-0.04-0.24-0.06-0.36c-7.6,10.73-7.44,25.27,0.47,35.84c0.87,1.16,1.83,2.27,2.88,3.33
					c4.88,4.88,11.01,7.76,17.37,8.64c1.29-0.91,2.54-1.91,3.73-3c-1.26,1.17-2.58,2.23-3.94,3.2c9.15,1.27,18.75-1.61,25.78-8.64
					c2.99-2.99,5.22-6.43,6.71-10.12C322.72,502.69,322.52,493.87,318.98,486.21z M300.08,513.3c-8.32-0.93-16.4-4.57-22.78-10.95
					c-1.06-1.06-2.04-2.16-2.95-3.31c1.1-1.48,2.33-2.91,3.67-4.26c6.32-6.32,14.3-9.96,22.54-10.93
					C304.32,493.31,304.16,503.95,300.08,513.3z"/>
				<path class="st0" d="M393.15,486.21c0.07,0.03,0.14,0.05,0.21,0.08c-1.46-3.13-3.49-6.07-6.07-8.65
					c-6.43-6.43-15.01-9.38-23.42-8.88c-7.18,0.43-14.24,3.39-19.73,8.88c-1.24,1.24-2.35,2.57-3.34,3.95
					c-0.02-0.12-0.04-0.24-0.06-0.36c-7.6,10.73-7.44,25.27,0.47,35.84c0.87,1.16,1.83,2.27,2.88,3.33
					c4.88,4.88,11.01,7.76,17.37,8.64c1.29-0.91,2.54-1.91,3.73-3c-1.26,1.17-2.58,2.23-3.94,3.2c9.15,1.27,18.75-1.61,25.78-8.64
					c2.99-2.99,5.22-6.43,6.71-10.12C396.89,502.69,396.69,493.87,393.15,486.21z M374.25,513.3c-8.32-0.93-16.4-4.57-22.78-10.95
					c-1.06-1.06-2.04-2.16-2.95-3.31c1.1-1.48,2.33-2.91,3.67-4.26c6.32-6.32,14.3-9.96,22.54-10.93
					C378.49,493.31,378.33,503.95,374.25,513.3z"/>
				<path class="st0" d="M467.33,486.21c0.07,0.03,0.14,0.05,0.21,0.08c-1.46-3.13-3.49-6.07-6.07-8.65
					c-6.43-6.43-15.01-9.38-23.42-8.88c-7.18,0.43-14.24,3.39-19.73,8.88c-1.24,1.24-2.35,2.57-3.34,3.95
					c-0.02-0.12-0.04-0.24-0.06-0.36c-7.6,10.73-7.44,25.27,0.47,35.84c0.87,1.16,1.83,2.27,2.88,3.33
					c4.88,4.88,11.01,7.76,17.37,8.64c1.29-0.91,2.54-1.91,3.73-3c-1.26,1.17-2.58,2.23-3.94,3.2c9.15,1.27,18.75-1.61,25.78-8.64
					c2.99-2.99,5.22-6.43,6.71-10.12C471.06,502.69,470.86,493.87,467.33,486.21z M448.42,513.3c-8.32-0.93-16.4-4.57-22.78-10.95
					c-1.06-1.06-2.04-2.16-2.95-3.31c1.1-1.48,2.33-2.91,3.67-4.26c6.32-6.32,14.3-9.96,22.54-10.93
					C452.66,493.31,452.51,503.95,448.42,513.3z"/>
				<path class="st0" d="M541.5,486.21c0.07,0.03,0.14,0.05,0.21,0.08c-1.46-3.13-3.49-6.07-6.07-8.65
					c-6.43-6.43-15.01-9.38-23.42-8.88c-7.18,0.43-14.24,3.39-19.73,8.88c-1.24,1.24-2.35,2.57-3.34,3.95
					c-0.02-0.12-0.04-0.24-0.06-0.36c-7.6,10.73-7.44,25.27,0.47,35.84c0.87,1.16,1.83,2.27,2.88,3.33
					c4.88,4.88,11.01,7.76,17.37,8.64c1.29-0.91,2.54-1.91,3.73-3c-1.26,1.17-2.58,2.23-3.94,3.2c9.15,1.27,18.75-1.61,25.78-8.64
					c2.99-2.99,5.22-6.43,6.71-10.12C545.24,502.69,545.04,493.87,541.5,486.21z M522.6,513.3c-8.32-0.93-16.4-4.57-22.78-10.95
					c-1.06-1.06-2.04-2.16-2.95-3.31c1.1-1.48,2.33-2.91,3.67-4.26c6.32-6.32,14.3-9.96,22.54-10.93
					C526.84,493.31,526.68,503.95,522.6,513.3z"/>
			</g>
			<g>
				<path class="st0" d="M318.98,562.95c0.07,0.03,0.14,0.05,0.21,0.08c-1.46-3.13-3.49-6.07-6.07-8.65
					c-6.43-6.43-15.01-9.38-23.42-8.88c-7.18,0.43-14.24,3.39-19.73,8.88c-1.24,1.24-2.35,2.57-3.34,3.95
					c-0.02-0.12-0.04-0.24-0.06-0.36c-7.6,10.73-7.44,25.27,0.47,35.84c0.87,1.16,1.83,2.27,2.88,3.33
					c4.88,4.88,11.01,7.76,17.37,8.64c1.29-0.91,2.54-1.91,3.73-3c-1.26,1.17-2.58,2.23-3.94,3.2c9.15,1.27,18.75-1.61,25.78-8.64
					c2.99-2.99,5.22-6.43,6.71-10.12C322.72,579.43,322.52,570.61,318.98,562.95z M300.08,590.04c-8.32-0.93-16.4-4.57-22.78-10.95
					c-1.06-1.06-2.04-2.16-2.95-3.31c1.1-1.48,2.33-2.91,3.67-4.26c6.32-6.32,14.3-9.96,22.54-10.93
					C304.32,570.05,304.16,580.69,300.08,590.04z"/>
				<path class="st0" d="M393.15,562.95c0.07,0.03,0.14,0.05,0.21,0.08c-1.46-3.13-3.49-6.07-6.07-8.65
					c-6.43-6.43-15.01-9.38-23.42-8.88c-7.18,0.43-14.24,3.39-19.73,8.88c-1.24,1.24-2.35,2.57-3.34,3.95
					c-0.02-0.12-0.04-0.24-0.06-0.36c-7.6,10.73-7.44,25.27,0.47,35.84c0.87,1.16,1.83,2.27,2.88,3.33
					c4.88,4.88,11.01,7.76,17.37,8.64c1.29-0.91,2.54-1.91,3.73-3c-1.26,1.17-2.58,2.23-3.94,3.2c9.15,1.27,18.75-1.61,25.78-8.64
					c2.99-2.99,5.22-6.43,6.71-10.12C396.89,579.43,396.69,570.61,393.15,562.95z M374.25,590.04c-8.32-0.93-16.4-4.57-22.78-10.95
					c-1.06-1.06-2.04-2.16-2.95-3.31c1.1-1.48,2.33-2.91,3.67-4.26c6.32-6.32,14.3-9.96,22.54-10.93
					C378.49,570.05,378.33,580.69,374.25,590.04z"/>
				<path class="st0" d="M467.33,562.95c0.07,0.03,0.14,0.05,0.21,0.08c-1.46-3.13-3.49-6.07-6.07-8.65
					c-6.43-6.43-15.01-9.38-23.42-8.88c-7.18,0.43-14.24,3.39-19.73,8.88c-1.24,1.24-2.35,2.57-3.34,3.95
					c-0.02-0.12-0.04-0.24-0.06-0.36c-7.6,10.73-7.44,25.27,0.47,35.84c0.87,1.16,1.83,2.27,2.88,3.33
					c4.88,4.88,11.01,7.76,17.37,8.64c1.29-0.91,2.54-1.91,3.73-3c-1.26,1.17-2.58,2.23-3.94,3.2c9.15,1.27,18.75-1.61,25.78-8.64
					c2.99-2.99,5.22-6.43,6.71-10.12C471.06,579.43,470.86,570.61,467.33,562.95z M448.42,590.04c-8.32-0.93-16.4-4.57-22.78-10.95
					c-1.06-1.06-2.04-2.16-2.95-3.31c1.1-1.48,2.33-2.91,3.67-4.26c6.32-6.32,14.3-9.96,22.54-10.93
					C452.66,570.05,452.51,580.69,448.42,590.04z"/>
				<path class="st0" d="M541.5,562.95c0.07,0.03,0.14,0.05,0.21,0.08c-1.46-3.13-3.49-6.07-6.07-8.65
					c-6.43-6.43-15.01-9.38-23.42-8.88c-7.18,0.43-14.24,3.39-19.73,8.88c-1.24,1.24-2.35,2.57-3.34,3.95
					c-0.02-0.12-0.04-0.24-0.06-0.36c-7.6,10.73-7.44,25.27,0.47,35.84c0.87,1.16,1.83,2.27,2.88,3.33
					c4.88,4.88,11.01,7.76,17.37,8.64c1.29-0.91,2.54-1.91,3.73-3c-1.26,1.17-2.58,2.23-3.94,3.2c9.15,1.27,18.75-1.61,25.78-8.64
					c2.99-2.99,5.22-6.43,6.71-10.12C545.24,579.43,545.04,570.61,541.5,562.95z M522.6,590.04c-8.32-0.93-16.4-4.57-22.78-10.95
					c-1.06-1.06-2.04-2.16-2.95-3.31c1.1-1.48,2.33-2.91,3.67-4.26c6.32-6.32,14.3-9.96,22.54-10.93
					C526.84,570.05,526.68,580.69,522.6,590.04z"/>
			</g>
			<g>
				<path class="st0" d="M318.98,639.7c0.07,0.03,0.14,0.05,0.21,0.08c-1.46-3.13-3.49-6.07-6.07-8.65
					c-6.43-6.43-15.01-9.38-23.42-8.88c-7.18,0.43-14.24,3.39-19.73,8.88c-1.24,1.24-2.35,2.57-3.34,3.95
					c-0.02-0.12-0.04-0.24-0.06-0.36c-7.6,10.73-7.44,25.27,0.47,35.84c0.87,1.16,1.83,2.27,2.88,3.33
					c4.88,4.88,11.01,7.76,17.37,8.64c1.29-0.91,2.54-1.91,3.73-3c-1.26,1.17-2.58,2.23-3.94,3.2c9.15,1.27,18.75-1.61,25.78-8.64
					c2.99-2.99,5.22-6.43,6.71-10.12C322.72,656.18,322.52,647.35,318.98,639.7z M300.08,666.78c-8.32-0.93-16.4-4.57-22.78-10.95
					c-1.06-1.06-2.04-2.16-2.95-3.31c1.1-1.48,2.33-2.91,3.67-4.26c6.32-6.32,14.3-9.96,22.54-10.93
					C304.32,646.8,304.16,657.44,300.08,666.78z"/>
				<path class="st0" d="M393.15,639.7c0.07,0.03,0.14,0.05,0.21,0.08c-1.46-3.13-3.49-6.07-6.07-8.65
					c-6.43-6.43-15.01-9.38-23.42-8.88c-7.18,0.43-14.24,3.39-19.73,8.88c-1.24,1.24-2.35,2.57-3.34,3.95
					c-0.02-0.12-0.04-0.24-0.06-0.36c-7.6,10.73-7.44,25.27,0.47,35.84c0.87,1.16,1.83,2.27,2.88,3.33
					c4.88,4.88,11.01,7.76,17.37,8.64c1.29-0.91,2.54-1.91,3.73-3c-1.26,1.17-2.58,2.23-3.94,3.2c9.15,1.27,18.75-1.61,25.78-8.64
					c2.99-2.99,5.22-6.43,6.71-10.12C396.89,656.18,396.69,647.35,393.15,639.7z M374.25,666.78c-8.32-0.93-16.4-4.57-22.78-10.95
					c-1.06-1.06-2.04-2.16-2.95-3.31c1.1-1.48,2.33-2.91,3.67-4.26c6.32-6.32,14.3-9.96,22.54-10.93
					C378.49,646.8,378.33,657.44,374.25,666.78z"/>
				<path class="st0" d="M467.33,639.7c0.07,0.03,0.14,0.05,0.21,0.08c-1.46-3.13-3.49-6.07-6.07-8.65
					c-6.43-6.43-15.01-9.38-23.42-8.88c-7.18,0.43-14.24,3.39-19.73,8.88c-1.24,1.24-2.35,2.57-3.34,3.95
					c-0.02-0.12-0.04-0.24-0.06-0.36c-7.6,10.73-7.44,25.27,0.47,35.84c0.87,1.16,1.83,2.27,2.88,3.33
					c4.88,4.88,11.01,7.76,17.37,8.64c1.29-0.91,2.54-1.91,3.73-3c-1.26,1.17-2.58,2.23-3.94,3.2c9.15,1.27,18.75-1.61,25.78-8.64
					c2.99-2.99,5.22-6.43,6.71-10.12C471.06,656.18,470.86,647.35,467.33,639.7z M448.42,666.78c-8.32-0.93-16.4-4.57-22.78-10.95
					c-1.06-1.06-2.04-2.16-2.95-3.31c1.1-1.48,2.33-2.91,3.67-4.26c6.32-6.32,14.3-9.96,22.54-10.93
					C452.66,646.8,452.51,657.44,448.42,666.78z"/>
				<path class="st0" d="M541.5,639.7c0.07,0.03,0.14,0.05,0.21,0.08c-1.46-3.13-3.49-6.07-6.07-8.65
					c-6.43-6.43-15.01-9.38-23.42-8.88c-7.18,0.43-14.24,3.39-19.73,8.88c-1.24,1.24-2.35,2.57-3.34,3.95
					c-0.02-0.12-0.04-0.24-0.06-0.36c-7.6,10.73-7.44,25.27,0.47,35.84c0.87,1.16,1.83,2.27,2.88,3.33
					c4.88,4.88,11.01,7.76,17.37,8.64c1.29-0.91,2.54-1.91,3.73-3c-1.26,1.17-2.58,2.23-3.94,3.2c9.15,1.27,18.75-1.61,25.78-8.64
					c2.99-2.99,5.22-6.43,6.71-10.12C545.24,656.18,545.04,647.35,541.5,639.7z M522.6,666.78c-8.32-0.93-16.4-4.57-22.78-10.95
					c-1.06-1.06-2.04-2.16-2.95-3.31c1.1-1.48,2.33-2.91,3.67-4.26c6.32-6.32,14.3-9.96,22.54-10.93
					C526.84,646.8,526.68,657.44,522.6,666.78z"/>
			</g>
			<g>
				<path class="st0" d="M318.98,716.44c0.07,0.03,0.14,0.05,0.21,0.08c-1.46-3.13-3.49-6.07-6.07-8.65
					c-6.43-6.43-15.01-9.38-23.42-8.88c-7.18,0.43-14.24,3.39-19.73,8.88c-1.24,1.24-2.35,2.57-3.34,3.95
					c-0.02-0.12-0.04-0.24-0.06-0.36c-7.6,10.73-7.44,25.27,0.47,35.84c0.87,1.16,1.83,2.27,2.88,3.33
					c4.88,4.88,11.01,7.76,17.37,8.64c1.29-0.91,2.54-1.91,3.73-3c-1.26,1.17-2.58,2.23-3.94,3.2c9.15,1.27,18.75-1.61,25.78-8.64
					c2.99-2.99,5.22-6.43,6.71-10.12C322.72,732.92,322.52,724.1,318.98,716.44z M300.08,743.53c-8.32-0.93-16.4-4.57-22.78-10.95
					c-1.06-1.06-2.04-2.16-2.95-3.31c1.1-1.48,2.33-2.91,3.67-4.26c6.32-6.32,14.3-9.96,22.54-10.93
					C304.32,723.54,304.16,734.18,300.08,743.53z"/>
				<path class="st0" d="M393.15,716.44c0.07,0.03,0.14,0.05,0.21,0.08c-1.46-3.13-3.49-6.07-6.07-8.65
					c-6.43-6.43-15.01-9.38-23.42-8.88c-7.18,0.43-14.24,3.39-19.73,8.88c-1.24,1.24-2.35,2.57-3.34,3.95
					c-0.02-0.12-0.04-0.24-0.06-0.36c-7.6,10.73-7.44,25.27,0.47,35.84c0.87,1.16,1.83,2.27,2.88,3.33
					c4.88,4.88,11.01,7.76,17.37,8.64c1.29-0.91,2.54-1.91,3.73-3c-1.26,1.17-2.58,2.23-3.94,3.2c9.15,1.27,18.75-1.61,25.78-8.64
					c2.99-2.99,5.22-6.43,6.71-10.12C396.89,732.92,396.69,724.1,393.15,716.44z M374.25,743.53c-8.32-0.93-16.4-4.57-22.78-10.95
					c-1.06-1.06-2.04-2.16-2.95-3.31c1.1-1.48,2.33-2.91,3.67-4.26c6.32-6.32,14.3-9.96,22.54-10.93
					C378.49,723.54,378.33,734.18,374.25,743.53z"/>
				<path class="st0" d="M467.33,716.44c0.07,0.03,0.14,0.05,0.21,0.08c-1.46-3.13-3.49-6.07-6.07-8.65
					c-6.43-6.43-15.01-9.38-23.42-8.88c-7.18,0.43-14.24,3.39-19.73,8.88c-1.24,1.24-2.35,2.57-3.34,3.95
					c-0.02-0.12-0.04-0.24-0.06-0.36c-7.6,10.73-7.44,25.27,0.47,35.84c0.87,1.16,1.83,2.27,2.88,3.33
					c4.88,4.88,11.01,7.76,17.37,8.64c1.29-0.91,2.54-1.91,3.73-3c-1.26,1.17-2.58,2.23-3.94,3.2c9.15,1.27,18.75-1.61,25.78-8.64
					c2.99-2.99,5.22-6.43,6.71-10.12C471.06,732.92,470.86,724.1,467.33,716.44z M448.42,743.53c-8.32-0.93-16.4-4.57-22.78-10.95
					c-1.06-1.06-2.04-2.16-2.95-3.31c1.1-1.48,2.33-2.91,3.67-4.26c6.32-6.32,14.3-9.96,22.54-10.93
					C452.66,723.54,452.51,734.18,448.42,743.53z"/>
				<path class="st0" d="M541.5,716.44c0.07,0.03,0.14,0.05,0.21,0.08c-1.46-3.13-3.49-6.07-6.07-8.65
					c-6.43-6.43-15.01-9.38-23.42-8.88c-7.18,0.43-14.24,3.39-19.73,8.88c-1.24,1.24-2.35,2.57-3.34,3.95
					c-0.02-0.12-0.04-0.24-0.06-0.36c-7.6,10.73-7.44,25.27,0.47,35.84c0.87,1.16,1.83,2.27,2.88,3.33
					c4.88,4.88,11.01,7.76,17.37,8.64c1.29-0.91,2.54-1.91,3.73-3c-1.26,1.17-2.58,2.23-3.94,3.2c9.15,1.27,18.75-1.61,25.78-8.64
					c2.99-2.99,5.22-6.43,6.71-10.12C545.24,732.92,545.04,724.1,541.5,716.44z M522.6,743.53c-8.32-0.93-16.4-4.57-22.78-10.95
					c-1.06-1.06-2.04-2.16-2.95-3.31c1.1-1.48,2.33-2.91,3.67-4.26c6.32-6.32,14.3-9.96,22.54-10.93
					C526.84,723.54,526.68,734.18,522.6,743.53z"/>
			</g>
		</g>
	</g>
</g>
</svg>
