<?xml version="1.0" encoding="utf-8"?>
<!-- Generator: Adobe Illustrator 24.1.1, SVG Export Plug-In . SVG Version: 6.00 Build 0)  -->
<svg version="1.1" id="Capa_1" xmlns="http://www.w3.org/2000/svg" xmlns:xlink="http://www.w3.org/1999/xlink" x="0px" y="0px"
	 viewBox="0 0 153.11 67.7" style="enable-background:new 0 0 153.11 67.7;" xml:space="preserve">
<style type="text/css">
	.st0{fill:#FFFFFF;}
	.st1{fill:#EE73A9;}
	.st2{opacity:0.06;}
	.st3{clip-path:url(#SVGID_2_);}
</style>
<g>
	<g>
		<circle class="st0" cx="1.82" cy="1.82" r="1.82"/>
		<circle class="st0" cx="23.17" cy="1.82" r="1.82"/>
		<circle class="st0" cx="44.53" cy="1.82" r="1.82"/>
		<circle class="st0" cx="65.88" cy="1.82" r="1.82"/>
		<circle class="st0" cx="87.23" cy="1.82" r="1.82"/>
		<circle class="st1" cx="108.59" cy="1.82" r="1.82"/>
		<circle class="st1" cx="129.94" cy="1.82" r="1.82"/>
		<circle class="st1" cx="151.3" cy="1.82" r="1.82"/>
	</g>
	<g>
		<circle class="st0" cx="1.82" cy="23.17" r="1.82"/>
		<circle class="st0" cx="23.17" cy="23.17" r="1.82"/>
		<circle class="st0" cx="44.53" cy="23.17" r="1.82"/>
		<circle class="st0" cx="65.88" cy="23.17" r="1.82"/>
		<circle class="st0" cx="87.23" cy="23.17" r="1.82"/>
		<circle class="st1" cx="108.59" cy="23.17" r="1.82"/>
		<circle class="st1" cx="129.94" cy="23.17" r="1.82"/>
		<circle class="st1" cx="151.3" cy="23.17" r="1.82"/>
	</g>
	<g>
		<circle class="st0" cx="1.82" cy="44.53" r="1.82"/>
		<circle class="st0" cx="23.17" cy="44.53" r="1.82"/>
		<circle class="st0" cx="44.53" cy="44.53" r="1.82"/>
		<circle class="st0" cx="65.88" cy="44.53" r="1.82"/>
		<circle class="st0" cx="87.23" cy="44.53" r="1.82"/>
		<circle class="st1" cx="108.59" cy="44.53" r="1.82"/>
		<circle class="st1" cx="129.94" cy="44.53" r="1.82"/>
		<circle class="st1" cx="151.3" cy="44.53" r="1.82"/>
	</g>
	<g>
		<circle class="st0" cx="1.82" cy="65.88" r="1.82"/>
		<circle class="st0" cx="23.17" cy="65.88" r="1.82"/>
		<circle class="st0" cx="44.53" cy="65.88" r="1.82"/>
		<circle class="st0" cx="65.88" cy="65.88" r="1.82"/>
		<circle class="st0" cx="87.23" cy="65.88" r="1.82"/>
		<circle class="st1" cx="108.59" cy="65.88" r="1.82"/>
		<circle class="st1" cx="129.94" cy="65.88" r="1.82"/>
		<circle class="st1" cx="151.3" cy="65.88" r="1.82"/>
	</g>
</g>
<g class="st2">
	<defs>
		<rect id="SVGID_1_" x="307.91" y="33.57" class="st2" width="506.27" height="768"/>
	</defs>
	<clipPath id="SVGID_2_">
		<use xlink:href="#SVGID_1_"  style="overflow:visible;"/>
	</clipPath>
	<g class="st3">
		<g>
			<g>
				<path class="st0" d="M31.17-17.42c0.07,0.03,0.14,0.05,0.21,0.08c-1.46-3.13-3.49-6.07-6.07-8.65
					c-6.43-6.43-15.01-9.38-23.42-8.88C-5.3-34.44-12.36-31.49-17.85-26c-1.24,1.24-2.35,2.57-3.34,3.95
					c-0.02-0.12-0.04-0.24-0.06-0.36c-7.6,10.73-7.44,25.27,0.47,35.84c0.87,1.16,1.83,2.27,2.88,3.33
					c4.88,4.88,11.01,7.76,17.37,8.64c1.29-0.91,2.54-1.91,3.73-3c-1.26,1.17-2.58,2.23-3.94,3.2c9.15,1.27,18.75-1.61,25.78-8.64
					c2.99-2.99,5.22-6.43,6.71-10.12C34.91-0.94,34.7-9.77,31.17-17.42z M12.26,9.66C3.94,8.74-4.13,5.09-10.51-1.29
					c-1.06-1.06-2.04-2.16-2.95-3.31c1.1-1.48,2.33-2.91,3.67-4.26c6.32-6.32,14.3-9.96,22.54-10.93
					C16.51-10.32,16.35,0.32,12.26,9.66z"/>
				<path class="st0" d="M105.34-17.42c0.07,0.03,0.14,0.05,0.21,0.08c-1.46-3.13-3.49-6.07-6.07-8.65
					c-6.43-6.43-15.01-9.38-23.42-8.88c-7.18,0.43-14.24,3.39-19.73,8.88c-1.24,1.24-2.35,2.57-3.34,3.95
					c-0.02-0.12-0.04-0.24-0.06-0.36c-7.6,10.73-7.44,25.27,0.47,35.84c0.87,1.16,1.83,2.27,2.88,3.33
					c4.88,4.88,11.01,7.76,17.37,8.64c1.29-0.91,2.54-1.91,3.73-3c-1.26,1.17-2.58,2.23-3.94,3.2c9.15,1.27,18.75-1.61,25.78-8.64
					c2.99-2.99,5.22-6.43,6.71-10.12C109.08-0.94,108.88-9.77,105.34-17.42z M86.44,9.66c-8.32-0.93-16.4-4.57-22.78-10.95
					c-1.06-1.06-2.04-2.16-2.95-3.31c1.1-1.48,2.33-2.91,3.67-4.26c6.32-6.32,14.3-9.96,22.54-10.93
					C90.68-10.32,90.52,0.32,86.44,9.66z"/>
				<path class="st0" d="M179.51-17.42c0.07,0.03,0.14,0.05,0.21,0.08c-1.46-3.13-3.49-6.07-6.07-8.65
					c-6.43-6.43-15.01-9.38-23.42-8.88c-7.18,0.43-14.24,3.39-19.73,8.88c-1.24,1.24-2.35,2.57-3.34,3.95
					c-0.02-0.12-0.04-0.24-0.06-0.36c-7.6,10.73-7.44,25.27,0.47,35.84c0.87,1.16,1.83,2.27,2.88,3.33
					c4.88,4.88,11.01,7.76,17.37,8.64c1.29-0.91,2.54-1.91,3.73-3c-1.26,1.17-2.58,2.23-3.94,3.2c9.15,1.27,18.75-1.61,25.78-8.64
					c2.99-2.99,5.22-6.43,6.71-10.12C183.25-0.94,183.05-9.77,179.51-17.42z M160.61,9.66c-8.32-0.93-16.4-4.57-22.78-10.95
					c-1.06-1.06-2.04-2.16-2.95-3.31c1.1-1.48,2.33-2.91,3.67-4.26c6.32-6.32,14.3-9.96,22.54-10.93
					C164.85-10.32,164.69,0.32,160.61,9.66z"/>
			</g>
			<g>
				<path class="st0" d="M31.17,59.32c0.07,0.03,0.14,0.05,0.21,0.08c-1.46-3.13-3.49-6.07-6.07-8.65
					c-6.43-6.43-15.01-9.38-23.42-8.88c-7.18,0.43-14.24,3.39-19.73,8.88c-1.24,1.24-2.35,2.57-3.34,3.95
					c-0.02-0.12-0.04-0.24-0.06-0.36c-7.6,10.73-7.44,25.27,0.47,35.84c0.87,1.16,1.83,2.27,2.88,3.33
					c4.88,4.88,11.01,7.76,17.37,8.64c1.29-0.91,2.54-1.91,3.73-3c-1.26,1.17-2.58,2.23-3.94,3.2c9.15,1.27,18.75-1.61,25.78-8.64
					c2.99-2.99,5.22-6.43,6.71-10.12C34.91,75.8,34.7,66.98,31.17,59.32z M12.26,86.41c-8.32-0.93-16.4-4.57-22.78-10.95
					c-1.06-1.06-2.04-2.16-2.95-3.31c1.1-1.48,2.33-2.91,3.67-4.26c6.32-6.32,14.3-9.96,22.54-10.93
					C16.51,66.42,16.35,77.06,12.26,86.41z"/>
				<path class="st0" d="M105.34,59.32c0.07,0.03,0.14,0.05,0.21,0.08c-1.46-3.13-3.49-6.07-6.07-8.65
					c-6.43-6.43-15.01-9.38-23.42-8.88c-7.18,0.43-14.24,3.39-19.73,8.88c-1.24,1.24-2.35,2.57-3.34,3.95
					c-0.02-0.12-0.04-0.24-0.06-0.36c-7.6,10.73-7.44,25.27,0.47,35.84c0.87,1.16,1.83,2.27,2.88,3.33
					c4.88,4.88,11.01,7.76,17.37,8.64c1.29-0.91,2.54-1.91,3.73-3c-1.26,1.17-2.58,2.23-3.94,3.2c9.15,1.27,18.75-1.61,25.78-8.64
					c2.99-2.99,5.22-6.43,6.71-10.12C109.08,75.8,108.88,66.98,105.34,59.32z M86.44,86.41c-8.32-0.93-16.4-4.57-22.78-10.95
					c-1.06-1.06-2.04-2.16-2.95-3.31c1.1-1.48,2.33-2.91,3.67-4.26c6.32-6.32,14.3-9.96,22.54-10.93
					C90.68,66.42,90.52,77.06,86.44,86.41z"/>
				<path class="st0" d="M179.51,59.32c0.07,0.03,0.14,0.05,0.21,0.08c-1.46-3.13-3.49-6.07-6.07-8.65
					c-6.43-6.43-15.01-9.38-23.42-8.88c-7.18,0.43-14.24,3.39-19.73,8.88c-1.24,1.24-2.35,2.57-3.34,3.95
					c-0.02-0.12-0.04-0.24-0.06-0.36c-7.6,10.73-7.44,25.27,0.47,35.84c0.87,1.16,1.83,2.27,2.88,3.33
					c4.88,4.88,11.01,7.76,17.37,8.64c1.29-0.91,2.54-1.91,3.73-3c-1.26,1.17-2.58,2.23-3.94,3.2c9.15,1.27,18.75-1.61,25.78-8.64
					c2.99-2.99,5.22-6.43,6.71-10.12C183.25,75.8,183.05,66.98,179.51,59.32z M160.61,86.41c-8.32-0.93-16.4-4.57-22.78-10.95
					c-1.06-1.06-2.04-2.16-2.95-3.31c1.1-1.48,2.33-2.91,3.67-4.26c6.32-6.32,14.3-9.96,22.54-10.93
					C164.85,66.42,164.69,77.06,160.61,86.41z"/>
			</g>
		</g>
	</g>
</g>
</svg>
