<?xml version="1.0" encoding="utf-8"?>
<!-- Generator: Adobe Illustrator 24.1.1, SVG Export Plug-In . SVG Version: 6.00 Build 0)  -->
<svg version="1.1" id="Capa_1" xmlns="http://www.w3.org/2000/svg" xmlns:xlink="http://www.w3.org/1999/xlink" x="0px" y="0px"
	 viewBox="0 0 161.96 45.3" style="enable-background:new 0 0 161.96 45.3;" xml:space="preserve">
<style type="text/css">
	.st0{fill:#007CC3;}
	.st1{fill:#009F46;}
	.st2{fill:#087DC0;}
	.st3{fill:#A6CE39;}
	.st4{fill:#62BB46;}
</style>
<g>
	<path class="st0" d="M52.4,23.78l-0.01-0.04c-0.22-1.29-0.65-2.5-1.29-3.61c-0.66-1.15-1.5-2.17-2.49-3.01
		c-0.99-0.85-2.13-1.52-3.39-1.99c-1.27-0.48-2.62-0.72-4.01-0.72c-1.82,0-3.54,0.41-5.12,1.23c-0.42,0.22-0.83,0.46-1.22,0.72
		l-0.28,0.19l-0.28-0.19c-0.39-0.26-0.8-0.5-1.22-0.72c-1.57-0.82-3.29-1.23-5.12-1.23c-1.39,0-2.74,0.24-4.01,0.72
		c-0.25,0.09-0.49,0.2-0.73,0.31v-0.76h-6.54v9.91v13.96v6.69h6.97v-19.5c0-1.26,0.39-2.23,1.24-3.08c0.84-0.85,1.82-1.24,3.08-1.24
		c0.6,0,1.14,0.1,1.66,0.31c0.48,0.19,0.91,0.48,1.31,0.87l0.15,0.15v22.49h7.01V22.7l0.16-0.15c0.39-0.37,0.8-0.63,1.26-0.82
		c0.52-0.21,1.07-0.31,1.66-0.31c1.26,0,2.23,0.39,3.08,1.24c0.8,0.8,1.19,1.72,1.24,2.89l0,0.02V45.2h6.97v-20.6
		C52.5,24.32,52.47,24.05,52.4,23.78"/>
	<path class="st0" d="M92.12,23.78l-0.01-0.04c-0.22-1.29-0.65-2.5-1.29-3.61c-0.66-1.15-1.5-2.17-2.49-3.01
		c-0.99-0.85-2.13-1.52-3.39-1.99c-1.27-0.48-2.62-0.72-4.01-0.72c-1.82,0-3.54,0.41-5.12,1.23c-0.42,0.22-0.83,0.46-1.22,0.72
		l-0.28,0.19l-0.28-0.19c-0.39-0.26-0.8-0.5-1.22-0.72c-1.57-0.82-3.29-1.23-5.12-1.23c-1.39,0-2.74,0.24-4.01,0.72
		c-0.25,0.09-0.49,0.2-0.73,0.31v-0.76h-6.54v9.91v13.96v6.69h6.97v-19.5c0-1.26,0.39-2.23,1.24-3.08c0.84-0.85,1.82-1.24,3.08-1.24
		c0.6,0,1.14,0.1,1.66,0.31c0.48,0.19,0.91,0.48,1.31,0.87l0.15,0.15v22.49h7.01V22.7l0.16-0.15c0.39-0.37,0.8-0.63,1.26-0.82
		c0.52-0.21,1.07-0.31,1.66-0.31c1.26,0,2.23,0.39,3.08,1.24c0.8,0.8,1.19,1.72,1.24,2.89l0,0.02V45.2h6.97v-20.6
		C92.23,24.32,92.19,24.05,92.12,23.78"/>
	<g>
		<path class="st0" d="M103.45,16.3l-0.05,0.1c-0.08,0.22-0.21,0.32-0.39,0.32c-0.26,0-0.39-0.13-0.39-0.39V15.4
			c0.08-0.27,0.21-0.4,0.39-0.4c0.16,0,0.3,0.12,0.44,0.37V16.3z M103.45,23.51c0,0.09-0.04,0.17-0.12,0.25
			c-0.08,0.08-0.16,0.12-0.25,0.12h-0.12c-0.23,0-0.35-0.12-0.35-0.36v-5.78c0-0.24,0.12-0.36,0.35-0.36h0.12
			c0.09,0,0.18,0.04,0.25,0.11c0.07,0.07,0.11,0.16,0.11,0.25V23.51z"/>
		<path class="st0" d="M110.33,23.53c0,0.1-0.03,0.18-0.1,0.25c-0.07,0.07-0.15,0.1-0.25,0.1h-0.23c-0.22,0-0.34-0.12-0.34-0.35
			v-3.72c0-0.47-0.14-0.83-0.43-1.08c-0.28-0.25-0.66-0.37-1.14-0.37c-0.58,0-1.03,0.18-1.35,0.55c-0.32,0.37-0.48,0.85-0.48,1.45
			v3.18c0,0.1-0.03,0.18-0.1,0.25c-0.07,0.07-0.15,0.1-0.25,0.1h-0.25c-0.23,0-0.35-0.12-0.35-0.35v-5.62c0-0.09,0.03-0.18,0.1-0.25
			c0.07-0.07,0.15-0.11,0.25-0.11h0.25c0.09,0,0.17,0.04,0.24,0.12s0.11,0.16,0.11,0.25v0.15c0.05-0.04,0.13-0.11,0.25-0.19
			c0.02-0.02,0.04-0.03,0.06-0.03c0.42-0.28,0.93-0.43,1.52-0.43c0.71,0,1.28,0.19,1.73,0.56l-0.01-0.01
			c0.51,0.41,0.76,0.99,0.76,1.73V23.53z"/>
		<path class="st0" d="M116.61,22.12c0,0.66-0.25,1.16-0.75,1.48c-0.42,0.28-0.98,0.41-1.67,0.41c-1.78,0-2.67-0.81-2.67-2.44
			c0-0.09,0.03-0.18,0.1-0.25c0.07-0.07,0.15-0.1,0.25-0.1h0.26c0.23,0,0.35,0.12,0.35,0.35c0,1,0.58,1.5,1.73,1.5
			c0.38,0,0.7-0.06,0.96-0.19c0.34-0.17,0.5-0.43,0.5-0.76c0-0.4-0.33-0.68-0.98-0.84c-0.03,0-0.24-0.04-0.63-0.12
			c-0.1-0.02-0.26-0.04-0.48-0.08c-1.2-0.21-1.81-0.8-1.81-1.77c0-0.63,0.25-1.12,0.74-1.48c0.41-0.3,0.92-0.45,1.51-0.45
			c1.71,0,2.57,0.73,2.57,2.18c0,0.24-0.12,0.36-0.35,0.36h-0.27c-0.23,0-0.35-0.12-0.35-0.36c0-0.82-0.52-1.23-1.56-1.23
			c-0.34,0-0.63,0.08-0.89,0.23c-0.3,0.18-0.45,0.43-0.45,0.75c0,0.37,0.32,0.62,0.96,0.75h-0.04c0.05,0,0.1,0.01,0.14,0.03
			l-0.03-0.01c0.24,0.05,0.6,0.12,1.08,0.22C116.02,20.5,116.61,21.11,116.61,22.12z"/>
		<path class="st0" d="M120.33,18.34c0,0.09-0.03,0.18-0.1,0.26s-0.14,0.12-0.23,0.12h-0.68v4.8c0,0.09-0.03,0.17-0.1,0.25
			c-0.06,0.08-0.14,0.12-0.23,0.12h-0.18c-0.09,0-0.17-0.04-0.24-0.11s-0.1-0.16-0.1-0.25l-0.01-4.8h-0.67
			c-0.09,0-0.16-0.04-0.23-0.12s-0.1-0.16-0.1-0.26v-0.22c0-0.24,0.11-0.36,0.32-0.36h0.67v-1.45c0-0.24,0.11-0.36,0.32-0.36H119
			c0.09,0,0.16,0.04,0.23,0.12s0.1,0.16,0.1,0.25v1.45h0.68c0.22,0,0.32,0.12,0.32,0.36V18.34z"/>
		<path class="st0" d="M122.02,16.3l-0.05,0.1c-0.08,0.22-0.21,0.32-0.39,0.32c-0.26,0-0.39-0.13-0.39-0.39V15.4
			c0.08-0.27,0.21-0.4,0.39-0.4c0.16,0,0.3,0.12,0.44,0.37V16.3z M122.02,23.51c0,0.09-0.04,0.17-0.12,0.25
			c-0.08,0.08-0.16,0.12-0.25,0.12h-0.12c-0.23,0-0.35-0.12-0.35-0.36v-5.78c0-0.24,0.12-0.36,0.35-0.36h0.12
			c0.09,0,0.18,0.04,0.25,0.11c0.07,0.07,0.11,0.16,0.11,0.25V23.51z"/>
		<path class="st0" d="M126.07,18.34c0,0.09-0.03,0.18-0.1,0.26s-0.14,0.12-0.23,0.12h-0.68v4.8c0,0.09-0.03,0.17-0.1,0.25
			c-0.06,0.08-0.14,0.12-0.23,0.12h-0.18c-0.09,0-0.17-0.04-0.24-0.11s-0.1-0.16-0.1-0.25l-0.01-4.8h-0.67
			c-0.09,0-0.16-0.04-0.23-0.12s-0.1-0.16-0.1-0.26v-0.22c0-0.24,0.11-0.36,0.32-0.36h0.67v-1.45c0-0.24,0.11-0.36,0.32-0.36h0.21
			c0.09,0,0.16,0.04,0.23,0.12s0.1,0.16,0.1,0.25v1.45h0.68c0.22,0,0.32,0.12,0.32,0.36V18.34z"/>
		<path class="st0" d="M132.3,23.53c0,0.1-0.03,0.18-0.1,0.25c-0.07,0.07-0.15,0.1-0.25,0.1h-0.23c-0.22,0-0.34-0.12-0.34-0.35
			v-0.18c-0.48,0.43-1.09,0.65-1.83,0.65c-0.78,0-1.39-0.2-1.82-0.61c-0.46-0.41-0.68-1.01-0.68-1.78v-3.68
			c0-0.09,0.03-0.18,0.1-0.26s0.15-0.12,0.25-0.12h0.25c0.09,0,0.18,0.04,0.25,0.12c0.07,0.08,0.1,0.16,0.1,0.26v3.67
			c0,0.99,0.52,1.48,1.56,1.48c0.61,0,1.08-0.21,1.39-0.62c0.29-0.37,0.44-0.87,0.44-1.5v-3.03c0-0.25,0.11-0.37,0.34-0.37h0.23
			c0.09,0,0.18,0.04,0.25,0.12s0.1,0.16,0.1,0.26V23.53z"/>
		<path class="st0" d="M136.11,18.34c0,0.09-0.03,0.18-0.1,0.26s-0.14,0.12-0.23,0.12h-0.68v4.8c0,0.09-0.03,0.17-0.1,0.25
			c-0.06,0.08-0.14,0.12-0.23,0.12h-0.18c-0.09,0-0.17-0.04-0.24-0.11s-0.1-0.16-0.1-0.25l-0.01-4.8h-0.67
			c-0.09,0-0.16-0.04-0.23-0.12s-0.1-0.16-0.1-0.26v-0.22c0-0.24,0.11-0.36,0.32-0.36h0.67v-1.45c0-0.24,0.11-0.36,0.32-0.36h0.21
			c0.09,0,0.16,0.04,0.23,0.12s0.1,0.16,0.1,0.25v1.45h0.68c0.22,0,0.32,0.12,0.32,0.36V18.34z"/>
		<path class="st0" d="M143.08,20.7c0,0.99-0.28,1.79-0.85,2.39c-0.57,0.6-1.34,0.9-2.31,0.9c-0.96,0-1.73-0.31-2.31-0.93
			c-0.55-0.59-0.83-1.38-0.83-2.36c0-0.97,0.29-1.77,0.87-2.38c0.58-0.62,1.34-0.92,2.29-0.92c0.94,0,1.7,0.31,2.3,0.94
			C142.8,18.93,143.08,19.72,143.08,20.7z M142.14,20.7c0-0.72-0.19-1.3-0.57-1.72c-0.38-0.43-0.93-0.64-1.64-0.64
			c-0.7,0-1.24,0.21-1.62,0.64c-0.38,0.43-0.57,1-0.57,1.72c0,0.71,0.19,1.28,0.57,1.72c0.38,0.44,0.92,0.66,1.62,0.66
			c0.71,0,1.26-0.22,1.65-0.67C141.95,21.98,142.14,21.41,142.14,20.7z"/>
	</g>
	<g>
		<path class="st0" d="M111.84,34.02c0,0.1-0.04,0.18-0.12,0.25c-0.08,0.07-0.16,0.1-0.26,0.1h-0.25c-0.24,0-0.36-0.12-0.36-0.35
			V30.3c0-0.97-0.46-1.46-1.37-1.46c-0.5,0-0.9,0.14-1.21,0.43c-0.31,0.29-0.46,0.68-0.46,1.18v3.56c0,0.23-0.12,0.35-0.37,0.35
			h-0.25c-0.24,0-0.36-0.12-0.36-0.35V30.3c0-0.97-0.46-1.46-1.39-1.46c-0.53,0-0.96,0.21-1.27,0.62c-0.27,0.36-0.4,0.82-0.4,1.38
			v3.18c0,0.23-0.12,0.35-0.36,0.35h-0.25c-0.24,0-0.36-0.12-0.36-0.35v-5.62c0-0.24,0.12-0.36,0.36-0.36h0.25
			c0.09,0,0.18,0.04,0.25,0.11c0.07,0.07,0.11,0.16,0.11,0.25v0.13c0.04-0.03,0.1-0.07,0.18-0.13c0.43-0.33,0.97-0.49,1.61-0.49
			c0.83,0,1.45,0.3,1.85,0.89c0.45-0.59,1.14-0.89,2.07-0.89c1.58,0,2.36,0.76,2.36,2.27V34.02z"/>
		<path class="st0" d="M119.03,31.16c0,0.24-0.12,0.36-0.36,0.36l-4.84,0.01c0.1,1.35,0.8,2.03,2.1,2.03c0.45,0,0.84-0.11,1.19-0.32
			c0.38-0.24,0.64-0.56,0.77-0.94l-0.01,0.01c0.04-0.16,0.16-0.25,0.34-0.25h0.25c0.24,0,0.36,0.12,0.36,0.36v0.05
			c-0.3,1-0.96,1.64-1.96,1.92c-0.3,0.08-0.62,0.12-0.96,0.12c-1.02,0-1.78-0.32-2.3-0.96h0.01c-0.5-0.59-0.75-1.39-0.75-2.43
			c0-0.99,0.28-1.8,0.83-2.43c0.34-0.4,0.74-0.67,1.2-0.81c-0.01-0.02-0.01-0.03-0.02-0.03c0,0-0.01-0.01-0.02-0.03l0.01,0.04
			l-0.01-0.01c-0.04-0.08-0.06-0.16-0.06-0.25c0-0.14,0.05-0.25,0.14-0.35c0.01-0.01,0.03-0.02,0.05-0.04l1.23-1.39
			c0.09-0.11,0.22-0.17,0.36-0.17c0.12,0,0.26,0.06,0.41,0.17c0.05,0.07,0.08,0.17,0.08,0.3c0,0.09-0.05,0.21-0.16,0.37l-1.08,1.23
			h0.13c0.94,0,1.68,0.29,2.24,0.86c0.56,0.57,0.83,1.35,0.83,2.32V31.16z M118.01,30.57c-0.1-0.89-0.5-1.48-1.2-1.76
			c-0.26-0.1-0.54-0.16-0.85-0.16c-0.58,0-1.05,0.17-1.43,0.52c-0.37,0.35-0.6,0.81-0.69,1.39H118.01z"/>
		<path class="st0" d="M125.73,34.01c0,0.24-0.12,0.36-0.35,0.36h-0.25c-0.23,0-0.35-0.12-0.35-0.36v-0.37
			c-0.53,0.59-1.24,0.88-2.13,0.88c-0.95,0-1.71-0.36-2.29-1.07c-0.47-0.61-0.71-1.38-0.71-2.31c0-0.97,0.26-1.77,0.77-2.4
			c0.55-0.68,1.3-1.02,2.26-1.02c0.85,0,1.55,0.29,2.09,0.86v-2.61c0-0.23,0.12-0.35,0.35-0.35h0.25c0.23,0,0.35,0.12,0.35,0.35
			V34.01z M124.79,31.13c0-0.73-0.17-1.32-0.5-1.76c-0.37-0.47-0.91-0.71-1.63-0.71c-0.67,0-1.19,0.25-1.56,0.75
			c-0.33,0.45-0.49,1.02-0.49,1.72c0,0.69,0.16,1.25,0.48,1.69c0.02,0.01,0.03,0.02,0.05,0.04c0.36,0.46,0.87,0.7,1.52,0.7
			c0.66,0,1.19-0.25,1.59-0.74C124.61,32.37,124.79,31.81,124.79,31.13z"/>
		<path class="st0" d="M127.89,26.79l-0.05,0.1c-0.08,0.22-0.21,0.32-0.39,0.32c-0.26,0-0.39-0.13-0.39-0.39V25.9
			c0.08-0.27,0.21-0.4,0.39-0.4c0.16,0,0.3,0.12,0.44,0.37V26.79z M127.89,34.01c0,0.09-0.04,0.17-0.12,0.25
			c-0.08,0.08-0.16,0.12-0.25,0.12h-0.12c-0.23,0-0.35-0.12-0.35-0.36v-5.78c0-0.24,0.12-0.36,0.35-0.36h0.12
			c0.09,0,0.18,0.04,0.25,0.11c0.07,0.07,0.11,0.16,0.11,0.25V34.01z"/>
		<path class="st0" d="M135.14,32.41c-0.13,0.67-0.49,1.21-1.07,1.61l-0.08,0.03c-0.47,0.29-1.03,0.44-1.67,0.44
			c-0.95,0-1.7-0.3-2.25-0.9c-0.56-0.6-0.83-1.36-0.83-2.28c0-1.01,0.29-1.83,0.86-2.47c0.57-0.64,1.36-0.96,2.36-0.96
			c0.62,0,1.15,0.15,1.6,0.45c0.53,0.35,0.86,0.82,0.99,1.41v0.08c0,0.15-0.05,0.26-0.14,0.31l-0.26,0.14
			c-0.04,0.03-0.1,0.04-0.17,0.04c-0.19,0-0.31-0.09-0.35-0.27c-0.18-0.81-0.74-1.21-1.69-1.21c-0.74,0-1.3,0.23-1.68,0.68
			c-0.38,0.45-0.57,1.05-0.57,1.8c0,0.69,0.18,1.23,0.54,1.63c0.38,0.42,0.91,0.63,1.59,0.63c0.45,0,0.84-0.1,1.17-0.31
			c0.37-0.22,0.6-0.54,0.68-0.96c0.08-0.25,0.2-0.37,0.37-0.37c0.05,0,0.1,0.01,0.15,0.04l-0.01-0.01l0.28,0.12L135.14,32.41z"/>
		<path class="st0" d="M142.23,31.19c0,0.99-0.28,1.79-0.85,2.39c-0.57,0.6-1.34,0.9-2.31,0.9c-0.96,0-1.73-0.31-2.31-0.93
			c-0.55-0.59-0.83-1.38-0.83-2.36c0-0.97,0.29-1.77,0.87-2.38c0.58-0.62,1.34-0.92,2.29-0.92c0.94,0,1.7,0.31,2.3,0.94
			C141.95,29.43,142.23,30.21,142.23,31.19z M141.29,31.19c0-0.72-0.19-1.3-0.57-1.72c-0.38-0.43-0.93-0.64-1.64-0.64
			c-0.7,0-1.24,0.21-1.62,0.64c-0.38,0.43-0.57,1-0.57,1.72c0,0.71,0.19,1.28,0.57,1.72c0.38,0.44,0.92,0.66,1.62,0.66
			c0.71,0,1.26-0.22,1.65-0.67C141.1,32.48,141.29,31.91,141.29,31.19z"/>
	</g>
	<g>
		<path class="st1" d="M111.84,44.52c0,0.09-0.04,0.18-0.12,0.25c-0.08,0.07-0.16,0.1-0.26,0.1h-0.25c-0.24,0-0.36-0.12-0.36-0.35
			V40.8c0-0.97-0.46-1.46-1.37-1.46c-0.5,0-0.9,0.14-1.21,0.43c-0.31,0.29-0.46,0.68-0.46,1.18v3.56c0,0.23-0.12,0.35-0.37,0.35
			h-0.25c-0.24,0-0.36-0.12-0.36-0.35V40.8c0-0.97-0.46-1.46-1.39-1.46c-0.53,0-0.96,0.21-1.27,0.62c-0.27,0.36-0.4,0.82-0.4,1.38
			v3.18c0,0.23-0.12,0.35-0.36,0.35h-0.25c-0.24,0-0.36-0.12-0.36-0.35V38.9c0-0.24,0.12-0.36,0.36-0.36h0.25
			c0.09,0,0.18,0.04,0.25,0.11c0.07,0.07,0.11,0.16,0.11,0.25v0.13c0.04-0.03,0.1-0.07,0.18-0.13c0.43-0.33,0.97-0.49,1.61-0.49
			c0.83,0,1.45,0.3,1.85,0.89c0.45-0.59,1.14-0.89,2.07-0.89c1.58,0,2.36,0.76,2.36,2.27V44.52z"/>
		<path class="st1" d="M119.03,41.73c0,0.24-0.12,0.36-0.36,0.36l-4.84,0.01c0.1,1.31,0.8,1.96,2.1,1.96c0.43,0,0.82-0.1,1.18-0.31
			c0.39-0.22,0.65-0.52,0.79-0.9l-0.01,0.03c0.04-0.18,0.16-0.27,0.34-0.27h0.25c0.24,0,0.36,0.12,0.36,0.36v0.05
			c-0.4,1.31-1.38,1.96-2.92,1.96c-1.01,0-1.76-0.3-2.27-0.89c-0.51-0.59-0.76-1.39-0.76-2.39c0-0.96,0.28-1.74,0.83-2.35
			c0.58-0.65,1.34-0.97,2.26-0.97c0.93,0,1.67,0.28,2.23,0.84c0.56,0.56,0.84,1.31,0.84,2.25V41.73z M118.01,41.17
			c-0.07-0.51-0.25-0.92-0.54-1.25c-0.35-0.4-0.86-0.59-1.51-0.59c-0.58,0-1.05,0.17-1.43,0.5c-0.37,0.33-0.6,0.78-0.69,1.35H118.01
			z"/>
		<path class="st1" d="M122.4,39.33c0,0.1-0.03,0.18-0.1,0.26s-0.14,0.12-0.23,0.12h-0.68v4.8c0,0.09-0.03,0.17-0.1,0.25
			c-0.06,0.08-0.14,0.12-0.23,0.12h-0.18c-0.09,0-0.17-0.04-0.24-0.11c-0.06-0.07-0.1-0.16-0.1-0.25l-0.01-4.8h-0.67
			c-0.09,0-0.16-0.04-0.23-0.12s-0.1-0.16-0.1-0.26v-0.22c0-0.24,0.11-0.36,0.32-0.36h0.67V37.3c0-0.24,0.11-0.36,0.32-0.36h0.21
			c0.09,0,0.16,0.04,0.23,0.12c0.06,0.08,0.1,0.16,0.1,0.25v1.45h0.68c0.22,0,0.32,0.12,0.32,0.36V39.33z"/>
		<path class="st1" d="M129.14,44.52c0,0.23-0.12,0.35-0.35,0.35h-0.25c-0.23,0-0.35-0.12-0.35-0.35v-0.37
			c-0.52,0.56-1.24,0.84-2.13,0.84c-0.95,0-1.69-0.32-2.23-0.96c-0.51-0.59-0.76-1.37-0.76-2.32c0-0.96,0.26-1.73,0.79-2.34
			c0.58-0.65,1.33-0.98,2.25-0.98c0.87,0,1.57,0.28,2.09,0.84v-0.45c0-0.09,0.03-0.18,0.1-0.25c0.07-0.07,0.15-0.11,0.25-0.11h0.25
			c0.23,0,0.35,0.12,0.35,0.36V44.52z M128.2,41.7c0-0.73-0.17-1.3-0.52-1.7c-0.36-0.45-0.9-0.67-1.61-0.67
			c-0.65,0-1.17,0.24-1.54,0.71c-0.34,0.44-0.52,0.99-0.52,1.67c0,0.68,0.15,1.23,0.46,1.64c0.02,0.01,0.04,0.03,0.06,0.05
			c0.36,0.45,0.87,0.67,1.52,0.67c0.65,0,1.17-0.22,1.56-0.66C128,42.96,128.2,42.39,128.2,41.7z"/>
		<path class="st1" d="M136.66,41.64c0,0.98-0.25,1.77-0.76,2.38c-0.54,0.65-1.3,0.98-2.26,0.98c-0.83,0-1.52-0.29-2.09-0.88v0.39
			c0,0.24-0.12,0.36-0.35,0.36h-0.23c-0.23,0-0.35-0.12-0.35-0.36v-8.04c0-0.23,0.12-0.35,0.35-0.35h0.23
			c0.23,0,0.35,0.12,0.35,0.35v2.59c0.57-0.57,1.27-0.85,2.09-0.85c0.97,0,1.73,0.34,2.27,1.01c0.03,0.03,0.04,0.06,0.04,0.09
			C136.43,39.87,136.66,40.65,136.66,41.64z M135.72,41.63c0-0.71-0.16-1.29-0.48-1.73c-0.35-0.49-0.87-0.74-1.56-0.74
			c-0.62,0-1.15,0.22-1.6,0.67c-0.35,0.45-0.53,1.06-0.53,1.83c0,0.7,0.2,1.27,0.59,1.71c0.39,0.44,0.91,0.67,1.56,0.67
			c0.64,0,1.13-0.23,1.49-0.68C135.54,42.91,135.72,42.33,135.72,41.63z"/>
		<path class="st1" d="M143.78,41.61c0,1-0.29,1.81-0.86,2.45c-0.57,0.63-1.34,0.95-2.3,0.95c-0.97,0-1.75-0.33-2.32-0.98
			c-0.54-0.63-0.81-1.43-0.81-2.41c0-1.02,0.28-1.84,0.85-2.44c0.33-0.35,0.74-0.62,1.23-0.79c-0.04-0.07-0.06-0.14-0.06-0.22
			c0-0.13,0.04-0.24,0.13-0.34c0.01-0.01,0.03-0.02,0.06-0.04l1.24-1.39c0.1-0.12,0.22-0.18,0.36-0.18c0.09,0,0.21,0.06,0.37,0.17
			c-0.01-0.02-0.01-0.03-0.01-0.04c0.09,0.2,0.13,0.31,0.13,0.35c0,0.14-0.04,0.26-0.13,0.36c-0.03,0.03-0.05,0.04-0.06,0.04
			l-0.99,1.12h0.05c0.96,0,1.72,0.31,2.29,0.94C143.49,39.79,143.78,40.61,143.78,41.61z M142.84,41.61c0-0.71-0.2-1.31-0.59-1.78
			c-0.37-0.45-0.91-0.67-1.61-0.67c-0.71,0-1.27,0.24-1.65,0.72c-0.36,0.44-0.54,1.02-0.54,1.73c0,0.71,0.18,1.28,0.56,1.73
			c0.4,0.47,0.94,0.71,1.64,0.71c0.71,0,1.26-0.23,1.65-0.7C142.65,42.92,142.84,42.34,142.84,41.61z"/>
		<path class="st1" d="M145.44,44.45c0,0.09-0.04,0.17-0.12,0.24c-0.08,0.07-0.16,0.11-0.25,0.11h-0.12c-0.24,0-0.36-0.12-0.36-0.35
			v-7.8c0-0.24,0.12-0.36,0.36-0.36h0.12c0.09,0,0.17,0.04,0.25,0.12c0.08,0.08,0.12,0.16,0.12,0.25V44.45z"/>
		<path class="st1" d="M147.6,37.29l-0.05,0.1c-0.08,0.22-0.21,0.32-0.39,0.32c-0.26,0-0.39-0.13-0.39-0.39V36.4
			c0.08-0.27,0.21-0.4,0.39-0.4c0.16,0,0.3,0.12,0.44,0.37V37.29z M147.6,44.51c0,0.09-0.04,0.17-0.12,0.25
			c-0.08,0.08-0.16,0.12-0.25,0.12h-0.12c-0.23,0-0.35-0.12-0.35-0.36v-5.78c0-0.24,0.12-0.36,0.35-0.36h0.12
			c0.09,0,0.18,0.04,0.25,0.11c0.07,0.07,0.11,0.16,0.11,0.25V44.51z"/>
		<path class="st1" d="M154.86,42.9c-0.13,0.67-0.49,1.21-1.07,1.61l-0.08,0.03c-0.47,0.29-1.03,0.44-1.67,0.44
			c-0.95,0-1.7-0.3-2.25-0.9c-0.56-0.6-0.83-1.36-0.83-2.28c0-1.01,0.29-1.83,0.86-2.47c0.57-0.64,1.36-0.96,2.36-0.96
			c0.62,0,1.15,0.15,1.6,0.45c0.53,0.35,0.86,0.82,0.99,1.41v0.08c0,0.15-0.05,0.26-0.14,0.31l-0.26,0.14
			c-0.04,0.03-0.1,0.04-0.17,0.04c-0.19,0-0.31-0.09-0.35-0.27c-0.18-0.81-0.74-1.21-1.69-1.21c-0.74,0-1.3,0.23-1.68,0.68
			c-0.38,0.45-0.57,1.05-0.57,1.8c0,0.69,0.18,1.23,0.54,1.63c0.38,0.42,0.91,0.63,1.59,0.63c0.45,0,0.84-0.1,1.17-0.31
			c0.37-0.22,0.6-0.54,0.68-0.96c0.08-0.25,0.2-0.37,0.37-0.37c0.05,0,0.1,0.01,0.15,0.04l-0.01-0.01l0.28,0.12L154.86,42.9z"/>
		<path class="st1" d="M161.96,41.69c0,0.99-0.28,1.79-0.85,2.39s-1.34,0.9-2.31,0.9c-0.96,0-1.73-0.31-2.31-0.93
			c-0.55-0.59-0.83-1.38-0.83-2.36c0-0.97,0.29-1.77,0.87-2.38c0.58-0.62,1.34-0.92,2.29-0.92c0.94,0,1.7,0.31,2.3,0.94
			C161.68,39.92,161.96,40.71,161.96,41.69z M161.01,41.69c0-0.72-0.19-1.3-0.57-1.72c-0.38-0.43-0.93-0.64-1.64-0.64
			c-0.7,0-1.24,0.21-1.62,0.64c-0.38,0.43-0.57,1-0.57,1.72c0,0.71,0.19,1.28,0.57,1.72c0.38,0.44,0.92,0.66,1.62,0.66
			c0.71,0,1.26-0.22,1.65-0.67C160.83,42.97,161.01,42.41,161.01,41.69z"/>
	</g>
	<polyline class="st2" points="96.74,13.95 96.74,45.3 98.15,45.3 98.15,13.95 	"/>
	<path class="st0" d="M8.46,18.88c-1.24,0-2.43-0.25-3.5-0.71v27.08h6.97V18.18C10.86,18.63,9.69,18.88,8.46,18.88"/>
	<path class="st3" d="M10.89,12.39c-2.32-0.25-4.58-1.27-6.36-3.05C4.22,9.03,3.93,8.7,3.66,8.36C2.53,6.9,1.82,5.22,1.55,3.48
		c-2.11,2.98-2.07,7.02,0.13,9.95c0.24,0.32,0.51,0.63,0.8,0.93c1.36,1.36,3.06,2.16,4.82,2.4c0.49-0.34,0.95-0.73,1.39-1.17
		C9.64,14.63,10.37,13.55,10.89,12.39"/>
	<path class="st4" d="M16.27,11.6c0.88-2.17,0.82-4.64-0.18-6.77c-1.63-0.65-3.4-0.88-5.12-0.68c1.08,2.66,1.03,5.66-0.14,8.29
		c-0.52,1.16-1.25,2.25-2.2,3.2c-0.44,0.44-0.9,0.83-1.39,1.17c2.54,0.35,5.21-0.45,7.16-2.4C15.23,13.58,15.85,12.62,16.27,11.6"/>
	<path class="st1" d="M14.47,2.48c-1.79-1.78-4.17-2.61-6.5-2.46C5.98,0.14,4.02,0.96,2.49,2.48C2.15,2.83,1.84,3.2,1.56,3.58
		c0.27,1.74,0.98,3.43,2.11,4.88c0.31-0.43,0.67-0.84,1.05-1.23c1.77-1.77,4-2.78,6.31-3.04c1.72-0.19,3.49,0.03,5.12,0.68
		C15.75,4.01,15.19,3.2,14.47,2.48"/>
</g>
</svg>
