<?xml version="1.0" encoding="utf-8"?>
<!-- Generator: Adobe Illustrator 24.1.1, SVG Export Plug-In . SVG Version: 6.00 Build 0)  -->
<svg version="1.1" id="Capa_1" xmlns="http://www.w3.org/2000/svg" xmlns:xlink="http://www.w3.org/1999/xlink" x="0px" y="0px"
	 viewBox="0 0 100.96 45.3" style="enable-background:new 0 0 161.96 45.3;" xml:space="preserve">
<style type="text/css">
	.st0{fill:#007CC3;}
	.st1{fill:#009F46;}
	.st2{fill:#087DC0;}
	.st3{fill:#A6CE39;}
	.st4{fill:#62BB46;}
</style>
<g>
	<path class="st0" d="M52.4,23.78l-0.01-0.04c-0.22-1.29-0.65-2.5-1.29-3.61c-0.66-1.15-1.5-2.17-2.49-3.01
		c-0.99-0.85-2.13-1.52-3.39-1.99c-1.27-0.48-2.62-0.72-4.01-0.72c-1.82,0-3.54,0.41-5.12,1.23c-0.42,0.22-0.83,0.46-1.22,0.72
		l-0.28,0.19l-0.28-0.19c-0.39-0.26-0.8-0.5-1.22-0.72c-1.57-0.82-3.29-1.23-5.12-1.23c-1.39,0-2.74,0.24-4.01,0.72
		c-0.25,0.09-0.49,0.2-0.73,0.31v-0.76h-6.54v9.91v13.96v6.69h6.97v-19.5c0-1.26,0.39-2.23,1.24-3.08c0.84-0.85,1.82-1.24,3.08-1.24
		c0.6,0,1.14,0.1,1.66,0.31c0.48,0.19,0.91,0.48,1.31,0.87l0.15,0.15v22.49h7.01V22.7l0.16-0.15c0.39-0.37,0.8-0.63,1.26-0.82
		c0.52-0.21,1.07-0.31,1.66-0.31c1.26,0,2.23,0.39,3.08,1.24c0.8,0.8,1.19,1.72,1.24,2.89l0,0.02V45.2h6.97v-20.6
		C52.5,24.32,52.47,24.05,52.4,23.78"/>
	<path class="st0" d="M92.12,23.78l-0.01-0.04c-0.22-1.29-0.65-2.5-1.29-3.61c-0.66-1.15-1.5-2.17-2.49-3.01
		c-0.99-0.85-2.13-1.52-3.39-1.99c-1.27-0.48-2.62-0.72-4.01-0.72c-1.82,0-3.54,0.41-5.12,1.23c-0.42,0.22-0.83,0.46-1.22,0.72
		l-0.28,0.19l-0.28-0.19c-0.39-0.26-0.8-0.5-1.22-0.72c-1.57-0.82-3.29-1.23-5.12-1.23c-1.39,0-2.74,0.24-4.01,0.72
		c-0.25,0.09-0.49,0.2-0.73,0.31v-0.76h-6.54v9.91v13.96v6.69h6.97v-19.5c0-1.26,0.39-2.23,1.24-3.08c0.84-0.85,1.82-1.24,3.08-1.24
		c0.6,0,1.14,0.1,1.66,0.31c0.48,0.19,0.91,0.48,1.31,0.87l0.15,0.15v22.49h7.01V22.7l0.16-0.15c0.39-0.37,0.8-0.63,1.26-0.82
		c0.52-0.21,1.07-0.31,1.66-0.31c1.26,0,2.23,0.39,3.08,1.24c0.8,0.8,1.19,1.72,1.24,2.89l0,0.02V45.2h6.97v-20.6
		C92.23,24.32,92.19,24.05,92.12,23.78"/>
	<polyline class="st2" points="96.74,13.95 96.74,45.3 98.15,45.3 98.15,13.95 	"/>
	<path class="st0" d="M8.46,18.88c-1.24,0-2.43-0.25-3.5-0.71v27.08h6.97V18.18C10.86,18.63,9.69,18.88,8.46,18.88"/>
	<path class="st3" d="M10.89,12.39c-2.32-0.25-4.58-1.27-6.36-3.05C4.22,9.03,3.93,8.7,3.66,8.36C2.53,6.9,1.82,5.22,1.55,3.48
		c-2.11,2.98-2.07,7.02,0.13,9.95c0.24,0.32,0.51,0.63,0.8,0.93c1.36,1.36,3.06,2.16,4.82,2.4c0.49-0.34,0.95-0.73,1.39-1.17
		C9.64,14.63,10.37,13.55,10.89,12.39"/>
	<path class="st4" d="M16.27,11.6c0.88-2.17,0.82-4.64-0.18-6.77c-1.63-0.65-3.4-0.88-5.12-0.68c1.08,2.66,1.03,5.66-0.14,8.29
		c-0.52,1.16-1.25,2.25-2.2,3.2c-0.44,0.44-0.9,0.83-1.39,1.17c2.54,0.35,5.21-0.45,7.16-2.4C15.23,13.58,15.85,12.62,16.27,11.6"/>
	<path class="st1" d="M14.47,2.48c-1.79-1.78-4.17-2.61-6.5-2.46C5.98,0.14,4.02,0.96,2.49,2.48C2.15,2.83,1.84,3.2,1.56,3.58
		c0.27,1.74,0.98,3.43,2.11,4.88c0.31-0.43,0.67-0.84,1.05-1.23c1.77-1.77,4-2.78,6.31-3.04c1.72-0.19,3.49,0.03,5.12,0.68
		C15.75,4.01,15.19,3.2,14.47,2.48"/>
</g>
</svg>
