<?xml version="1.0" encoding="utf-8"?>
<!-- Generator: Adobe Illustrator 24.1.1, SVG Export Plug-In . SVG Version: 6.00 Build 0)  -->
<svg version="1.1" id="Capa_6" xmlns="http://www.w3.org/2000/svg" xmlns:xlink="http://www.w3.org/1999/xlink" x="0px" y="0px"
	 viewBox="0 0 186.24 151.25" style="enable-background:new 0 0 186.24 151.25;" xml:space="preserve">
<style type="text/css">
	.st0{fill:#A6CE39;}
	.st1{fill:#FFFFFF;}
	.st2{fill:#62BB46;}
	.st3{fill:#007CC3;}
	.st4{fill:#D9D9D9;}
	.st5{fill:#BFBFBF;}
	.st6{fill:#999999;}
</style>
<g>
	<g>
		<circle class="st0" cx="41.11" cy="104.06" r="31.46"/>
		<path class="st1" d="M24.83,98.51c0.43-2.66,2-4.74,4.06-5.98c0.11-0.06,0.21-0.13,0.32-0.19c2.53-1.39,5.72-1.55,8.46-0.04
			c0.29,0.16,0.58,0.34,0.86,0.54c1.04,0.74,1.88,1.68,2.57,2.84c0.69-1.16,1.53-2.1,2.57-2.84c5.22-3.72,12.7-0.64,13.71,5.68
			c0.39,2.4-0.14,4.66-1.26,6.79c-1.29,2.45-3.1,4.48-5.01,6.46c-2.69,2.79-5.7,5.22-8.63,7.74c-0.2,0.17-0.4,0.35-0.61,0.52
			c-0.44,0.38-1.1,0.38-1.55,0c-0.21-0.18-0.41-0.35-0.61-0.52c-2.93-2.52-5.94-4.95-8.63-7.74c-0.64-0.67-1.28-1.34-1.88-2.04
			c-0.11-0.13-0.21-0.26-0.32-0.38c-0.78-0.92-1.51-1.88-2.15-2.91c-0.23-0.37-0.45-0.74-0.65-1.13
			C24.97,103.17,24.44,100.92,24.83,98.51z"/>
	</g>
	<g>
		<circle class="st2" cx="145.13" cy="104.06" r="31.46"/>
		<path class="st1" d="M155.67,100.07h-6.55v-6.55c0-2.2-1.79-3.99-3.99-3.99l0,0c-2.2,0-3.99,1.79-3.99,3.99v6.55h-6.55
			c-2.2,0-3.99,1.79-3.99,3.99v0c0,2.2,1.79,3.99,3.99,3.99h6.55v6.55c0,2.2,1.79,3.99,3.99,3.99l0,0c2.2,0,3.99-1.79,3.99-3.99
			v-6.55h6.55c2.2,0,3.99-1.79,3.99-3.99v0C159.67,101.85,157.88,100.07,155.67,100.07z"/>
	</g>
	<path class="st3" d="M125,15.73H61.24c-5.45,0-9.87,4.42-9.87,9.87v55.13c0,5.45,4.42,9.87,9.87,9.87h25.7l3.94,3.94
		c1.23,1.23,3.23,1.23,4.46,0l3.94-3.94H125c5.45,0,9.87-4.42,9.87-9.87V25.61C134.87,20.15,130.45,15.73,125,15.73z"/>
	<circle class="st1" cx="93.12" cy="53.17" r="20.55"/>
	<g>
		<g>
			<circle class="st3" cx="84.99" cy="48.93" r="1.42"/>
			<circle class="st3" cx="101.25" cy="48.93" r="1.42"/>
			<path class="st3" d="M87.06,54.69c-0.52,0-0.91,0.46-0.84,0.97c0.47,3.39,3.38,6,6.9,6s6.43-2.61,6.9-6
				c0.07-0.51-0.32-0.97-0.84-0.97H87.06z"/>
		</g>
	</g>
</g>
</svg>
