<?xml version="1.0" encoding="utf-8"?>
<!-- Generator: Adobe Illustrator 24.1.1, SVG Export Plug-In . SVG Version: 6.00 Build 0)  -->
<svg version="1.1" id="Capa_1" xmlns="http://www.w3.org/2000/svg" xmlns:xlink="http://www.w3.org/1999/xlink" x="0px" y="0px"
	 viewBox="0 0 16.88 16.89" style="enable-background:new 0 0 16.88 16.89;" xml:space="preserve">
<style type="text/css">
	.st0{fill:#A6CE39;}
	.st1{fill:#62BB46;}
	.st2{fill:#009F46;}
</style>
<path class="st0" d="M10.89,12.39c-2.32-0.25-4.58-1.27-6.36-3.05C4.22,9.03,3.93,8.7,3.66,8.36C2.53,6.9,1.82,5.22,1.55,3.48
	c-2.11,2.98-2.07,7.02,0.13,9.95c0.24,0.32,0.51,0.63,0.8,0.93c1.36,1.36,3.06,2.16,4.82,2.4c0.49-0.34,0.95-0.73,1.39-1.17
	C9.64,14.63,10.37,13.55,10.89,12.39"/>
<path class="st1" d="M16.27,11.6c0.88-2.17,0.82-4.64-0.18-6.77c-1.63-0.65-3.4-0.88-5.12-0.68c1.08,2.66,1.03,5.66-0.14,8.29
	c-0.52,1.16-1.25,2.25-2.2,3.2c-0.44,0.44-0.9,0.83-1.39,1.17c2.54,0.35,5.21-0.45,7.16-2.4C15.23,13.58,15.85,12.62,16.27,11.6"/>
<path class="st2" d="M14.47,2.48c-1.79-1.78-4.17-2.61-6.5-2.46C5.98,0.14,4.02,0.96,2.49,2.48C2.15,2.83,1.84,3.2,1.56,3.58
	c0.27,1.74,0.98,3.43,2.11,4.88c0.31-0.43,0.67-0.84,1.05-1.23c1.77-1.77,4-2.78,6.31-3.04c1.72-0.19,3.49,0.03,5.12,0.68
	C15.75,4.01,15.19,3.2,14.47,2.48"/>
</svg>
