<?xml version="1.0" encoding="utf-8"?>
<!-- Generator: Adobe Illustrator 24.1.1, SVG Export Plug-In . SVG Version: 6.00 Build 0)  -->
<svg version="1.1" id="Capa_1" xmlns="http://www.w3.org/2000/svg" xmlns:xlink="http://www.w3.org/1999/xlink" x="0px" y="0px"
	 viewBox="0 0 192.61 55.77" style="enable-background:new 0 0 192.61 55.77;" xml:space="preserve">
<style type="text/css">
	.st0{fill:#FFFFFF;}
</style>
<g>
	<path class="st0" d="M12.45,15.03c-2.75-0.4-5.32-1.68-7.29-3.65c-0.38-0.38-0.73-0.78-1.06-1.2C2.92,8.66,1.97,6.6,1.53,4.63
		C-0.65,8.13-0.5,12.67,2,16.02c0.29,0.38,0.61,0.75,0.95,1.1c1.53,1.53,3.43,2.46,5.41,2.8c0.56-0.44,1.27-1.08,1.7-1.5
		C11.06,17.43,11.85,16.28,12.45,15.03"/>
	<path class="st0" d="M19.44,6.4c-2.06-0.8-4.22-1.19-5.89-1.09c1.12,3.13,1.01,6.62-0.34,9.66c-0.65,1.46-1.55,2.78-2.69,3.91
		c-0.34,0.34-0.85,0.8-1.34,1.21c2.86,0.24,5.8-0.72,7.99-2.91c0.99-0.99,1.73-2.13,2.22-3.35C20.36,11.46,20.37,8.79,19.44,6.4"/>
	<path class="st0" d="M5.41,8.41c2.1-2.1,4.77-3.39,7.72-3.72c1.67-0.19,3.89,0.15,6.03,0.91c-0.47-0.95-1.1-1.84-1.89-2.63
		c-2.13-2.13-4.97-3.11-7.76-2.94C7.12,0.16,4.79,1.14,2.97,2.96C2.64,3.29,2.35,3.63,2.08,3.99C2.42,5.9,3.3,7.96,4.43,9.51
		C4.74,9.12,5.06,8.75,5.41,8.41"/>
	<path class="st0" d="M62.44,28.41l-0.01-0.05c-0.26-1.53-0.78-2.98-1.54-4.3c-0.79-1.37-1.78-2.58-2.97-3.59
		c-1.18-1.01-2.54-1.81-4.04-2.38c-1.51-0.57-3.12-0.86-4.78-0.86c-2.17,0-4.23,0.49-6.1,1.47c-0.5,0.26-0.99,0.55-1.45,0.86
		l-0.33,0.23l-0.33-0.23c-0.46-0.31-0.95-0.6-1.45-0.86c-1.87-0.97-3.93-1.47-6.1-1.47c-1.66,0-3.27,0.29-4.78,0.86
		c-0.3,0.11-0.59,0.24-0.88,0.37v-0.9h-7.8v11.82v16.65V54h8.31V30.74c0-1.5,0.47-2.67,1.48-3.67c1.01-1.01,2.17-1.48,3.67-1.48
		c0.72,0,1.36,0.12,1.98,0.37c0.57,0.23,1.08,0.57,1.56,1.04l0.18,0.18V54h8.36V27.11l0.19-0.18c0.46-0.44,0.96-0.76,1.5-0.98
		c0.62-0.25,1.27-0.37,1.98-0.37c1.5,0,2.67,0.47,3.67,1.48c0.95,0.95,1.42,2.05,1.48,3.45v0.02v23.4h8.31V29.37
		C62.57,29.05,62.53,28.72,62.44,28.41"/>
	<path class="st0" d="M109.82,28.41l-0.01-0.05c-0.26-1.53-0.78-2.98-1.54-4.3c-0.78-1.37-1.78-2.58-2.97-3.59
		c-1.18-1.01-2.54-1.81-4.04-2.38c-1.51-0.57-3.12-0.86-4.78-0.86c-2.17,0-4.23,0.49-6.1,1.47c-0.5,0.26-0.99,0.55-1.45,0.86
		l-0.33,0.23l-0.33-0.23c-0.46-0.31-0.95-0.6-1.45-0.86c-1.87-0.97-3.93-1.47-6.1-1.47c-1.66,0-3.27,0.29-4.78,0.86
		c-0.3,0.11-0.59,0.24-0.88,0.37v-0.9h-7.8v11.82v16.65V54h8.31V30.74c0-1.5,0.47-2.67,1.48-3.67c1.01-1.01,2.17-1.48,3.67-1.48
		c0.71,0,1.36,0.12,1.98,0.37c0.57,0.23,1.08,0.57,1.57,1.04l0.18,0.18V54h8.36V27.11L93,26.94c0.46-0.44,0.96-0.76,1.5-0.98
		c0.62-0.25,1.27-0.37,1.99-0.37c1.5,0,2.66,0.47,3.67,1.48c0.95,0.95,1.42,2.05,1.48,3.45l0,0.02v23.4h8.31V29.37
		C109.95,29.05,109.91,28.72,109.82,28.41"/>
	<polyline class="st0" points="115.29,16.68 115.29,54.07 117.05,54.07 117.05,16.68 	"/>
	<path class="st0" d="M10.04,22.55c-1.48,0-2.89-0.3-4.18-0.85V54h8.31V21.72C12.91,22.26,11.51,22.55,10.04,22.55"/>
	<g>
		<path class="st0" d="M123.96,18.83l-0.06,0.12c-0.09,0.26-0.25,0.39-0.47,0.39c-0.31,0-0.47-0.16-0.47-0.47v-1.12
			c0.09-0.32,0.25-0.48,0.47-0.48c0.19,0,0.36,0.15,0.53,0.45V18.83z M123.96,27.51c0,0.1-0.05,0.2-0.14,0.29s-0.19,0.14-0.29,0.14
			h-0.14c-0.28,0-0.42-0.14-0.42-0.43v-6.95c0-0.29,0.14-0.43,0.42-0.43h0.14c0.11,0,0.21,0.04,0.3,0.13s0.13,0.19,0.13,0.3V27.51z"
			/>
		<path class="st0" d="M132.23,27.52c0,0.11-0.04,0.21-0.12,0.29c-0.08,0.08-0.18,0.12-0.29,0.12h-0.28c-0.27,0-0.4-0.14-0.4-0.42
			v-4.47c0-0.57-0.17-1-0.51-1.3c-0.34-0.3-0.8-0.45-1.37-0.45c-0.69,0-1.23,0.22-1.62,0.66c-0.39,0.44-0.58,1.02-0.58,1.75v3.82
			c0,0.11-0.04,0.21-0.12,0.29c-0.08,0.08-0.18,0.12-0.29,0.12h-0.29c-0.28,0-0.42-0.14-0.42-0.42v-6.75c0-0.11,0.04-0.21,0.12-0.3
			c0.08-0.09,0.18-0.13,0.29-0.13h0.29c0.1,0,0.2,0.05,0.29,0.14c0.09,0.09,0.13,0.19,0.13,0.29v0.19c0.06-0.05,0.16-0.13,0.29-0.23
			c0.02-0.02,0.05-0.03,0.08-0.03c0.51-0.34,1.12-0.51,1.83-0.51c0.85,0,1.54,0.22,2.08,0.67l-0.02-0.02
			c0.61,0.5,0.92,1.19,0.92,2.08V27.52z"/>
		<path class="st0" d="M139.79,25.83c0,0.8-0.3,1.39-0.9,1.79c-0.51,0.33-1.17,0.5-2,0.5c-2.14,0-3.21-0.98-3.21-2.93
			c0-0.11,0.04-0.21,0.12-0.29c0.08-0.08,0.18-0.12,0.29-0.12h0.31c0.28,0,0.42,0.14,0.42,0.42c0,1.2,0.69,1.8,2.08,1.8
			c0.46,0,0.84-0.08,1.15-0.23c0.4-0.21,0.61-0.51,0.61-0.92c0-0.48-0.39-0.81-1.18-1.01c-0.03,0-0.28-0.05-0.76-0.14
			c-0.12-0.02-0.32-0.05-0.57-0.09c-1.45-0.25-2.17-0.96-2.17-2.13c0-0.75,0.29-1.35,0.88-1.79c0.5-0.36,1.1-0.54,1.82-0.54
			c2.06,0,3.09,0.87,3.09,2.62c0,0.29-0.14,0.43-0.42,0.43h-0.33c-0.28,0-0.42-0.14-0.42-0.43c0-0.98-0.63-1.47-1.88-1.47
			c-0.4,0-0.76,0.09-1.07,0.28c-0.36,0.22-0.54,0.52-0.54,0.9c0,0.45,0.38,0.75,1.15,0.9h-0.05c0.06,0,0.12,0.01,0.17,0.03
			l-0.03-0.02c0.29,0.06,0.72,0.15,1.3,0.26C139.08,23.89,139.79,24.62,139.79,25.83z"/>
		<path class="st0" d="M144.26,21.28c0,0.11-0.04,0.22-0.12,0.31s-0.17,0.14-0.27,0.14h-0.82v5.77c0,0.1-0.04,0.2-0.12,0.29
			s-0.17,0.14-0.27,0.14h-0.22c-0.11,0-0.21-0.04-0.29-0.13s-0.12-0.19-0.12-0.3l-0.02-5.77h-0.81c-0.1,0-0.19-0.05-0.27-0.14
			s-0.12-0.2-0.12-0.31v-0.26c0-0.29,0.13-0.43,0.39-0.43h0.81v-1.74c0-0.29,0.13-0.43,0.39-0.43h0.25c0.1,0,0.19,0.05,0.27,0.14
			c0.08,0.09,0.12,0.19,0.12,0.29v1.74h0.82c0.26,0,0.39,0.14,0.39,0.43V21.28z"/>
		<path class="st0" d="M146.28,18.83l-0.06,0.12c-0.09,0.26-0.25,0.39-0.47,0.39c-0.31,0-0.47-0.16-0.47-0.47v-1.12
			c0.09-0.32,0.25-0.48,0.47-0.48c0.19,0,0.36,0.15,0.53,0.45V18.83z M146.28,27.51c0,0.1-0.05,0.2-0.14,0.29s-0.19,0.14-0.29,0.14
			h-0.14c-0.28,0-0.42-0.14-0.42-0.43v-6.95c0-0.29,0.14-0.43,0.42-0.43h0.14c0.11,0,0.21,0.04,0.3,0.13s0.13,0.19,0.13,0.3V27.51z"
			/>
		<path class="st0" d="M151.14,21.28c0,0.11-0.04,0.22-0.12,0.31s-0.17,0.14-0.27,0.14h-0.82v5.77c0,0.1-0.04,0.2-0.12,0.29
			s-0.17,0.14-0.27,0.14h-0.22c-0.11,0-0.21-0.04-0.29-0.13s-0.12-0.19-0.12-0.3l-0.02-5.77h-0.81c-0.1,0-0.19-0.05-0.27-0.14
			s-0.12-0.2-0.12-0.31v-0.26c0-0.29,0.13-0.43,0.39-0.43h0.81v-1.74c0-0.29,0.13-0.43,0.39-0.43h0.25c0.1,0,0.19,0.05,0.27,0.14
			c0.08,0.09,0.12,0.19,0.12,0.29v1.74h0.82c0.26,0,0.39,0.14,0.39,0.43V21.28z"/>
		<path class="st0" d="M158.65,27.52c0,0.11-0.04,0.21-0.12,0.29c-0.08,0.08-0.18,0.12-0.29,0.12h-0.28c-0.27,0-0.4-0.14-0.4-0.42
			V27.3c-0.58,0.52-1.31,0.78-2.2,0.78c-0.94,0-1.67-0.24-2.19-0.73c-0.55-0.5-0.82-1.21-0.82-2.14v-4.42
			c0-0.11,0.04-0.22,0.12-0.31c0.08-0.09,0.18-0.14,0.29-0.14h0.29c0.11,0,0.21,0.05,0.29,0.14c0.08,0.09,0.12,0.2,0.12,0.31v4.41
			c0,1.19,0.63,1.79,1.88,1.79c0.73,0,1.29-0.25,1.68-0.75c0.35-0.45,0.53-1.05,0.53-1.8v-3.65c0-0.3,0.13-0.45,0.4-0.45h0.28
			c0.11,0,0.21,0.05,0.29,0.14c0.08,0.09,0.12,0.2,0.12,0.31V27.52z"/>
		<path class="st0" d="M163.23,21.28c0,0.11-0.04,0.22-0.12,0.31s-0.17,0.14-0.27,0.14h-0.82v5.77c0,0.1-0.04,0.2-0.12,0.29
			s-0.17,0.14-0.27,0.14h-0.22c-0.11,0-0.21-0.04-0.29-0.13s-0.12-0.19-0.12-0.3l-0.02-5.77h-0.81c-0.1,0-0.19-0.05-0.27-0.14
			s-0.12-0.2-0.12-0.31v-0.26c0-0.29,0.13-0.43,0.39-0.43h0.81v-1.74c0-0.29,0.13-0.43,0.39-0.43h0.25c0.1,0,0.19,0.05,0.27,0.14
			c0.08,0.09,0.12,0.19,0.12,0.29v1.74h0.82c0.26,0,0.39,0.14,0.39,0.43V21.28z"/>
		<path class="st0" d="M171.6,24.12c0,1.19-0.34,2.15-1.02,2.87c-0.68,0.72-1.61,1.09-2.78,1.09c-1.16,0-2.09-0.37-2.78-1.12
			c-0.66-0.71-0.99-1.66-0.99-2.84c0-1.17,0.35-2.12,1.05-2.86c0.7-0.74,1.62-1.11,2.75-1.11c1.13,0,2.05,0.38,2.76,1.13
			C171.26,22,171.6,22.94,171.6,24.12z M170.46,24.12c0-0.87-0.23-1.56-0.68-2.07c-0.46-0.51-1.11-0.77-1.97-0.77
			c-0.84,0-1.49,0.26-1.95,0.77c-0.46,0.51-0.69,1.2-0.69,2.07c0,0.85,0.23,1.54,0.69,2.06c0.46,0.53,1.11,0.79,1.95,0.79
			c0.85,0,1.51-0.27,1.99-0.81C170.24,25.67,170.46,24.98,170.46,24.12z"/>
	</g>
	<g>
		<path class="st0" d="M134.05,40.14c0,0.11-0.05,0.21-0.14,0.29c-0.09,0.08-0.2,0.12-0.31,0.12h-0.29c-0.29,0-0.44-0.14-0.44-0.42
			v-4.47c0-1.17-0.55-1.75-1.65-1.75c-0.6,0-1.09,0.17-1.46,0.52c-0.37,0.35-0.56,0.82-0.56,1.42v4.28c0,0.28-0.15,0.42-0.45,0.42
			h-0.29c-0.29,0-0.43-0.14-0.43-0.42v-4.47c0-1.17-0.56-1.75-1.68-1.75c-0.64,0-1.15,0.25-1.52,0.75
			c-0.32,0.43-0.48,0.99-0.48,1.66v3.82c0,0.28-0.15,0.42-0.43,0.42h-0.29c-0.29,0-0.43-0.14-0.43-0.42v-6.75
			c0-0.29,0.14-0.43,0.43-0.43h0.29c0.11,0,0.21,0.04,0.3,0.13c0.09,0.09,0.13,0.19,0.13,0.3v0.16c0.05-0.03,0.12-0.08,0.22-0.16
			c0.52-0.39,1.16-0.59,1.94-0.59c1,0,1.74,0.36,2.22,1.07c0.54-0.71,1.37-1.07,2.48-1.07c1.89,0,2.84,0.91,2.84,2.73V40.14z"/>
		<path class="st0" d="M142.69,36.7c0,0.29-0.15,0.43-0.43,0.43l-5.82,0.02c0.12,1.63,0.97,2.44,2.53,2.44
			c0.54,0,1.01-0.13,1.43-0.39c0.46-0.29,0.77-0.67,0.93-1.13l-0.02,0.02c0.05-0.2,0.19-0.29,0.4-0.29h0.29
			c0.29,0,0.43,0.14,0.43,0.43v0.06c-0.36,1.2-1.15,1.97-2.36,2.31c-0.36,0.09-0.75,0.14-1.15,0.14c-1.22,0-2.14-0.38-2.76-1.15
			h0.02c-0.6-0.7-0.9-1.68-0.9-2.92c0-1.19,0.33-2.16,0.99-2.92c0.41-0.48,0.9-0.8,1.44-0.98c-0.01-0.02-0.02-0.03-0.02-0.04
			c0,0-0.01-0.02-0.02-0.04l0.02,0.05l-0.02-0.02c-0.05-0.09-0.08-0.19-0.08-0.29c0-0.17,0.06-0.3,0.17-0.42
			c0.01-0.01,0.03-0.03,0.06-0.05l1.47-1.68c0.11-0.13,0.26-0.2,0.43-0.2c0.14,0,0.31,0.07,0.5,0.2c0.06,0.08,0.09,0.2,0.09,0.36
			c0,0.1-0.06,0.25-0.19,0.45l-1.3,1.47H139c1.13,0,2.03,0.34,2.69,1.03c0.67,0.69,1,1.62,1,2.79V36.7z M141.47,36
			c-0.12-1.08-0.6-1.78-1.44-2.11c-0.31-0.12-0.65-0.19-1.02-0.19c-0.69,0-1.27,0.21-1.72,0.63s-0.73,0.98-0.83,1.67H141.47z"/>
		<path class="st0" d="M150.77,40.13c0,0.29-0.14,0.43-0.42,0.43h-0.29c-0.28,0-0.42-0.14-0.42-0.43v-0.45
			c-0.64,0.7-1.5,1.06-2.56,1.06c-1.14,0-2.05-0.43-2.75-1.29c-0.57-0.74-0.85-1.66-0.85-2.78c0-1.17,0.31-2.13,0.93-2.89
			c0.66-0.82,1.57-1.23,2.72-1.23c1.02,0,1.86,0.35,2.51,1.04v-3.14c0-0.28,0.14-0.42,0.42-0.42h0.29c0.28,0,0.42,0.14,0.42,0.42
			V40.13z M149.63,36.66c0-0.88-0.2-1.58-0.61-2.11c-0.44-0.57-1.1-0.85-1.96-0.85c-0.81,0-1.43,0.3-1.88,0.9
			c-0.39,0.54-0.59,1.23-0.59,2.06c0,0.83,0.19,1.51,0.57,2.03c0.02,0.01,0.04,0.03,0.06,0.05c0.43,0.56,1.04,0.84,1.83,0.84
			c0.8,0,1.43-0.29,1.91-0.88C149.41,38.16,149.63,37.48,149.63,36.66z"/>
		<path class="st0" d="M153.36,31.45l-0.06,0.12c-0.09,0.26-0.25,0.39-0.47,0.39c-0.31,0-0.47-0.16-0.47-0.47v-1.12
			c0.09-0.32,0.25-0.48,0.47-0.48c0.19,0,0.36,0.15,0.53,0.45V31.45z M153.36,40.13c0,0.1-0.05,0.2-0.14,0.29s-0.19,0.14-0.29,0.14
			h-0.14c-0.28,0-0.42-0.14-0.42-0.43v-6.95c0-0.29,0.14-0.43,0.42-0.43h0.14c0.11,0,0.21,0.04,0.3,0.13s0.13,0.19,0.13,0.3V40.13z"
			/>
		<path class="st0" d="M162.06,38.2c-0.16,0.81-0.58,1.45-1.29,1.94l-0.09,0.03c-0.57,0.35-1.24,0.53-2,0.53
			c-1.14,0-2.04-0.36-2.71-1.08c-0.67-0.72-1-1.63-1-2.74c0-1.21,0.34-2.2,1.03-2.96c0.69-0.77,1.63-1.15,2.83-1.15
			c0.74,0,1.39,0.18,1.92,0.54c0.64,0.42,1.04,0.99,1.2,1.69v0.09c0,0.19-0.06,0.31-0.17,0.37l-0.31,0.17
			c-0.05,0.03-0.12,0.05-0.2,0.05c-0.23,0-0.37-0.11-0.42-0.33c-0.22-0.97-0.9-1.46-2.03-1.46c-0.89,0-1.57,0.27-2.03,0.82
			c-0.46,0.54-0.69,1.26-0.69,2.17c0,0.83,0.22,1.48,0.65,1.96c0.46,0.51,1.09,0.76,1.91,0.76c0.54,0,1.01-0.13,1.41-0.37
			c0.44-0.27,0.72-0.65,0.82-1.15c0.09-0.3,0.24-0.45,0.45-0.45c0.06,0,0.12,0.02,0.19,0.05l-0.02-0.02l0.34,0.14L162.06,38.2z"/>
		<path class="st0" d="M170.6,36.74c0,1.19-0.34,2.15-1.02,2.87c-0.68,0.72-1.61,1.09-2.78,1.09c-1.16,0-2.09-0.37-2.78-1.12
			c-0.66-0.71-0.99-1.66-0.99-2.84c0-1.17,0.35-2.12,1.05-2.86c0.7-0.74,1.62-1.11,2.75-1.11c1.13,0,2.05,0.38,2.76,1.13
			C170.27,34.62,170.6,35.56,170.6,36.74z M169.47,36.74c0-0.87-0.23-1.56-0.68-2.07c-0.46-0.51-1.11-0.77-1.97-0.77
			c-0.84,0-1.49,0.26-1.95,0.77c-0.46,0.51-0.69,1.2-0.69,2.07c0,0.85,0.23,1.54,0.69,2.06c0.46,0.53,1.11,0.79,1.95,0.79
			c0.85,0,1.51-0.27,1.99-0.81C169.25,38.28,169.47,37.6,169.47,36.74z"/>
	</g>
	<g>
		<path class="st0" d="M130.03,52.75c0,0.29-0.14,0.43-0.42,0.43h-0.29c-0.28,0-0.42-0.14-0.42-0.43V52.3
			c-0.64,0.7-1.5,1.06-2.56,1.06c-1.14,0-2.05-0.43-2.75-1.29c-0.57-0.74-0.85-1.66-0.85-2.78c0-1.17,0.31-2.13,0.93-2.89
			c0.66-0.82,1.57-1.23,2.72-1.23c1.02,0,1.86,0.35,2.51,1.04v-3.14c0-0.28,0.14-0.42,0.42-0.42h0.29c0.28,0,0.42,0.14,0.42,0.42
			V52.75z M128.89,49.28c0-0.88-0.2-1.58-0.61-2.11c-0.44-0.57-1.1-0.85-1.96-0.85c-0.81,0-1.43,0.3-1.88,0.9
			c-0.39,0.54-0.59,1.23-0.59,2.06c0,0.83,0.19,1.51,0.57,2.03c0.02,0.01,0.04,0.03,0.06,0.05c0.43,0.56,1.04,0.84,1.83,0.84
			c0.8,0,1.43-0.29,1.91-0.88C128.68,50.78,128.89,50.1,128.89,49.28z"/>
		<path class="st0" d="M138.77,49.41c0,0.29-0.15,0.43-0.43,0.43l-5.82,0.02c0.12,1.57,0.97,2.36,2.53,2.36
			c0.52,0,0.99-0.13,1.41-0.37c0.47-0.26,0.78-0.62,0.95-1.09l-0.02,0.03c0.05-0.22,0.19-0.33,0.4-0.33h0.29
			c0.29,0,0.43,0.15,0.43,0.43v0.06c-0.49,1.57-1.66,2.36-3.51,2.36c-1.21,0-2.12-0.36-2.73-1.07c-0.61-0.71-0.92-1.67-0.92-2.87
			c0-1.15,0.33-2.09,0.99-2.83c0.7-0.78,1.61-1.16,2.72-1.16c1.12,0,2.01,0.34,2.69,1.01c0.67,0.67,1.01,1.57,1.01,2.7V49.41z
			 M137.54,48.74c-0.08-0.61-0.3-1.11-0.65-1.51c-0.42-0.48-1.03-0.71-1.82-0.71c-0.69,0-1.27,0.2-1.72,0.6s-0.73,0.94-0.83,1.62
			H137.54z"/>
	</g>
	<g>
		<path class="st0" d="M144.01,52.68c0,0.1-0.05,0.2-0.14,0.29c-0.09,0.09-0.19,0.13-0.29,0.13h-0.14c-0.29,0-0.43-0.14-0.43-0.42
			v-9.38c0-0.29,0.14-0.43,0.43-0.43h0.14c0.1,0,0.2,0.05,0.29,0.14s0.14,0.19,0.14,0.29V52.68z"/>
		<path class="st0" d="M152.69,52.76c0,0.28-0.14,0.42-0.42,0.42h-0.29c-0.28,0-0.42-0.14-0.42-0.42v-0.45
			c-0.63,0.67-1.48,1.01-2.56,1.01c-1.14,0-2.03-0.38-2.69-1.15c-0.61-0.71-0.92-1.65-0.92-2.79s0.32-2.08,0.95-2.81
			c0.69-0.79,1.59-1.18,2.7-1.18c1.05,0,1.88,0.34,2.51,1.01v-0.54c0-0.11,0.04-0.21,0.12-0.3c0.08-0.09,0.18-0.13,0.29-0.13h0.29
			c0.28,0,0.42,0.14,0.42,0.43V52.76z M151.56,49.38c0-0.88-0.21-1.56-0.62-2.05c-0.43-0.54-1.08-0.81-1.94-0.81
			c-0.79,0-1.4,0.29-1.85,0.85c-0.41,0.53-0.62,1.2-0.62,2c0,0.82,0.19,1.47,0.56,1.97c0.02,0.01,0.05,0.03,0.08,0.06
			c0.43,0.54,1.04,0.81,1.83,0.81c0.79,0,1.41-0.27,1.87-0.8C151.33,50.89,151.56,50.21,151.56,49.38z"/>
	</g>
	<g>
		<path class="st0" d="M168.69,52.76c0,0.11-0.05,0.21-0.14,0.29c-0.09,0.08-0.2,0.12-0.31,0.12h-0.29c-0.29,0-0.44-0.14-0.44-0.42
			v-4.47c0-1.17-0.55-1.75-1.65-1.75c-0.6,0-1.09,0.17-1.46,0.52c-0.37,0.35-0.56,0.82-0.56,1.42v4.28c0,0.28-0.15,0.42-0.45,0.42
			h-0.29c-0.29,0-0.43-0.14-0.43-0.42v-4.47c0-1.17-0.56-1.75-1.68-1.75c-0.64,0-1.15,0.25-1.52,0.75
			c-0.32,0.43-0.48,0.99-0.48,1.66v3.82c0,0.28-0.15,0.42-0.43,0.42h-0.29c-0.29,0-0.43-0.14-0.43-0.42v-6.75
			c0-0.29,0.14-0.43,0.43-0.43h0.29c0.11,0,0.21,0.04,0.3,0.13c0.09,0.09,0.13,0.19,0.13,0.3v0.16c0.05-0.03,0.12-0.08,0.22-0.16
			c0.52-0.39,1.16-0.59,1.94-0.59c1,0,1.74,0.36,2.22,1.07c0.54-0.71,1.37-1.07,2.48-1.07c1.89,0,2.84,0.91,2.84,2.73V52.76z"/>
		<path class="st0" d="M176.67,52.76c0,0.11-0.04,0.21-0.12,0.29c-0.08,0.08-0.18,0.12-0.29,0.12h-0.28c-0.27,0-0.4-0.14-0.4-0.42
			v-0.22c-0.58,0.52-1.31,0.78-2.2,0.78c-0.94,0-1.67-0.24-2.19-0.73c-0.55-0.5-0.82-1.21-0.82-2.14v-4.42
			c0-0.11,0.04-0.22,0.12-0.31c0.08-0.09,0.18-0.14,0.29-0.14h0.29c0.11,0,0.21,0.05,0.29,0.14c0.08,0.09,0.12,0.2,0.12,0.31v4.41
			c0,1.19,0.63,1.79,1.88,1.79c0.73,0,1.29-0.25,1.68-0.75c0.35-0.45,0.53-1.05,0.53-1.8v-3.65c0-0.3,0.13-0.45,0.4-0.45h0.28
			c0.11,0,0.21,0.05,0.29,0.14c0.08,0.09,0.12,0.2,0.12,0.31V52.76z"/>
		<path class="st0" d="M179.28,52.5c0,2.18-1.04,3.27-3.1,3.27c-0.27,0-0.4-0.14-0.4-0.43v-0.26c0-0.29,0.13-0.43,0.4-0.43
			c1.38,0,2.06-0.72,2.06-2.16v-6.81c0-0.3,0.13-0.45,0.39-0.45h0.25c0.1,0,0.2,0.05,0.28,0.14c0.08,0.09,0.12,0.2,0.12,0.31V52.5z
			 M179.29,43.93l-0.03,0.17c-0.18,0.23-0.34,0.34-0.5,0.34c-0.22,0-0.38-0.15-0.5-0.45v-1.2c0.13-0.31,0.3-0.46,0.5-0.46
			c0.16,0,0.33,0.13,0.53,0.4V43.93z"/>
		<path class="st0" d="M187.91,49.41c0,0.29-0.15,0.43-0.43,0.43l-5.82,0.02c0.12,1.57,0.97,2.36,2.53,2.36
			c0.52,0,0.99-0.13,1.41-0.37c0.47-0.26,0.78-0.62,0.95-1.09l-0.02,0.03c0.05-0.22,0.19-0.33,0.4-0.33h0.29
			c0.29,0,0.43,0.15,0.43,0.43v0.06c-0.49,1.57-1.66,2.36-3.51,2.36c-1.21,0-2.12-0.36-2.73-1.07c-0.61-0.71-0.92-1.67-0.92-2.87
			c0-1.15,0.33-2.09,0.99-2.83c0.7-0.78,1.61-1.16,2.72-1.16c1.12,0,2.01,0.34,2.69,1.01c0.67,0.67,1.01,1.57,1.01,2.7V49.41z
			 M186.68,48.74c-0.08-0.61-0.3-1.11-0.65-1.51c-0.42-0.48-1.03-0.71-1.82-0.71c-0.69,0-1.27,0.2-1.72,0.6s-0.73,0.94-0.83,1.62
			H186.68z"/>
		<path class="st0" d="M192.61,46.2l-0.23,0.26c-0.04,0.05-0.09,0.08-0.15,0.08c-0.75,0-1.31,0.36-1.69,1.09
			c-0.33,0.62-0.5,1.44-0.5,2.47v2.67c0,0.1-0.04,0.2-0.12,0.29c-0.08,0.09-0.18,0.13-0.28,0.13h-0.25c-0.27,0-0.4-0.14-0.4-0.42
			v-6.75c0-0.1,0.04-0.2,0.12-0.29c0.08-0.09,0.18-0.14,0.28-0.14h0.25c0.1,0,0.2,0.05,0.28,0.14c0.08,0.09,0.12,0.19,0.12,0.29
			v0.37l0.11-0.11c0.57-0.57,1.26-0.85,2.08-0.85c0.26,0,0.39,0.14,0.39,0.42V46.2z"/>
	</g>
</g>
</svg>
