<svg id="Capa_1" data-name="Capa 1" xmlns="http://www.w3.org/2000/svg" viewBox="0 0 109.95 53.99"><defs><style>.cls-1{fill:#fff;}</style></defs><title>imm-logo-white-short-v2</title><path class="cls-1" d="M14.45,15a13,13,0,0,1-7.29-3.65,13.37,13.37,0,0,1-1.06-1.2A14.65,14.65,0,0,1,3.53,4.63,10.13,10.13,0,0,0,4,16a12.27,12.27,0,0,0,1,1.1,10,10,0,0,0,5.41,2.8c.56-.44,1.27-1.08,1.7-1.5A12.12,12.12,0,0,0,14.45,15" transform="translate(-2 -0.01)"/><path class="cls-1" d="M21.44,6.4a14.78,14.78,0,0,0-5.89-1.09A13.06,13.06,0,0,1,15.21,15a12.82,12.82,0,0,1-2.69,3.91c-.34.34-.85.8-1.34,1.21A10.08,10.08,0,0,0,21.44,6.4" transform="translate(-2 -0.01)"/><path class="cls-1" d="M7.41,8.41a12.84,12.84,0,0,1,7.72-3.72,14.35,14.35,0,0,1,6,.91A10,10,0,0,0,19.27,3,10.13,10.13,0,0,0,5,3a9.51,9.51,0,0,0-.89,1A14,14,0,0,0,6.43,9.51a11.47,11.47,0,0,1,1-1.1" transform="translate(-2 -0.01)"/><path class="cls-1" d="M64.44,28.41v-.05a12.94,12.94,0,0,0-1.54-4.3A13.54,13.54,0,0,0,51.1,17.23,13,13,0,0,0,45,18.7a15,15,0,0,0-1.45.86l-.33.23-.33-.23a15,15,0,0,0-1.45-.86,13.14,13.14,0,0,0-6.1-1.47,13.49,13.49,0,0,0-4.78.86c-.3.11-.59.24-.88.37v-.9h-7.8V54h8.31V30.74a5.06,5.06,0,0,1,5.15-5.15,5.17,5.17,0,0,1,2,.37,4.74,4.74,0,0,1,1.56,1l.18.18V54h8.36V27.11l.19-.18a4.74,4.74,0,0,1,1.5-1,5.2,5.2,0,0,1,2-.37,4.85,4.85,0,0,1,3.67,1.48,4.91,4.91,0,0,1,1.48,3.45V53.93h8.31V29.37a2.84,2.84,0,0,0-.11-1" transform="translate(-2 -0.01)"/><path class="cls-1" d="M111.82,28.41v-.05a12.94,12.94,0,0,0-1.54-4.3,13.37,13.37,0,0,0-3-3.59,13.63,13.63,0,0,0-4-2.38,13.49,13.49,0,0,0-4.78-.86,13,13,0,0,0-6.1,1.47,15,15,0,0,0-1.45.86l-.33.23-.33-.23a15,15,0,0,0-1.45-.86,13.14,13.14,0,0,0-6.1-1.47,13.49,13.49,0,0,0-4.78.86c-.3.11-.59.24-.88.37v-.9h-7.8V54h8.31V30.74a5.06,5.06,0,0,1,5.15-5.15,5.2,5.2,0,0,1,2,.37,4.88,4.88,0,0,1,1.57,1l.18.18V54h8.36V27.11l.19-.17a4.74,4.74,0,0,1,1.5-1,5.22,5.22,0,0,1,2-.37,5.06,5.06,0,0,1,5.15,4.93V53.94H112V29.37a3.47,3.47,0,0,0-.13-1" transform="translate(-2 -0.01)"/><path class="cls-1" d="M12,22.55a10.62,10.62,0,0,1-4.18-.85V54h8.31V21.72a10.47,10.47,0,0,1-4.13.83" transform="translate(-2 -0.01)"/></svg>