<?xml version="1.0" encoding="utf-8"?>
<!-- Generator: Adobe Illustrator 24.1.1, SVG Export Plug-In . SVG Version: 6.00 Build 0)  -->
<svg version="1.1" id="Capa_1" xmlns="http://www.w3.org/2000/svg" xmlns:xlink="http://www.w3.org/1999/xlink" x="0px" y="0px"
	 viewBox="0 0 112.61 55.77" style="enable-background:new 0 0 10.61 55.77;" xml:space="preserve">
<style type="text/css">
	.st0{fill:#FFFFFF;}
</style>
<g>
	<path class="st0" d="M12.45,15.03c-2.75-0.4-5.32-1.68-7.29-3.65c-0.38-0.38-0.73-0.78-1.06-1.2C2.92,8.66,1.97,6.6,1.53,4.63
		C-0.65,8.13-0.5,12.67,2,16.02c0.29,0.38,0.61,0.75,0.95,1.1c1.53,1.53,3.43,2.46,5.41,2.8c0.56-0.44,1.27-1.08,1.7-1.5
		C11.06,17.43,11.85,16.28,12.45,15.03"/>
	<path class="st0" d="M19.44,6.4c-2.06-0.8-4.22-1.19-5.89-1.09c1.12,3.13,1.01,6.62-0.34,9.66c-0.65,1.46-1.55,2.78-2.69,3.91
		c-0.34,0.34-0.85,0.8-1.34,1.21c2.86,0.24,5.8-0.72,7.99-2.91c0.99-0.99,1.73-2.13,2.22-3.35C20.36,11.46,20.37,8.79,19.44,6.4"/>
	<path class="st0" d="M5.41,8.41c2.1-2.1,4.77-3.39,7.72-3.72c1.67-0.19,3.89,0.15,6.03,0.91c-0.47-0.95-1.1-1.84-1.89-2.63
		c-2.13-2.13-4.97-3.11-7.76-2.94C7.12,0.16,4.79,1.14,2.97,2.96C2.64,3.29,2.35,3.63,2.08,3.99C2.42,5.9,3.3,7.96,4.43,9.51
		C4.74,9.12,5.06,8.75,5.41,8.41"/>
	<path class="st0" d="M62.44,28.41l-0.01-0.05c-0.26-1.53-0.78-2.98-1.54-4.3c-0.79-1.37-1.78-2.58-2.97-3.59
		c-1.18-1.01-2.54-1.81-4.04-2.38c-1.51-0.57-3.12-0.86-4.78-0.86c-2.17,0-4.23,0.49-6.1,1.47c-0.5,0.26-0.99,0.55-1.45,0.86
		l-0.33,0.23l-0.33-0.23c-0.46-0.31-0.95-0.6-1.45-0.86c-1.87-0.97-3.93-1.47-6.1-1.47c-1.66,0-3.27,0.29-4.78,0.86
		c-0.3,0.11-0.59,0.24-0.88,0.37v-0.9h-7.8v11.82v16.65V54h8.31V30.74c0-1.5,0.47-2.67,1.48-3.67c1.01-1.01,2.17-1.48,3.67-1.48
		c0.72,0,1.36,0.12,1.98,0.37c0.57,0.23,1.08,0.57,1.56,1.04l0.18,0.18V54h8.36V27.11l0.19-0.18c0.46-0.44,0.96-0.76,1.5-0.98
		c0.62-0.25,1.27-0.37,1.98-0.37c1.5,0,2.67,0.47,3.67,1.48c0.95,0.95,1.42,2.05,1.48,3.45v0.02v23.4h8.31V29.37
		C62.57,29.05,62.53,28.72,62.44,28.41"/>
	<path class="st0" d="M109.82,28.41l-0.01-0.05c-0.26-1.53-0.78-2.98-1.54-4.3c-0.78-1.37-1.78-2.58-2.97-3.59
		c-1.18-1.01-2.54-1.81-4.04-2.38c-1.51-0.57-3.12-0.86-4.78-0.86c-2.17,0-4.23,0.49-6.1,1.47c-0.5,0.26-0.99,0.55-1.45,0.86
		l-0.33,0.23l-0.33-0.23c-0.46-0.31-0.95-0.6-1.45-0.86c-1.87-0.97-3.93-1.47-6.1-1.47c-1.66,0-3.27,0.29-4.78,0.86
		c-0.3,0.11-0.59,0.24-0.88,0.37v-0.9h-7.8v11.82v16.65V54h8.31V30.74c0-1.5,0.47-2.67,1.48-3.67c1.01-1.01,2.17-1.48,3.67-1.48
		c0.71,0,1.36,0.12,1.98,0.37c0.57,0.23,1.08,0.57,1.57,1.04l0.18,0.18V54h8.36V27.11L93,26.94c0.46-0.44,0.96-0.76,1.5-0.98
		c0.62-0.25,1.27-0.37,1.99-0.37c1.5,0,2.66,0.47,3.67,1.48c0.95,0.95,1.42,2.05,1.48,3.45l0,0.02v23.4h8.31V29.37
		C109.95,29.05,109.91,28.72,109.82,28.41"/>
	<path class="st0" d="M10.04,22.55c-1.48,0-2.89-0.3-4.18-0.85V54h8.31V21.72C12.91,22.26,11.51,22.55,10.04,22.55"/>	
</g>
</svg>
