<svg id="Capa_1" data-name="Capa 1" xmlns="http://www.w3.org/2000/svg" viewBox="0 0 300 88.27"><defs><style>.cls-1{fill:#f173ac;}.cls-2{fill:#007cc3;}.cls-3{fill:#f4c6de;}.cls-4{fill:#f5a4c7;}</style></defs><title>logo-imm</title><path class="cls-1" d="M615.86,862.08a.59.59,0,0,1-.66.68h-.45a.59.59,0,0,1-.66-.68v-.7a5.08,5.08,0,0,1-4,1.64,5.2,5.2,0,0,1-4.27-2,7.66,7.66,0,0,1,.12-8.8,5.58,5.58,0,0,1,8.12-.29v-4.87a.58.58,0,0,1,.66-.65h.45a.58.58,0,0,1,.66.65Zm-1.77-5.37a5.24,5.24,0,0,0-.94-3.28,3.62,3.62,0,0,0-3-1.33,3.42,3.42,0,0,0-2.92,1.4,5.33,5.33,0,0,0-.92,3.21,5.23,5.23,0,0,0,.9,3.16.28.28,0,0,1,.09.07,3.41,3.41,0,0,0,2.85,1.3,3.63,3.63,0,0,0,3-1.37A4.85,4.85,0,0,0,614.09,856.71Z" transform="translate(-413.06 -778.52)"/><path class="cls-1" d="M629.43,856.9a.6.6,0,0,1-.68.68l-9,0q.28,3.66,3.93,3.66a4.32,4.32,0,0,0,2.2-.57,3.14,3.14,0,0,0,1.47-1.69l0,0a.59.59,0,0,1,.63-.51h.46a.59.59,0,0,1,.67.67v.1q-1.12,3.68-5.45,3.67a5.27,5.27,0,0,1-4.24-1.67,6.61,6.61,0,0,1-1.42-4.46,6.32,6.32,0,0,1,1.54-4.39,5.45,5.45,0,0,1,4.22-1.8,5.39,5.39,0,0,1,5.74,5.76Zm-1.91-1a4.25,4.25,0,0,0-1-2.33,3.58,3.58,0,0,0-2.82-1.11,3.88,3.88,0,0,0-2.66.92,4,4,0,0,0-1.29,2.52Z" transform="translate(-413.06 -778.52)"/><path class="cls-1" d="M637.58,862a.61.61,0,0,1-.22.44.65.65,0,0,1-.46.21h-.21c-.45,0-.68-.22-.68-.65V847.43a.6.6,0,0,1,.68-.68h.21a.63.63,0,0,1,.46.22.67.67,0,0,1,.22.46Z" transform="translate(-413.06 -778.52)"/><path class="cls-1" d="M651.05,862.11a.57.57,0,0,1-.65.65H650a.58.58,0,0,1-.66-.65v-.7a5.78,5.78,0,0,1-8.14-.22,7.25,7.25,0,0,1,0-8.7,5.35,5.35,0,0,1,4.2-1.83,5.11,5.11,0,0,1,3.9,1.56v-.84a.67.67,0,0,1,.2-.47.59.59,0,0,1,.46-.2h.45c.44,0,.65.22.65.67Zm-1.76-5.26a4.79,4.79,0,0,0-1-3.18,3.62,3.62,0,0,0-3-1.25,3.43,3.43,0,0,0-2.87,1.32,4.86,4.86,0,0,0-1,3.11,5,5,0,0,0,.87,3.06l.12.1a3.44,3.44,0,0,0,2.85,1.25,3.62,3.62,0,0,0,2.9-1.24A4.63,4.63,0,0,0,649.29,856.85Z" transform="translate(-413.06 -778.52)"/><path class="cls-1" d="M675.91,862.11a.58.58,0,0,1-.22.46.68.68,0,0,1-.48.19h-.46a.58.58,0,0,1-.67-.65v-6.94c0-1.82-.85-2.73-2.56-2.73a3.16,3.16,0,0,0-2.26.81,2.85,2.85,0,0,0-.87,2.2v6.66c0,.43-.24.65-.7.65h-.46a.58.58,0,0,1-.67-.65v-6.94q0-2.73-2.61-2.73a2.81,2.81,0,0,0-2.36,1.16,4.2,4.2,0,0,0-.75,2.58v5.93a.58.58,0,0,1-.67.65h-.46c-.45,0-.68-.22-.68-.65V851.62a.6.6,0,0,1,.68-.67h.46a.64.64,0,0,1,.47.2.67.67,0,0,1,.2.47v.24l.34-.24a4.83,4.83,0,0,1,3-.91,3.85,3.85,0,0,1,3.45,1.66,4.52,4.52,0,0,1,3.86-1.66q4.41,0,4.41,4.24Z" transform="translate(-413.06 -778.52)"/><path class="cls-1" d="M688.3,862.11a.65.65,0,0,1-.65.65h-.43a.57.57,0,0,1-.63-.65v-.34a5,5,0,0,1-3.42,1.21,4.74,4.74,0,0,1-3.4-1.14,4.22,4.22,0,0,1-1.28-3.32v-6.88a.72.72,0,0,1,.19-.48.6.6,0,0,1,.46-.21h.46a.62.62,0,0,1,.46.21.77.77,0,0,1,.19.48v6.85c0,1.85,1,2.77,2.92,2.77a3.07,3.07,0,0,0,2.6-1.15,4.38,4.38,0,0,0,.82-2.8v-5.67q0-.69.63-.69h.43a.6.6,0,0,1,.46.21.72.72,0,0,1,.19.48Z" transform="translate(-413.06 -778.52)"/><path class="cls-1" d="M692.35,861.7q0,5.09-4.82,5.09c-.42,0-.63-.23-.63-.68v-.41c0-.45.21-.67.63-.67q3.21,0,3.21-3.36V851.09c0-.47.2-.7.6-.7h.38a.56.56,0,0,1,.44.22.68.68,0,0,1,.19.48Zm0-13.31,0,.27c-.28.35-.53.53-.77.53s-.6-.24-.78-.7v-1.86q.32-.72.78-.72c.24,0,.51.21.82.62Z" transform="translate(-413.06 -778.52)"/><path class="cls-1" d="M705.76,856.9a.6.6,0,0,1-.68.68l-9,0q.29,3.66,3.93,3.66a4.31,4.31,0,0,0,2.19-.57,3.06,3.06,0,0,0,1.47-1.69l0,0a.59.59,0,0,1,.63-.51h.45a.6.6,0,0,1,.68.67v.1c-.76,2.45-2.57,3.67-5.45,3.67a5.27,5.27,0,0,1-4.24-1.67,6.61,6.61,0,0,1-1.42-4.46,6.32,6.32,0,0,1,1.54-4.39,5.45,5.45,0,0,1,4.22-1.8,5.39,5.39,0,0,1,5.74,5.76Zm-1.91-1a4.32,4.32,0,0,0-1-2.33,3.58,3.58,0,0,0-2.82-1.11,3.92,3.92,0,0,0-2.67.92,4,4,0,0,0-1.29,2.52Z" transform="translate(-413.06 -778.52)"/><path class="cls-1" d="M713.06,851.91l-.36.41a.31.31,0,0,1-.24.12,2.82,2.82,0,0,0-2.63,1.69,8.19,8.19,0,0,0-.77,3.83v4.15a.65.65,0,0,1-.19.44.59.59,0,0,1-.44.21h-.38a.57.57,0,0,1-.63-.65V851.62a.69.69,0,0,1,.19-.46.59.59,0,0,1,.44-.21h.38a.59.59,0,0,1,.44.21.74.74,0,0,1,.19.46v.58l.17-.17a4.4,4.4,0,0,1,3.23-1.32c.4,0,.6.21.6.65Z" transform="translate(-413.06 -778.52)"/><path class="cls-2" d="M606.43,809.41l-.1.19a.75.75,0,0,1-.72.6.64.64,0,0,1-.72-.72v-1.74c.14-.49.38-.74.72-.74s.56.23.82.69Zm0,13.47a.77.77,0,0,1-.68.68h-.21c-.44,0-.65-.23-.65-.68v-10.8c0-.45.21-.67.65-.67h.21a.7.7,0,0,1,.68.67Z" transform="translate(-413.06 -778.52)"/><path class="cls-2" d="M619.25,822.91a.63.63,0,0,1-.19.46.66.66,0,0,1-.46.19h-.43a.57.57,0,0,1-.63-.65V816a2.55,2.55,0,0,0-.79-2,3.08,3.08,0,0,0-2.12-.7,3.18,3.18,0,0,0-2.52,1,3.94,3.94,0,0,0-.91,2.72v5.93a.63.63,0,0,1-.19.46.66.66,0,0,1-.46.19h-.46a.58.58,0,0,1-.65-.65V812.42a.7.7,0,0,1,.19-.47.61.61,0,0,1,.46-.2h.46a.63.63,0,0,1,.45.21.7.7,0,0,1,.2.46v.29l.46-.36a.17.17,0,0,1,.12-.05,5,5,0,0,1,2.85-.8,4.93,4.93,0,0,1,3.23,1l0,0a3.93,3.93,0,0,1,1.42,3.23Z" transform="translate(-413.06 -778.52)"/><path class="cls-2" d="M631,820.28a3.08,3.08,0,0,1-1.39,2.77,5.58,5.58,0,0,1-3.11.77q-5,0-5-4.55a.65.65,0,0,1,.65-.65h.48a.57.57,0,0,1,.65.65q0,2.79,3.23,2.79a4,4,0,0,0,1.78-.36,1.52,1.52,0,0,0,.94-1.42c0-.74-.61-1.26-1.83-1.57l-1.18-.21-.89-.15c-2.25-.38-3.38-1.49-3.38-3.3a3.25,3.25,0,0,1,1.38-2.77,4.6,4.6,0,0,1,2.82-.85q4.8,0,4.8,4.08a.58.58,0,0,1-.65.67h-.51a.58.58,0,0,1-.65-.67c0-1.53-1-2.29-2.92-2.29a3.14,3.14,0,0,0-1.66.43,1.55,1.55,0,0,0-.85,1.4c0,.69.6,1.16,1.79,1.4h-.07a.75.75,0,0,1,.26,0l-.05,0,2,.41C629.89,817.27,631,818.4,631,820.28Z" transform="translate(-413.06 -778.52)"/><path class="cls-2" d="M637.91,813.22a.76.76,0,0,1-.18.48.54.54,0,0,1-.42.21H636v9a.7.7,0,0,1-.18.46.52.52,0,0,1-.42.22h-.34a.56.56,0,0,1-.44-.21.67.67,0,0,1-.18-.47l0-9h-1.25a.54.54,0,0,1-.42-.21.76.76,0,0,1-.18-.48v-.41c0-.45.2-.68.6-.68h1.25v-2.7c0-.45.2-.67.6-.67h.39a.54.54,0,0,1,.42.21.72.72,0,0,1,.18.46v2.7h1.28c.4,0,.6.23.6.68Z" transform="translate(-413.06 -778.52)"/><path class="cls-2" d="M641.05,809.41l-.1.19a.75.75,0,0,1-.72.6.64.64,0,0,1-.73-.72v-1.74c.15-.49.39-.74.73-.74s.56.23.82.69Zm0,13.47a.77.77,0,0,1-.68.68h-.21a.59.59,0,0,1-.66-.68v-10.8a.59.59,0,0,1,.66-.67h.21a.7.7,0,0,1,.68.67Z" transform="translate(-413.06 -778.52)"/><path class="cls-2" d="M648.59,813.22a.76.76,0,0,1-.18.48.54.54,0,0,1-.42.21h-1.28v9a.7.7,0,0,1-.18.46.52.52,0,0,1-.42.22h-.34a.56.56,0,0,1-.44-.21.67.67,0,0,1-.18-.47l0-9h-1.25a.54.54,0,0,1-.42-.21.76.76,0,0,1-.18-.48v-.41c0-.45.2-.68.6-.68h1.25v-2.7c0-.45.2-.67.6-.67h.39a.54.54,0,0,1,.42.21.72.72,0,0,1,.18.46v2.7H648c.4,0,.6.23.6.68Z" transform="translate(-413.06 -778.52)"/><path class="cls-2" d="M660.24,822.91a.65.65,0,0,1-.65.65h-.44c-.41,0-.62-.22-.62-.65v-.34a5,5,0,0,1-3.43,1.21,4.77,4.77,0,0,1-3.4-1.14,4.25,4.25,0,0,1-1.27-3.32v-6.88a.72.72,0,0,1,.19-.48.6.6,0,0,1,.46-.21h.45a.6.6,0,0,1,.46.21.73.73,0,0,1,.2.48v6.85c0,1.85,1,2.77,2.91,2.77a3.11,3.11,0,0,0,2.61-1.15,4.44,4.44,0,0,0,.82-2.8v-5.67c0-.46.21-.69.62-.69h.44a.62.62,0,0,1,.46.21.77.77,0,0,1,.19.48Z" transform="translate(-413.06 -778.52)"/><path class="cls-2" d="M667.35,813.22a.76.76,0,0,1-.18.48.54.54,0,0,1-.42.21h-1.28v9a.7.7,0,0,1-.18.46.52.52,0,0,1-.42.22h-.34a.57.57,0,0,1-.45-.21.67.67,0,0,1-.18-.47l0-9h-1.26a.54.54,0,0,1-.42-.21.76.76,0,0,1-.18-.48v-.41c0-.45.2-.68.6-.68h1.26v-2.7c0-.45.2-.67.6-.67h.39a.54.54,0,0,1,.42.21.72.72,0,0,1,.18.46v2.7h1.28c.4,0,.6.23.6.68Z" transform="translate(-413.06 -778.52)"/><path class="cls-2" d="M680.37,817.63a6.24,6.24,0,0,1-1.59,4.46,5.67,5.67,0,0,1-4.32,1.69,5.58,5.58,0,0,1-4.31-1.74,7,7,0,0,1,.08-8.86,6.15,6.15,0,0,1,8.57,0A6.13,6.13,0,0,1,680.37,817.63Zm-1.76,0a4.65,4.65,0,0,0-1.06-3.22,4.49,4.49,0,0,0-6.09,0,4.65,4.65,0,0,0-1.07,3.22,4.7,4.7,0,0,0,1.07,3.2,3.81,3.81,0,0,0,3,1.23,3.89,3.89,0,0,0,3.08-1.25A4.67,4.67,0,0,0,678.61,817.63Z" transform="translate(-413.06 -778.52)"/><path class="cls-2" d="M622.1,842.51a.58.58,0,0,1-.22.46.73.73,0,0,1-.48.19h-.46a.58.58,0,0,1-.67-.65v-6.94c0-1.82-.86-2.73-2.56-2.73a3.2,3.2,0,0,0-2.27.81,2.88,2.88,0,0,0-.86,2.2v6.66c0,.43-.24.65-.7.65h-.46c-.45,0-.68-.22-.68-.65v-6.94c0-1.82-.86-2.73-2.6-2.73a2.79,2.79,0,0,0-2.36,1.16,4.2,4.2,0,0,0-.75,2.58v5.93a.58.58,0,0,1-.67.65h-.46c-.45,0-.68-.22-.68-.65V832a.6.6,0,0,1,.68-.67h.46a.64.64,0,0,1,.47.2.67.67,0,0,1,.2.47v.24l.34-.24a4.84,4.84,0,0,1,3-.92,3.86,3.86,0,0,1,3.45,1.67,4.52,4.52,0,0,1,3.86-1.67q4.41,0,4.41,4.25Z" transform="translate(-413.06 -778.52)"/><path class="cls-2" d="M635.53,837.16a.6.6,0,0,1-.68.67l-9,0q.29,3.78,3.93,3.78A4.1,4.1,0,0,0,632,841a3.44,3.44,0,0,0,1.45-1.76l0,0a.59.59,0,0,1,.63-.46h.46a.6.6,0,0,1,.67.68v.09a5,5,0,0,1-3.66,3.6,7.44,7.44,0,0,1-1.79.21,5.21,5.21,0,0,1-4.29-1.78h0a6.71,6.71,0,0,1-1.4-4.53,6.6,6.6,0,0,1,1.54-4.53,4.91,4.91,0,0,1,2.24-1.52.14.14,0,0,0,0-.06l0-.06,0,.07,0,0a.93.93,0,0,1,.14-1.1l.1-.08,2.29-2.6a.84.84,0,0,1,.68-.31,1.37,1.37,0,0,1,.77.31,1,1,0,0,1,.14.55,1.42,1.42,0,0,1-.29.7l-2,2.29h.24a5.54,5.54,0,0,1,4.18,1.61,5.93,5.93,0,0,1,1.56,4.32Zm-1.91-1.09a3.64,3.64,0,0,0-2.24-3.28,4.29,4.29,0,0,0-1.59-.29,3.73,3.73,0,0,0-2.66,1,4.26,4.26,0,0,0-1.29,2.59Z" transform="translate(-413.06 -778.52)"/><path class="cls-2" d="M648,842.48c0,.45-.22.68-.65.68h-.46c-.43,0-.65-.23-.65-.68v-.7a5.1,5.1,0,0,1-4,1.64,5.2,5.2,0,0,1-4.27-2,7.71,7.71,0,0,1,.12-8.8,5.6,5.6,0,0,1,8.13-.29v-4.87a.58.58,0,0,1,.65-.65h.46a.58.58,0,0,1,.65.65Zm-1.76-5.37a5.24,5.24,0,0,0-.94-3.28,3.63,3.63,0,0,0-3-1.33,3.45,3.45,0,0,0-2.92,1.4,6.09,6.09,0,0,0,0,6.37.46.46,0,0,1,.1.07,3.38,3.38,0,0,0,2.84,1.3,3.64,3.64,0,0,0,3-1.37A4.9,4.9,0,0,0,646.28,837.11Z" transform="translate(-413.06 -778.52)"/><path class="cls-2" d="M652.07,829l-.1.19q-.22.6-.72.6a.64.64,0,0,1-.73-.72v-1.74c.15-.49.39-.74.73-.74s.56.23.82.7Zm0,13.47a.67.67,0,0,1-.22.46.64.64,0,0,1-.46.22h-.22c-.43,0-.65-.23-.65-.68v-10.8a.58.58,0,0,1,.65-.67h.22a.67.67,0,0,1,.47.2.66.66,0,0,1,.21.47Z" transform="translate(-413.06 -778.52)"/><path class="cls-2" d="M665.61,839.49a4.59,4.59,0,0,1-2,3l-.14,0a5.84,5.84,0,0,1-3.11.82,5.46,5.46,0,0,1-4.21-1.68,6,6,0,0,1-1.55-4.25,6.64,6.64,0,0,1,1.6-4.61,5.62,5.62,0,0,1,4.4-1.78,5.25,5.25,0,0,1,3,.84,4.18,4.18,0,0,1,1.86,2.63v.14a.6.6,0,0,1-.27.58l-.48.27a.69.69,0,0,1-1-.44c-.33-1.51-1.39-2.26-3.15-2.26a3.89,3.89,0,0,0-3.15,1.26,5,5,0,0,0-1.07,3.37,4.3,4.3,0,0,0,1,3,3.76,3.76,0,0,0,3,1.18,4.17,4.17,0,0,0,2.2-.57,2.66,2.66,0,0,0,1.28-1.79c.14-.46.37-.7.7-.7a.82.82,0,0,1,.29.07l0,0,.53.22Z" transform="translate(-413.06 -778.52)"/><path class="cls-2" d="M678.85,837.23a6.24,6.24,0,0,1-1.59,4.46,5.67,5.67,0,0,1-4.32,1.69,5.58,5.58,0,0,1-4.31-1.74,7,7,0,0,1,.08-8.86,6.15,6.15,0,0,1,8.57,0A6.15,6.15,0,0,1,678.85,837.23Zm-1.76,0A4.67,4.67,0,0,0,676,834a4.49,4.49,0,0,0-6.09,0,5.35,5.35,0,0,0,0,6.42,3.82,3.82,0,0,0,3,1.23,3.89,3.89,0,0,0,3.08-1.25A4.67,4.67,0,0,0,677.09,837.23Z" transform="translate(-413.06 -778.52)"/><polyline class="cls-2" points="180.84 26.51 180.84 85.05 183.47 85.05 183.47 26.51"/><path class="cls-2" d="M511.1,823.39l0-.08a20.56,20.56,0,0,0-2.4-6.74,21.11,21.11,0,0,0-11-9.35,21.23,21.23,0,0,0-7.49-1.34,20.55,20.55,0,0,0-9.55,2.3,24.25,24.25,0,0,0-2.27,1.35l-.52.35-.52-.35a24.67,24.67,0,0,0-2.27-1.35,20.47,20.47,0,0,0-9.56-2.3,21,21,0,0,0-7.49,1.35c-.46.17-.92.37-1.37.57v-1.41H444.45v57.07h13V827.05a7.89,7.89,0,0,1,8.06-8.07,8.19,8.19,0,0,1,3.11.58,7.63,7.63,0,0,1,2.45,1.62l.28.28v42h13.1V821.37l.29-.28a7.72,7.72,0,0,1,2.35-1.53,8.23,8.23,0,0,1,3.11-.58,7.89,7.89,0,0,1,8.06,7.71v36.68h13V824.9a6,6,0,0,0-.2-1.51" transform="translate(-413.06 -778.52)"/><path class="cls-2" d="M585.28,823.39l0-.08a20.56,20.56,0,0,0-2.4-6.74,21.14,21.14,0,0,0-18.46-10.69,20.55,20.55,0,0,0-9.55,2.3,24.25,24.25,0,0,0-2.27,1.35l-.52.35-.52-.35a23.4,23.4,0,0,0-2.27-1.35,20.47,20.47,0,0,0-9.56-2.3,21,21,0,0,0-7.49,1.35c-.46.17-.92.37-1.37.57v-1.41H518.64v57.07h13V827.05a7.89,7.89,0,0,1,8.06-8.07,8.19,8.19,0,0,1,3.11.58,7.63,7.63,0,0,1,2.45,1.62l.28.28v42h13.1V821.37l.29-.28a7.72,7.72,0,0,1,2.35-1.53,8.23,8.23,0,0,1,3.11-.58,7.89,7.89,0,0,1,8.06,7.71v36.68h13V824.9a6,6,0,0,0-.2-1.51" transform="translate(-413.06 -778.52)"/><path class="cls-2" d="M429.05,814.23a16.76,16.76,0,0,1-6.54-1.33v50.56h13V812.92a16.63,16.63,0,0,1-6.48,1.31" transform="translate(-413.06 -778.52)"/><path class="cls-3" d="M433.69,802a20.06,20.06,0,0,1-12.05-5.77,21.83,21.83,0,0,1-1.64-1.86,20.05,20.05,0,0,1-4-9.25,16,16,0,0,0,.24,18.85,16.71,16.71,0,0,0,1.52,1.75,16,16,0,0,0,9.14,4.55,19.5,19.5,0,0,0,2.62-2.22,20.06,20.06,0,0,0,4.17-6" transform="translate(-413.06 -778.52)"/><path class="cls-4" d="M443.88,800.49a16.11,16.11,0,0,0-.34-12.82,20.16,20.16,0,0,0-9.7-1.29,20.08,20.08,0,0,1-4.42,21.76,19.66,19.66,0,0,1-2.64,2.22,16.1,16.1,0,0,0,17.1-9.87" transform="translate(-413.06 -778.52)"/><path class="cls-1" d="M440.48,783.22a16.06,16.06,0,0,0-22.7,0,17.24,17.24,0,0,0-1.76,2.09,19.92,19.92,0,0,0,4,9.25,19.7,19.7,0,0,1,2-2.32,20.13,20.13,0,0,1,21.65-4.47,15.77,15.77,0,0,0-3.19-4.55" transform="translate(-413.06 -778.52)"/></svg>