<svg width="111" height="106" viewBox="0 0 111 106" fill="none" xmlns="http://www.w3.org/2000/svg">
<g clip-path="url(#clip0_623_126)">
<path d="M96.6501 13.7L55.4501 0L14.3501 13.7C12.5501 14.3 11.3501 16 11.3501 17.8V54C11.3501 99 55.5501 105.4 55.5501 105.4C55.5501 105.4 99.6501 99.1 99.6501 54V17.8C99.6501 15.9 98.4501 14.3 96.6501 13.7Z" fill="#007CC3"/>
<path d="M55.4501 83.7C72.5709 83.7 86.4501 69.8208 86.4501 52.7C86.4501 35.5792 72.5709 21.7 55.4501 21.7C38.3292 21.7 24.4501 35.5792 24.4501 52.7C24.4501 69.8208 38.3292 83.7 55.4501 83.7Z" fill="white"/>
<path d="M69.9501 47.7H60.4501V38.2C60.4501 35.5 58.2501 33.2 55.4501 33.2C52.7501 33.2 50.4501 35.4 50.4501 38.2V47.7H40.9501C38.2501 47.7 35.9501 49.9 35.9501 52.7C35.9501 55.4 38.1501 57.7 40.9501 57.7H50.4501V67.2C50.4501 69.9 52.6501 72.2 55.4501 72.2C58.1501 72.2 60.4501 70 60.4501 67.2V57.7H69.9501C72.6501 57.7 74.9501 55.5 74.9501 52.7C74.9501 50 72.7501 47.7 69.9501 47.7Z" fill="#F173AC"/>
</g>
<defs>
<clipPath id="clip0_623_126">
<rect width="110.9" height="105.4" fill="white" transform="translate(0.0500488)"/>
</clipPath>
</defs>
</svg>
